<svg id="43db4788-9641-4e73-85e6-7d062446ffd8" data-name="Layer 17" xmlns="http://www.w3.org/2000/svg" viewBox="0 0 1966.14 409.91"><defs><style>.a33b8341-a816-40ce-bf9d-9e60d185629d{fill:#fff;}.b639a882-c652-4890-8585-b301b8e6404a{fill:none;}.eedf1945-d802-450c-8514-9f9d9f35c9f0{fill:#a67c52;}</style></defs><title>oxygen-core-light-2</title><g id="a01c665d-4e0e-4079-861f-9169d00a7489" data-name="Layer 15"><path class="a33b8341-a816-40ce-bf9d-9e60d185629d" d="M207.1,423C161.28,423,123,407,90,374s-49-71.31-49-117.13c0-45.18,16.5-84.59,49-117.13,32.14-32.56,71.53-49,117.13-49,45.82,0,84.13,16,117.13,49,32.85,32.43,49.48,71.83,49.48,117.13,0,45.72-16.62,85.09-49.39,117l-.09.09C291.23,407,252.91,423,207.1,423Zm0-293.32c-35.19,0-65.57,12.54-90.31,37.28-24.45,24.45-36.84,54.68-36.84,89.87,0,35.48,12.4,65.87,36.84,90.31S171.62,384,207.1,384c35.19,0,65.43-12.4,89.87-36.84,24.74-24.74,37.28-55.12,37.28-90.31,0-34.9-12.54-65.13-37.28-89.87S242,129.71,207.1,129.71Z" transform="translate(-40.93 -51.05)"/><polygon class="a33b8341-a816-40ce-bf9d-9e60d185629d" points="805.81 371.99 936.25 205.82 805.81 39.65 855.67 39.65 960.52 174.53 1065.83 39.65 1114.9 39.65 990.09 199.67 952.65 247.68 855.68 371.99 805.81 371.99"/><path class="a33b8341-a816-40ce-bf9d-9e60d185629d" d="M1294.78,423c-45.82,0-84.13-16-117.13-49s-49-71.31-49-117.13c0-46.23,16-84.53,49-117.08l.13-.14c32.11-32.94,70.39-49,117-49a163.41,163.41,0,0,1,64.77,12.85,173.74,173.74,0,0,1,45.88,29.26l-28,27.44c-23.32-20.26-51.07-30.52-82.63-30.52-35.19,0-65.57,12.54-90.31,37.28-24.45,24.45-36.84,54.68-36.84,89.87,0,35.48,12.4,65.87,36.84,90.31S1259.3,384,1294.78,384a130.25,130.25,0,0,0,52.92-11l.22-.1a133.48,133.48,0,0,0,38.29-27.06L1425.79,359a147.17,147.17,0,0,1-18.7,19.87l-.15.14a168.71,168.71,0,0,1-32.87,23.72l-.13.07a141.74,141.74,0,0,1-37.47,14.82l-.35.09A150.8,150.8,0,0,1,1294.78,423Zm10-146.66V237.8h113l-38.58,38.58Z" transform="translate(-40.93 -51.05)"/><path class="a33b8341-a816-40ce-bf9d-9e60d185629d" d="M1464.39,423l42.19-39h162.25v39Zm-10.3-146.66V237.8h214.75v38.58Zm52.74-146.66-38.73-39h200.73v39Z" transform="translate(-40.93 -51.05)"/><polygon class="a33b8341-a816-40ce-bf9d-9e60d185629d" points="1693.26 114.16 1693.26 52.11 1927.57 263.07 1927.57 39.65 1966.14 39.65 1966.14 359.55 1693.26 114.16"/></g><g id="d859b4a9-37b3-4682-9186-2ef6808ab746" data-name="Layer 8"><path class="b639a882-c652-4890-8585-b301b8e6404a" d="M530.81,260.56a519.28,519.28,0,0,0,35,38.64C576.06,309.46,586.51,319.08,597,328a428,428,0,0,0,45-39.19,428.47,428.47,0,0,0,38.7-44.3c-8.49-9.9-17.58-19.74-27.26-29.42a518.06,518.06,0,0,0-40.26-36.3,437.76,437.76,0,0,0-82.35,81.76Z" transform="translate(-40.93 -51.05)"/><path class="eedf1945-d802-450c-8514-9f9d9f35c9f0" d="M437.78,64.85a65,65,0,0,0-8.95,7.46c-.32.32-.61.65-.92,1A68.76,68.76,0,0,1,437,66.09C437.24,65.67,437.51,65.26,437.78,64.85Z" transform="translate(-40.93 -51.05)"/><path class="eedf1945-d802-450c-8514-9f9d9f35c9f0" d="M791.49,437.32c.4-.38.8-.77,1.19-1.16a65,65,0,0,0,7.44-8.91l-1.21.75A68.75,68.75,0,0,1,791.49,437.32Z" transform="translate(-40.93 -51.05)"/><path class="eedf1945-d802-450c-8514-9f9d9f35c9f0" d="M452.09,408.24c.26.27.51.55.78.82a54.75,54.75,0,0,0,7.53,6.28c-.22-.35-.45-.69-.67-1A57.9,57.9,0,0,1,452.09,408.24Z" transform="translate(-40.93 -51.05)"/><path class="eedf1945-d802-450c-8514-9f9d9f35c9f0" d="M765.5,110.18a54.75,54.75,0,0,0-6.26-7.5l-1-1a57.89,57.89,0,0,1,6.25,7.84Z" transform="translate(-40.93 -51.05)"/><path class="a33b8341-a816-40ce-bf9d-9e60d185629d" d="M477.43,306.84Q466.44,293,457,279c-26.52,53.65-30.23,102.88-4.91,129.27a57.9,57.9,0,0,0,7.64,6.06C445.86,391.28,453.38,351.55,477.43,306.84Z" transform="translate(-40.93 -51.05)"/><path d="M813.2,362.74c-2.06-20.31-8.34-42.71-18.46-66.08a202.59,202.59,0,0,1,8,23.39q-3.63-11.24-8.53-22.86,3,7.62,5.32,14.92a150.88,150.88,0,0,1,6.09,27.54c2,17.15-.18,31.86-7,43a42.17,42.17,0,0,1-5.34,7c-.28.29-.54.59-.83.88-8.38,8.38-20,12.81-33.92,13.68-30.55,1.91-72.36-13.37-116.21-42.12a421.26,421.26,0,0,0,37-32.93,418.89,418.89,0,0,0,35.29-40c22.82,34.26,37.5,67.38,42.26,95q.93,5.4,1.36,10.52a48.78,48.78,0,0,0,20.28-7.58,39.65,39.65,0,0,0,5.77-4.76c.26-.26.5-.53.75-.8s.69-.64,1-1a37.8,37.8,0,0,0,5.26-6.63C809.4,345.17,792.58,289,751,230.08c14.18-31.33,17.43-58.5,7.06-75a31.83,31.83,0,0,0-4.43-5.58c-.28-.28-.57-.55-.86-.82s-.41-.45-.63-.67a33.39,33.39,0,0,0-4.86-4,41.07,41.07,0,0,0-17.08-6.38q-.35,4.3-1.14,8.86c-2.11,12.22-6.53,25.73-13,40q-8.75-9.7-18.28-19.25-12.69-12.69-25.69-24c22-9.82,42.1-14.64,58.42-13.62,11.74.73,21.51,4.47,28.56,11.52.24.24.46.49.7.74a35.51,35.51,0,0,1,4.5,5.89c5.72,9.37,7.54,21.76,5.87,36.2A127,127,0,0,1,765,207.14l-4,13c8.52-19.68,13.81-38.54,15.55-55.64,2.19-21.55-1.27-40.3-11-54.33l-1-.63c-22.61-13.62-61.32-6.62-105.05,16.41-1.63.85-3.29,1.74-4.95,2.65q-5.23,2.86-10.61,6.1l-.14.09-1.15.7a422.25,422.25,0,0,0-44.81,31.37,517.82,517.82,0,0,0-78.92,78.46c-7.59-10.1-14.5-20.18-20.71-30.13a434.14,434.14,0,0,1,69.35-68.9A364.23,364.23,0,0,1,619.11,112l1.19-.65.15-.08c2-1.07,4-2.11,6-3.12q5.14-2.61,10.23-5C687.25,80,733,77.77,758.24,101.7q-.51-.54-1-1.07C731.56,75,684.63,76.43,633,99.53Q627.37,102,621.57,105c-54-34.88-103.9-48-130.47-31.29a37.8,37.8,0,0,0-6.65,5.28c-.32.32-.62.65-.93,1s-.57.52-.84.79a39.58,39.58,0,0,0-4.76,5.76c-4.44,6.53-7.06,14.48-8,23.57a111.44,111.44,0,0,1,11.73,1.16c23.6,3.55,51.43,14.59,80.66,31.95A422.48,422.48,0,0,0,495,210.05c-22.57-37.48-34.81-72.78-34.34-99.94.27-15.58,4.72-28.49,13.83-37.6.3-.3.61-.58.92-.86a42.18,42.18,0,0,1,6.95-5.3c11.13-6.79,25.85-9,43-7a150.88,150.88,0,0,1,27.54,6.09q7.29,2.29,14.92,5.31-11.6-4.9-22.86-8.53a202.57,202.57,0,0,1,23.39,8C545,60.14,522.57,53.86,502.26,51.8c-25.57-2.6-47.82,1.5-64.48,13-.27.41-.54.82-.79,1.24C416.83,99.54,434.7,162.68,480,230q1.64,2.44,3.33,4.89,9.9,14.33,21.4,28.8,6.14,7.72,12.72,15.43c10.2,11.95,21.17,23.83,32.86,35.52q13.92,13.92,28.16,26.45a563.24,563.24,0,0,0,44.29,35.38c10.55,7.56,21,14.49,31.36,20.71l1.36.83.17.1q9.43,5.68,18.47,10.39c51.93,27.35,97.91,35.67,124.76,19.49l1.21-.75C811.7,410.59,815.8,388.33,813.2,362.74ZM565.8,299.2a519.26,519.26,0,0,1-35-38.64,437.76,437.76,0,0,1,82.35-81.76,518.06,518.06,0,0,1,40.26,36.3c9.67,9.67,18.76,19.52,27.26,29.42a428.47,428.47,0,0,1-38.7,44.3A428,428,0,0,1,597,328C586.51,319.08,576.06,309.46,565.8,299.2Z" transform="translate(-40.93 -51.05)"/><path d="M647.14,435.53q-9.55-4.38-19.28-9.59l-.18-.09-1.42-.77a415,415,0,0,1-41.86-26.17,486.57,486.57,0,0,1-44.83-36q-9.72-8.78-19.23-18.28-13.22-13.22-25-26.88-7.46-8.6-14.35-17.31-11.06-14-20.59-28.1-1.64-2.42-3.22-4.85c-51.55-78.62-65.64-156.29-29.24-194.23q-.76.72-1.51,1.46c-38.9,38.9-25.32,119.1,27.38,199.42-26.92,55-30,105.8-3,132.86q.62.62,1.27,1.23C426.77,381.85,430.47,332.62,457,279q9.44,14,20.43,27.87c-24,44.71-31.57,84.44-17.7,107.46.21.35.44.7.67,1,14,9.73,32.76,13.18,54.29,11,17.1-1.74,36-7,55.64-15.55l-13,4a127.06,127.06,0,0,1-23.19,5.13c-14.44,1.68-26.83-.15-36.21-5.87a35.51,35.51,0,0,1-5.85-4.47c-.26-.24-.52-.48-.77-.73-7.66-7.66-11.41-18.54-11.64-31.66-.27-15,4.12-33.07,12.56-52.62q11,12.62,23.27,24.89Q524,358,532.72,365.92c-12.59,5.23-24.51,8.76-35.36,10.39a93.86,93.86,0,0,1-9.88,1c.78,7.65,3,14.35,6.73,19.85a33.33,33.33,0,0,0,4,4.85c.23.23.47.44.71.67s.51.55.78.82a31.83,31.83,0,0,0,5.6,4.44c16,10,42,7.28,72.19-5.84a407.86,407.86,0,0,0,44.28,27.52l1.43.76.18.09q9.87,5.25,19.41,9.46c61.3,27.44,117,29.14,147.49-1.31q.63-.63,1.23-1.27C761.58,465.74,707.19,463,647.14,435.53Z" transform="translate(-40.93 -51.05)"/><path class="a33b8341-a816-40ce-bf9d-9e60d185629d" d="M758.24,101.7C733,77.77,687.25,80,636.69,103.21q-5.08,2.33-10.23,5c-2,1-4,2-6,3.12l-.15.08-1.19.65a364.23,364.23,0,0,0-51.61,34.27,434.14,434.14,0,0,0-69.35,68.9c6.21,9.95,13.12,20,20.71,30.13a517.82,517.82,0,0,1,78.92-78.46,422.25,422.25,0,0,1,44.81-31.37l1.15-.7.14-.09q5.38-3.24,10.61-6.1c1.66-.91,3.31-1.8,4.95-2.65,43.73-23,82.44-30,105.05-16.41A57.89,57.89,0,0,0,758.24,101.7Z" transform="translate(-40.93 -51.05)"/><path class="a33b8341-a816-40ce-bf9d-9e60d185629d" d="M674.16,408.52q-9-4.7-18.47-10.39l-.17-.1-1.36-.83c-10.32-6.22-20.81-13.15-31.36-20.71a563.24,563.24,0,0,1-44.29-35.38q-14.2-12.53-28.16-26.45c-11.69-11.69-22.66-23.57-32.86-35.52q-6.58-7.7-12.72-15.43-11.49-14.44-21.4-28.8-1.69-2.45-3.33-4.89C434.7,162.68,416.83,99.54,437,66.09a68.76,68.76,0,0,0-9.08,7.19c-36.4,37.93-22.31,115.61,29.24,194.23q1.59,2.42,3.22,4.85,9.51,14.08,20.59,28.1,6.88,8.7,14.35,17.31,11.82,13.62,25,26.88,9.5,9.5,19.23,18.28a486.57,486.57,0,0,0,44.83,36,415,415,0,0,0,41.86,26.17l1.42.77.18.09q9.71,5.2,19.28,9.59c60.05,27.51,114.43,30.21,144.35,1.79a68.75,68.75,0,0,0,7.42-9.31C772.06,444.19,726.08,435.87,674.16,408.52Z" transform="translate(-40.93 -51.05)"/></g></svg>
