<?xml version="1.0" encoding="UTF-8" standalone="no"?><!DOCTYPE svg PUBLIC "-//W3C//DTD SVG 1.1//EN" "http://www.w3.org/Graphics/SVG/1.1/DTD/svg11.dtd"><svg width="100%" height="100%" viewBox="0 0 2048 512" version="1.1" xmlns="http://www.w3.org/2000/svg" xmlns:xlink="http://www.w3.org/1999/xlink" xml:space="preserve" xmlns:serif="http://www.serif.com/" style="fill-rule:evenodd;clip-rule:evenodd;stroke-linejoin:round;stroke-miterlimit:2;"><rect id="logo-color" x="0" y="0" width="2048" height="512" style="fill:none;"/><g id="logo-color1" serif:id="logo-color"><g id="Layer3"><path d="M207.098,129.714c-35.186,0 -65.57,12.543 -90.311,37.282c-24.447,24.446 -36.842,54.683 -36.842,89.872c-0,35.48 12.395,65.865 36.843,90.31c24.445,24.448 54.83,36.843 90.31,36.843c35.188,0 65.426,-12.395 89.871,-36.844c24.738,-24.738 37.282,-55.123 37.282,-90.309c-0,-34.897 -12.544,-65.134 -37.282,-89.872c-24.738,-24.739 -54.975,-37.282 -89.871,-37.282m-0,293.324c-45.815,0 -84.128,-16.042 -117.128,-49.042c-33,-33 -49.042,-71.313 -49.042,-117.128c-0,-45.18 16.5,-84.588 49.042,-117.13c32.14,-32.557 71.532,-49.041 117.128,-49.041c45.816,0 84.13,16.041 117.13,49.041c32.849,32.433 49.481,71.826 49.481,117.13c-0,45.718 -16.617,85.095 -49.389,117.038l-0.092,0.09c-33,33 -71.314,49.042 -117.13,49.042" style="fill:#fbb03b;fill-rule:nonzero;"/><path d="M846.739,423.038l130.443,-166.17l-130.443,-166.171l49.857,0l104.852,134.876l105.312,-134.876l49.071,0l-124.815,160.021l-37.436,48.007l-96.973,124.313l-49.868,0Z" style="fill:#fbb03b;fill-rule:nonzero;"/><path d="M1304.78,276.376l0,-38.576l112.96,-0l-38.576,38.576l-74.384,-0Zm-10,146.662c-45.815,0 -84.129,-16.042 -117.129,-49.042c-33,-33 -49.041,-71.313 -49.041,-117.128c0,-46.233 16.026,-84.532 48.996,-117.085l0.135,-0.136c32.105,-32.938 70.39,-48.95 117.039,-48.95c23.09,0 44.881,4.322 64.768,12.846c16.933,7.408 32.339,17.234 45.881,29.259l-28.02,27.437c-23.317,-20.263 -51.068,-30.525 -82.629,-30.525c-35.187,-0 -65.571,12.544 -90.312,37.282c-24.446,24.447 -36.841,54.684 -36.841,89.872c0,35.481 12.395,65.865 36.841,90.311c24.446,24.447 54.831,36.843 90.312,36.843c18.601,0 36.407,-3.695 52.924,-10.982l0.222,-0.101c14.346,-6.75 27.199,-15.837 38.289,-27.062l39.579,13.095c-5.783,7.379 -11.964,13.941 -18.704,19.872l-0.153,0.136c-10.3,9.443 -21.051,17.202 -32.867,23.721l-0.13,0.073c-11.733,6.704 -23.99,11.551 -37.473,14.819l-0.351,0.092c-12.808,3.602 -26.329,5.353 -41.336,5.353" style="fill:#fbb03b;fill-rule:nonzero;"/><path d="M1506.83,129.714l-38.727,-39.017l200.733,0l0,39.017l-162.006,0Zm-52.741,108.085l214.747,0l0,38.576l-214.747,0l0,-38.576Zm10.303,185.239l42.189,-39.017l162.255,0l0,39.017l-204.444,0Z" style="fill:#fbb03b;fill-rule:nonzero;"/><path d="M1734.19,165.207l-0.001,-62.05l234.306,210.964l0,-223.424l38.577,0l0,319.9l-272.883,-245.39Z" style="fill:#fbb03b;fill-rule:nonzero;"/><path d="M437.78,64.848c-3.192,2.213 -6.181,4.697 -8.947,7.463c-0.316,0.316 -0.612,0.647 -0.92,0.969c2.825,-2.658 5.856,-5.055 9.075,-7.193c0.254,-0.422 0.526,-0.827 0.792,-1.239" style="fill:#a67c52;fill-rule:nonzero;"/><path d="M791.493,437.323c0.402,-0.381 0.801,-0.766 1.194,-1.158c2.755,-2.755 5.229,-5.73 7.436,-8.907c-0.399,0.256 -0.803,0.505 -1.211,0.751c-2.199,3.311 -4.671,6.42 -7.419,9.314" style="fill:#a67c52;fill-rule:nonzero;"/><path d="M452.088,408.243c0.26,0.271 0.509,0.549 0.775,0.815c2.329,2.33 4.846,4.421 7.534,6.285c-0.224,-0.347 -0.453,-0.689 -0.667,-1.043c-2.711,-1.801 -5.262,-3.819 -7.642,-6.057" style="fill:#a67c52;fill-rule:nonzero;"/><path d="M765.505,110.179c-1.858,-2.675 -3.942,-5.181 -6.261,-7.5c-0.331,-0.331 -0.668,-0.654 -1.006,-0.976c2.314,2.437 4.395,5.056 6.247,7.844c0.343,0.206 0.684,0.416 1.02,0.632" style="fill:#a67c52;fill-rule:nonzero;"/><path d="M477.428,306.84c-7.322,-9.237 -14.136,-18.546 -20.433,-27.867c-26.524,53.648 -30.228,102.881 -4.906,129.27c2.38,2.238 4.931,4.256 7.642,6.056c-13.871,-23.021 -6.353,-62.75 17.697,-107.459" style="fill:#fbb03b;fill-rule:nonzero;"/><path d="M565.798,299.2c-12.673,-12.673 -24.365,-25.631 -34.988,-38.639c10.943,-14.301 23.461,-28.632 37.384,-42.553c14.706,-14.706 29.866,-27.836 44.967,-39.207c13.554,10.972 27.063,23.101 40.263,36.301c9.674,9.674 18.763,19.515 27.255,29.417c-11.254,14.881 -24.211,29.812 -38.701,44.303c-14.701,14.7 -29.856,27.823 -44.951,39.191c-10.514,-8.931 -20.965,-18.549 -31.229,-28.813m247.402,63.539c-2.062,-20.307 -8.34,-42.709 -18.463,-66.081c3.298,8.083 5.968,15.902 8.001,23.392c-2.417,-7.495 -5.261,-15.129 -8.528,-22.865c2.016,5.078 3.79,10.058 5.315,14.92c3.041,9.693 5.091,18.921 6.092,27.536c1.993,17.145 -0.176,31.861 -6.965,42.992c-1.54,2.523 -3.326,4.853 -5.345,6.994c-0.276,0.293 -0.543,0.593 -0.828,0.878c-8.377,8.378 -19.982,12.813 -33.923,13.682c-30.551,1.906 -72.358,-13.372 -116.208,-42.117c12.421,-9.789 24.853,-20.807 36.977,-32.931c13.11,-13.109 24.926,-26.579 35.293,-40.004c22.816,34.254 37.497,67.376 42.256,94.991c0.621,3.602 1.079,7.115 1.359,10.521c7.727,-1.18 14.549,-3.682 20.28,-7.575c2.068,-1.406 3.998,-2.988 5.772,-4.761c0.258,-0.258 0.499,-0.53 0.749,-0.795c0.344,-0.319 0.686,-0.641 1.019,-0.974c2.006,-2.005 3.75,-4.224 5.262,-6.627c18.089,-28.744 1.269,-84.876 -40.291,-143.839c14.177,-31.332 17.434,-58.502 7.064,-74.981c-1.273,-2.023 -2.742,-3.892 -4.431,-5.581c-0.28,-0.28 -0.568,-0.551 -0.858,-0.819c-0.21,-0.224 -0.413,-0.453 -0.631,-0.67c-1.493,-1.493 -3.118,-2.825 -4.86,-4.009c-4.825,-3.278 -10.571,-5.384 -17.076,-6.378c-0.236,2.868 -0.622,5.825 -1.145,8.859c-2.105,12.221 -6.527,25.725 -13.026,39.973c-5.832,-6.466 -11.929,-12.893 -18.284,-19.249c-8.463,-8.462 -17.051,-16.47 -25.689,-23.997c21.964,-9.824 42.098,-14.638 58.416,-13.62c11.738,0.732 21.51,4.467 28.564,11.521c0.24,0.241 0.465,0.493 0.697,0.74c1.701,1.802 3.205,3.765 4.5,5.889c5.718,9.373 7.544,21.763 5.866,36.2c-0.843,7.255 -2.57,15.025 -5.13,23.187l-4.032,13.007c8.524,-19.68 13.811,-38.543 15.548,-55.643c2.188,-21.55 -1.267,-40.295 -11.012,-54.326c-0.336,-0.217 -0.677,-0.426 -1.02,-0.633c-22.607,-13.622 -61.324,-6.622 -105.05,16.411c-1.634,0.85 -3.286,1.742 -4.947,2.651c-3.485,1.909 -7.022,3.937 -10.609,6.097c-0.048,0.028 -0.096,0.057 -0.143,0.085c-0.382,0.228 -0.766,0.466 -1.148,0.696c-14.681,8.852 -29.747,19.369 -44.809,31.371c-14.316,11.408 -28.629,24.157 -42.604,38.133c-13.233,13.233 -25.373,26.771 -36.313,40.327c-7.587,-10.104 -14.501,-20.182 -20.708,-30.129c9.613,-12.02 20.221,-23.905 31.768,-35.452c12.229,-12.229 24.836,-23.399 37.583,-33.452c17.143,-13.522 34.538,-25.017 51.61,-34.271c0.397,-0.215 0.796,-0.438 1.193,-0.651c0.05,-0.027 0.099,-0.053 0.149,-0.079c2.006,-1.075 4.006,-2.108 6.001,-3.121c3.428,-1.74 6.842,-3.398 10.232,-4.951c50.565,-23.166 96.356,-25.44 121.548,-1.508c-0.341,-0.359 -0.686,-0.716 -1.037,-1.067c-25.637,-25.637 -72.575,-24.208 -124.191,-1.104c-3.759,1.657 -7.577,3.473 -11.437,5.424c-53.952,-34.88 -103.899,-47.984 -130.469,-31.287c-2.411,1.515 -4.638,3.264 -6.649,5.276c-0.318,0.318 -0.622,0.648 -0.928,0.977c-0.28,0.264 -0.567,0.518 -0.84,0.791c-1.771,1.772 -3.352,3.699 -4.756,5.765c-4.436,6.53 -7.06,14.483 -7.989,23.568c3.777,0.164 7.693,0.553 11.734,1.161c23.595,3.552 51.43,14.59 80.662,31.949c-12.394,9.786 -24.635,20.629 -36.501,32.495c-11.195,11.195 -21.487,22.724 -30.836,34.4c-22.57,-37.482 -34.814,-72.776 -34.335,-99.936c0.274,-15.582 4.724,-28.493 13.827,-37.596c0.297,-0.298 0.61,-0.576 0.915,-0.863c2.128,-2.003 4.443,-3.775 6.948,-5.304c11.131,-6.794 25.85,-8.964 43,-6.971c8.616,1.001 17.846,3.052 27.54,6.093c4.861,1.525 9.839,3.298 14.916,5.313c-7.736,-3.266 -15.37,-6.11 -22.866,-8.527c7.491,2.033 15.31,4.702 23.393,8.001c-23.372,-10.123 -45.774,-16.401 -66.081,-18.463c-25.572,-2.598 -47.817,1.498 -64.478,13.049c-0.265,0.412 -0.538,0.818 -0.792,1.239c-20.153,33.449 -2.287,96.593 43.039,163.935c1.094,1.626 2.206,3.255 3.333,4.886c6.598,9.552 13.742,19.176 21.4,28.8c4.096,5.148 8.331,10.295 12.717,15.431c10.201,11.947 21.173,23.834 32.861,35.522c9.282,9.283 18.693,18.097 28.158,26.449c14.717,12.987 29.566,24.82 44.292,35.38c10.55,7.564 21.035,14.488 31.36,20.713c0.454,0.274 0.91,0.556 1.363,0.827c0.057,0.034 0.113,0.067 0.17,0.101c6.289,3.787 12.459,7.258 18.474,10.389c51.929,27.353 97.909,35.667 124.758,19.49c0.407,-0.246 0.812,-0.495 1.21,-0.751c11.573,-16.665 15.677,-38.926 13.077,-64.519" style="fill:#1a1a1a;fill-rule:nonzero;"/><path d="M647.143,435.531c-6.37,-2.918 -12.803,-6.116 -19.278,-9.585c-0.059,-0.032 -0.118,-0.063 -0.177,-0.095c-0.471,-0.253 -0.944,-0.517 -1.417,-0.773c-13.848,-7.507 -27.875,-16.266 -41.864,-26.171c-15.079,-10.677 -30.114,-22.689 -44.829,-35.978c-6.48,-5.851 -12.898,-11.945 -19.231,-18.278c-8.815,-8.815 -17.162,-17.797 -25.039,-26.879c-4.976,-5.737 -9.762,-11.512 -14.35,-17.314c-7.375,-9.326 -14.248,-18.716 -20.586,-28.105c-1.09,-1.615 -2.164,-3.231 -3.223,-4.845c-51.546,-78.617 -65.636,-156.295 -29.236,-194.229c-0.508,0.478 -1.011,0.962 -1.505,1.457c-38.901,38.901 -25.317,119.099 27.378,199.418c-26.925,54.988 -30.031,105.795 -2.965,132.861c0.417,0.417 0.84,0.825 1.268,1.227c-25.322,-26.389 -21.618,-75.622 4.906,-129.269c6.296,9.32 13.11,18.63 20.433,27.867c-24.051,44.709 -31.569,84.437 -17.698,107.459c0.214,0.355 0.444,0.696 0.667,1.043c14.029,9.727 32.76,13.175 54.293,10.989c17.099,-1.737 35.963,-7.024 55.642,-15.547l-13.002,4.03c-8.164,2.561 -15.936,4.288 -23.191,5.132c-14.44,1.677 -26.834,-0.15 -36.207,-5.871c-2.11,-1.287 -4.059,-2.779 -5.851,-4.466c-0.257,-0.242 -0.52,-0.476 -0.771,-0.727c-7.665,-7.664 -11.412,-18.537 -11.643,-31.657c-0.265,-15.048 4.121,-33.066 12.556,-52.618c7.349,8.413 15.107,16.73 23.273,24.895c5.672,5.673 11.422,11.133 17.221,16.414c-12.588,5.23 -24.509,8.756 -35.358,10.389c-3.402,0.512 -6.699,0.84 -9.881,0.978c0.783,7.65 2.993,14.347 6.728,19.845c1.182,1.74 2.513,3.363 4.004,4.854c0.23,0.23 0.472,0.445 0.707,0.667c0.258,0.277 0.514,0.554 0.783,0.822c1.693,1.694 3.568,3.167 5.597,4.443c15.992,10.049 42.042,7.277 72.189,-5.845c14.772,10.494 29.615,19.709 44.276,27.518c0.475,0.253 0.951,0.515 1.425,0.765c0.06,0.032 0.119,0.062 0.178,0.094c6.579,3.497 13.06,6.656 19.408,9.455c61.299,27.439 117.042,29.135 147.489,-1.311c0.417,-0.417 0.826,-0.841 1.231,-1.267c-29.918,28.421 -84.3,25.72 -144.35,-1.792" style="fill:#1a1a1a;fill-rule:nonzero;"/><path d="M758.238,101.703c-25.192,-23.932 -70.984,-21.658 -121.549,1.508c-3.389,1.554 -6.803,3.211 -10.231,4.951c-1.996,1.013 -3.995,2.046 -6.002,3.121c-0.05,0.026 -0.099,0.052 -0.149,0.079c-0.397,0.214 -0.795,0.436 -1.193,0.652c-17.071,9.253 -34.466,20.748 -51.61,34.27c-12.746,10.053 -25.353,21.223 -37.582,33.452c-11.548,11.548 -22.155,23.432 -31.768,35.452c6.207,9.947 13.12,20.025 20.708,30.129c10.94,-13.556 23.079,-27.094 36.313,-40.327c13.975,-13.975 28.288,-26.724 42.604,-38.133c15.062,-12.002 30.128,-22.519 44.808,-31.371c0.382,-0.23 0.766,-0.468 1.148,-0.696c0.048,-0.028 0.095,-0.057 0.143,-0.085c3.588,-2.16 7.124,-4.188 10.61,-6.097c1.66,-0.909 3.312,-1.801 4.946,-2.651c43.726,-23.033 82.443,-30.033 105.051,-16.411c-1.852,-2.787 -3.933,-5.406 -6.247,-7.843" style="fill:#fbb03b;fill-rule:nonzero;"/><path d="M674.155,408.52c-6.016,-3.132 -12.185,-6.603 -18.475,-10.389c-0.056,-0.034 -0.112,-0.068 -0.17,-0.102c-0.453,-0.272 -0.909,-0.553 -1.363,-0.827c-10.324,-6.224 -20.81,-13.149 -31.359,-20.714c-14.727,-10.559 -29.576,-22.392 -44.293,-35.379c-9.465,-8.351 -18.875,-17.166 -28.158,-26.448c-11.687,-11.689 -22.659,-23.576 -32.861,-35.523c-4.385,-5.137 -8.621,-10.283 -12.717,-15.43c-7.657,-9.624 -14.801,-19.248 -21.4,-28.801c-1.126,-1.631 -2.239,-3.26 -3.333,-4.886c-45.325,-67.342 -63.191,-130.485 -43.038,-163.935c-3.219,2.14 -6.249,4.536 -9.075,7.194c-36.4,37.932 -22.31,115.611 29.236,194.228c1.059,1.614 2.133,3.231 3.223,4.846c6.338,9.389 13.211,18.778 20.586,28.103c4.588,5.803 9.374,11.578 14.35,17.315c7.877,9.082 16.224,18.064 25.039,26.878c6.332,6.334 12.751,12.428 19.231,18.279c14.715,13.29 29.75,25.302 44.829,35.978c13.989,9.904 28.016,18.665 41.864,26.172c0.472,0.255 0.946,0.519 1.417,0.772c0.059,0.032 0.118,0.063 0.176,0.096c6.476,3.469 12.909,6.666 19.279,9.584c60.05,27.512 114.432,30.214 144.35,1.791c2.748,-2.894 5.22,-6.002 7.419,-9.314c-26.849,16.179 -72.828,7.865 -124.757,-19.488" style="fill:#fbb03b;fill-rule:nonzero;"/></g></g></svg>