<?xml version="1.0" encoding="UTF-8" standalone="no"?>
<!DOCTYPE svg PUBLIC "-//W3C//DTD SVG 1.1//EN" "http://www.w3.org/Graphics/SVG/1.1/DTD/svg11.dtd">
<svg width="100%" height="100%" viewBox="0 0 128 128" version="1.1" xmlns="http://www.w3.org/2000/svg" xmlns:xlink="http://www.w3.org/1999/xlink" xml:space="preserve" xmlns:serif="http://www.serif.com/" style="fill-rule:evenodd;clip-rule:evenodd;stroke-linecap:round;stroke-linejoin:round;stroke-miterlimit:1.5;">
    <g transform="matrix(1,0,0,1,-1568,0)">
        <g transform="matrix(1,0,0,1,-0.333333,0)">
            <g id="animal-air-ground" transform="matrix(0.0808137,0,0,0.0808137,1557.11,-46.6593)">
                <g transform="matrix(1,0,0,1,11.919,-42.2706)">
                    <g id="skrzydło-male" serif:id="skrzydło male">
                        <path d="M1175.62,1170.26C1200.11,1159.69 1293.17,1157.39 1319.68,1154.36C1383.92,1147.01 1504.26,1154.76 1517.5,1158.46C1540.72,1164.95 1433.44,1204.59 1360.19,1226.22C1341.67,1231.69 1203.07,1279.19 1175.62,1268.67C1151.4,1259.4 1170.78,1190.58 1175.62,1170.26ZM1175.62,1170.26L1173.5,1171.24C1174.16,1170.91 1174.87,1170.59 1175.62,1170.26L1175.62,1170.26Z" style="fill:rgb(36,117,30);stroke:black;stroke-width:11px;"/>
                    </g>
                </g>
                <g transform="matrix(0.248645,0.968595,-0.968595,0.248645,2382.93,-557.07)">
                    <g id="dzioob">
                        <path d="M1281.19,1073.8C1292.81,1240.56 1305.88,1401.68 1318.42,1564.81L1240.16,1564.81L1281.19,1073.8Z" style="fill:rgb(34,17,17);stroke:black;stroke-width:10.83px;"/>
                    </g>
                </g>
                <g transform="matrix(1,0,0,1,2.55355,0)">
                    <g id="tułow">
                        <path d="M805.377,1092.21C814.485,1086.33 843.21,1071.97 851.086,1063.49C915.052,994.603 964.663,937.099 1067.19,953.789C1094.22,958.19 1117.97,969.597 1143.2,982.738C1210.5,1017.79 1228.98,1142.82 1203.04,1212.89C1190.12,1247.8 1181.78,1288.54 1163.13,1323.78C1102.27,1438.78 956.998,1553.03 807.959,1599.26C770.508,1610.87 722.714,1614.97 684.165,1620.97C619.591,1631.01 559.628,1652.41 501.161,1680.89C423.036,1718.96 349.626,1769.19 265.676,1794.15C263.403,1794.83 257.397,1797.28 255.434,1794.66C253.941,1792.67 257.059,1788.96 258.058,1787.46C293.938,1733.64 340.232,1673.27 379.736,1622.06C476.464,1496.67 557.855,1336.54 660.887,1225.46C724.822,1156.53 750.268,1127.8 805.377,1092.21Z" style="fill:rgb(36,117,30);stroke:black;stroke-width:11px;"/>
                    </g>
                </g>
                <g transform="matrix(1.20179,0,0,0.985658,-1076.5,-595.545)">
                    <g id="skrzydło-dyze" serif:id="skrzydło dyze">
                        <path d="M1496.4,1935.44L1371.96,1967.24C1371.96,1967.24 1311.32,1986.91 1294.68,1985.06C1282.53,1983.7 1277.1,1967.61 1272.85,1955.69C1270.59,1949.36 1266.1,1931.94 1263.34,1921.44C1262.13,1916.87 1336.05,1898.85 1365.71,1898.81C1365.71,1898.81 1250.57,1912.59 1223.29,1910.96C1213.12,1910.35 1207.26,1897.45 1202.02,1889.01C1196.78,1880.57 1191.85,1860.31 1191.85,1860.31C1189.13,1852.57 1243.96,1843.16 1298.33,1839.92C1298.33,1839.92 1189.17,1852.09 1162.61,1849.97C1151.7,1849.11 1145.2,1836.07 1138.93,1827.23C1132.66,1818.39 1125,1796.95 1125,1796.95C1119.91,1791.13 1222.38,1777.48 1223.44,1777.4C1223.44,1777.4 1123.96,1788.94 1098.26,1784.89C1084.09,1782.65 1079.6,1768.78 1069.25,1753.08C1055.62,1732.41 1047.46,1707.13 1055.92,1707.13L1598.71,1707.13" style="fill:rgb(36,117,30);stroke:black;stroke-width:9.86px;"/>
                    </g>
                </g>
                <g transform="matrix(0.730343,-0.667222,0.421126,0.460966,-563.556,1203.71)">
                    <g id="cien-skrzydla" serif:id="cien skrzydla">
                        <path d="M750.202,1398.63L884.898,1523.44L662.696,1434.43L750.202,1398.63Z" style="fill:rgb(29,75,26);"/>
                    </g>
                </g>
                <g transform="matrix(1,0,0,1,-8.25649,5.47698)">
                    <g id="japa">
                        <path d="M1155.07,1339.95C1174.67,1327.28 1197.63,1272.38 1202.8,1251.71C1219.64,1184.46 1246.86,1091.05 1194.76,1029.4C1194.76,1029.4 1177.36,1036.53 1173.12,1039.74C1150.53,1056.83 1134.04,1084.31 1109.16,1098.3C1076.54,1116.63 1040.88,1108.31 1015.17,1102.86C952.304,1089.55 927.706,1176.63 952.491,1238.34C959.108,1254.81 967.326,1272.09 981.29,1283.89C998.756,1298.67 1014.3,1296.92 1034.38,1303.24C1067.41,1313.63 1099.85,1335.68 1133.73,1343.04C1140.9,1344.6 1148.77,1344.02 1155.07,1339.95" style="fill:rgb(192,70,90);stroke:black;stroke-width:11px;"/>
                    </g>
                </g>
                <g transform="matrix(1,0,0,1,409.121,139.665)">
                    <g id="oko">
                        <ellipse cx="662.735" cy="906.981" rx="19.045" ry="19.751" style="stroke:black;stroke-width:3.45px;"/>
                    </g>
                </g>
                <g id="ogon-linie" serif:id="ogon linie">
                    <g transform="matrix(0.92881,-0.263567,0.239338,0.843427,-431.579,240.025)">
                        <path d="M511.929,1765.38L246.787,1921.76L511.929,1765.38Z" style="fill:none;stroke:black;stroke-width:9.43px;"/>
                    </g>
                    <g transform="matrix(-0.270834,0.251204,-1.05399,-1.13636,1115.79,2149.22)">
                        <path d="M391.516,515.495L1052.81,543.71" style="fill:none;stroke:black;stroke-width:7.77px;"/>
                    </g>
                </g>
                <g id="nogi">
                    <g transform="matrix(0.230665,0,0,0.443582,655.261,758.646)">
                        <g transform="matrix(-0.520981,-0.223563,0.388767,-0.905966,991.533,3723.68)">
                            <path d="M1116.47,1781.62C1136.44,1771.6 1130.5,1832.91 1142.77,1845.58C1159.5,1862.87 1236.35,1878.71 1216.85,1885.34C1197.36,1891.98 1068.32,1899.52 1051.59,1882.24C1034.86,1864.95 1094.6,1792.59 1116.47,1781.62Z" style="fill:rgb(34,17,17);stroke:black;stroke-width:11.74px;"/>
                        </g>
                        <g transform="matrix(-0.475597,0.111449,-0.230382,-0.983129,2016.99,3481.46)">
                            <path d="M1116.47,1781.62C1136.44,1771.6 1171.1,1814 1183.36,1826.67C1200.09,1843.96 1216.36,1871.38 1196.87,1878.02C1177.37,1884.65 1069.06,1897.18 1052.33,1879.89C1035.6,1862.61 1094.6,1792.59 1116.47,1781.62Z" style="fill:rgb(34,17,17);stroke:black;stroke-width:14.04px;"/>
                        </g>
                        <g transform="matrix(-0.567349,-0.00800676,0.0151291,-1.07203,1692.32,3783.51)">
                            <path d="M1116.47,1781.62C1143.95,1773.52 1135.77,1820.65 1149.28,1833.31C1154.79,1838.47 1170.28,1850.79 1180.46,1856.32C1203.65,1868.91 1230.4,1880.74 1216.85,1885.34C1197.36,1891.98 1046.26,1902.63 1029.53,1885.34C1012.8,1868.06 1090.15,1789.38 1116.47,1781.62Z" style="fill:rgb(34,17,17);stroke:black;stroke-width:11.89px;"/>
                        </g>
                    </g>
                    <g transform="matrix(0.201653,-0.0489631,0.0961101,0.395827,597.617,868.531)">
                        <g transform="matrix(-0.520981,-0.223563,0.388767,-0.905966,991.533,3723.68)">
                            <path d="M1116.47,1781.62C1136.44,1771.6 1130.5,1832.91 1142.77,1845.58C1159.5,1862.87 1236.35,1878.71 1216.85,1885.34C1197.36,1891.98 1068.32,1899.52 1051.59,1882.24C1034.86,1864.95 1094.6,1792.59 1116.47,1781.62Z" style="fill:rgb(34,17,17);stroke:black;stroke-width:12.78px;"/>
                        </g>
                        <g transform="matrix(-0.475597,0.111449,-0.230382,-0.983129,2016.99,3481.46)">
                            <path d="M1116.47,1781.62C1136.44,1771.6 1171.1,1814 1183.36,1826.67C1200.09,1843.96 1216.36,1871.38 1196.87,1878.02C1177.37,1884.65 1069.06,1897.18 1052.33,1879.89C1035.6,1862.61 1094.6,1792.59 1116.47,1781.62Z" style="fill:rgb(34,17,17);stroke:black;stroke-width:15.34px;"/>
                        </g>
                        <g transform="matrix(-0.567349,-0.00800676,0.0151291,-1.07203,1692.32,3783.51)">
                            <path d="M1116.47,1781.62C1143.95,1773.52 1135.77,1820.65 1149.28,1833.31C1154.79,1838.47 1170.28,1850.79 1180.46,1856.32C1203.65,1868.91 1230.4,1880.74 1216.85,1885.34C1197.36,1891.98 1046.26,1902.63 1029.53,1885.34C1012.8,1868.06 1090.15,1789.38 1116.47,1781.62Z" style="fill:rgb(34,17,17);stroke:black;stroke-width:12.96px;"/>
                        </g>
                    </g>
                </g>
            </g>
        </g>
    </g>
</svg>
