<?xml version="1.0" encoding="UTF-8" standalone="no"?>
<!DOCTYPE svg PUBLIC "-//W3C//DTD SVG 1.1//EN" "http://www.w3.org/Graphics/SVG/1.1/DTD/svg11.dtd">
<svg width="100%" height="100%" viewBox="0 0 128 128" version="1.1" xmlns="http://www.w3.org/2000/svg" xmlns:xlink="http://www.w3.org/1999/xlink" xml:space="preserve" xmlns:serif="http://www.serif.com/" style="fill-rule:evenodd;clip-rule:evenodd;stroke-linejoin:round;stroke-miterlimit:1.5;">
    <g transform="matrix(1,0,0,1,-1904,0)">
        <g transform="matrix(1,0,0,1,-0.333333,0)">
            <g id="item-shield" transform="matrix(1,0,0,1,0,-4.5)">
                <g transform="matrix(1,0,0,1,0.333333,0)">
                    <path d="M1967.71,116.859C1943.47,104.852 1928.64,78.931 1926,35C1939.49,36.099 1953.52,30.774 1968,20L1968.34,20.252C1982.7,30.857 1996.61,36.09 2010,35C2007.35,79.103 1992.42,105.054 1968,117L1967.71,116.859Z" style="fill:rgb(0,151,163);"/>
                </g>
                <g transform="matrix(1,0,0,1,0.333333,0)">
                    <path d="M2009.36,43.101C2008.63,50.378 2007.54,57.113 2006.09,63.331L1962.92,114.23C1959.89,112.394 1957.03,110.312 1954.34,107.971L2009.36,43.101ZM1976.24,25.567C1986.41,31.722 1996.34,35.029 2006.01,35.139L1948.84,102.551C1942.5,95.502 1937.37,86.674 1933.55,75.902L1976.24,25.567ZM1955.05,28.22C1959.33,25.991 1963.64,23.242 1968,20L1968.34,20.252C1969.35,20.995 1970.35,21.712 1971.35,22.401L1931.48,69.411C1930.54,66.096 1929.7,62.617 1928.97,58.971L1955.05,28.22Z" style="fill:rgb(1,177,191);"/>
                </g>
                <g transform="matrix(1,0,0,1,0.333333,0)">
                    <path d="M1967.71,116.859C1943.47,104.852 1928.64,78.931 1926,35C1939.49,36.099 1953.52,30.774 1968,20L1968.34,20.252C1982.7,30.857 1996.61,36.09 2010,35C2007.35,79.103 1992.42,105.054 1968,117L1967.71,116.859Z" style="fill:none;stroke:rgb(0,221,238);stroke-width:4.17px;"/>
                </g>
            </g>
        </g>
    </g>
</svg>
