<?xml version="1.0" encoding="UTF-8" standalone="no"?>
<!DOCTYPE svg PUBLIC "-//W3C//DTD SVG 1.1//EN" "http://www.w3.org/Graphics/SVG/1.1/DTD/svg11.dtd">
<svg width="100%" height="100%" viewBox="0 0 128 128" version="1.1" xmlns="http://www.w3.org/2000/svg" xmlns:xlink="http://www.w3.org/1999/xlink" xml:space="preserve" xmlns:serif="http://www.serif.com/" style="fill-rule:evenodd;clip-rule:evenodd;stroke-linejoin:round;stroke-miterlimit:2;">
    <g transform="matrix(1,0,0,1,-1232,0)">
        <g transform="matrix(0.125,0,0,0.549356,1077.96,0)">
            <g id="tile-ocean">
                <g transform="matrix(8.82759,0,0,2.0991,-9687.39,-16.7928)">
                    <rect x="1237" y="8" width="116" height="111" style="fill:rgb(101,119,255);"/>
                </g>
                <g id="Layer1" transform="matrix(8,0,0,1.82031,-8623.67,-4.56561)">
                    <g transform="matrix(1,0,0,1,8,-8)">
                        <path d="M1247.46,36.789C1247.46,36.789 1252.54,30.553 1261.06,30.448C1262.86,30.425 1263.86,31.251 1264.7,32.233C1265.8,33.498 1266.74,34.944 1267.86,36.24C1270.5,39.268 1273.86,41.738 1280.21,41.443C1287.85,41.088 1298.59,33.614 1298.59,33.614C1300.59,32.182 1301.05,29.403 1299.61,27.407C1298.18,25.411 1295.4,24.954 1293.41,26.386C1293.41,26.386 1285.51,32.291 1279.79,32.557C1275.05,32.778 1273.92,29.497 1272.08,27.198C1269.55,24.018 1266.56,21.483 1260.94,21.552C1248.12,21.712 1240.54,31.211 1240.54,31.211C1239,33.125 1239.3,35.925 1241.21,37.465C1243.12,39.005 1245.92,38.702 1247.46,36.789Z" style="fill:rgb(140,148,255);"/>
                    </g>
                    <g transform="matrix(1,0,0,1,52,20.5329)">
                        <path d="M1247.46,36.789C1247.46,36.789 1252.54,30.553 1261.06,30.448C1262.86,30.425 1263.86,31.251 1264.7,32.233C1265.8,33.498 1266.74,34.944 1267.86,36.24C1270.5,39.268 1273.86,41.738 1280.21,41.443C1287.85,41.088 1298.59,33.614 1298.59,33.614C1300.59,32.182 1301.05,29.403 1299.61,27.407C1298.18,25.411 1295.4,24.954 1293.41,26.386C1293.41,26.386 1285.51,32.291 1279.79,32.557C1275.05,32.778 1273.92,29.497 1272.08,27.198C1269.55,24.018 1266.56,21.483 1260.94,21.552C1248.12,21.712 1240.54,31.211 1240.54,31.211C1239,33.125 1239.3,35.925 1241.21,37.465C1243.12,39.005 1245.92,38.702 1247.46,36.789Z" style="fill:rgb(140,148,255);"/>
                    </g>
                    <g transform="matrix(1,0,0,1,0,49)">
                        <path d="M1247.46,36.789C1247.46,36.789 1252.54,30.553 1261.06,30.448C1262.86,30.425 1263.86,31.251 1264.7,32.233C1265.8,33.498 1266.74,34.944 1267.86,36.24C1270.5,39.268 1273.86,41.738 1280.21,41.443C1287.85,41.088 1298.59,33.614 1298.59,33.614C1300.59,32.182 1301.05,29.403 1299.61,27.407C1298.18,25.411 1295.4,24.954 1293.41,26.386C1293.41,26.386 1285.51,32.291 1279.79,32.557C1275.05,32.778 1273.92,29.497 1272.08,27.198C1269.55,24.018 1266.56,21.483 1260.94,21.552C1248.12,21.712 1240.54,31.211 1240.54,31.211C1239,33.125 1239.3,35.925 1241.21,37.465C1243.12,39.005 1245.92,38.702 1247.46,36.789Z" style="fill:rgb(140,148,255);"/>
                    </g>
                    <g transform="matrix(1,0,0,1,45,78)">
                        <path d="M1247.46,36.789C1247.46,36.789 1252.54,30.553 1261.06,30.448C1262.86,30.425 1263.86,31.251 1264.7,32.233C1265.8,33.498 1266.74,34.944 1267.86,36.24C1270.5,39.268 1273.86,41.738 1280.21,41.443C1287.85,41.088 1298.59,33.614 1298.59,33.614C1300.59,32.182 1301.05,29.403 1299.61,27.407C1298.18,25.411 1295.4,24.954 1293.41,26.386C1293.41,26.386 1285.51,32.291 1279.79,32.557C1275.05,32.778 1273.92,29.497 1272.08,27.198C1269.55,24.018 1266.56,21.483 1260.94,21.552C1248.12,21.712 1240.54,31.211 1240.54,31.211C1239,33.125 1239.3,35.925 1241.21,37.465C1243.12,39.005 1245.92,38.702 1247.46,36.789Z" style="fill:rgb(140,148,255);"/>
                    </g>
                </g>
            </g>
        </g>
    </g>
</svg>
