<?xml version="1.0" encoding="UTF-8" standalone="no"?><!DOCTYPE svg PUBLIC "-//W3C//DTD SVG 1.1//EN" "http://www.w3.org/Graphics/SVG/1.1/DTD/svg11.dtd"><svg width="100%" height="100%" viewBox="0 0 256 256" version="1.1" xmlns="http://www.w3.org/2000/svg" xmlns:xlink="http://www.w3.org/1999/xlink" xml:space="preserve" xmlns:serif="http://www.serif.com/" style="fill-rule:evenodd;clip-rule:evenodd;stroke-linejoin:round;stroke-miterlimit:2;"><path id="ui-icon-bag" d="M80.767,95.427c0.045,0.188 0.091,0.376 0.14,0.564l0.081,0.309l0.008,0.031l1.383,3.646c-7.438,9.872 -11.755,21.975 -11.918,34.65c-3.808,4.242 -6.172,9.675 -6.501,15.461c0.353,-5.778 2.699,-11.214 6.501,-15.461c-0.103,2.749 0.008,5.526 0.332,8.313l1.609,8.373l1.017,3.151l0.032,-0.002l0.316,1.944l11.126,41.524l0.698,1.842l-0.683,0.339l0.683,-0.339c0.742,1.922 1.816,3.64 3.169,5.075l-0.024,-0.025c4.038,4.546 10.441,6.658 16.714,4.977l83.12,-22.272c6.162,-1.651 10.603,-6.533 11.912,-12.354c0.536,-1.992 0.664,-4.104 0.279,-6.222l0.681,-0.042l14.42,-3.864c2.306,-0.618 3.676,-2.991 3.059,-5.297l-9.992,-37.289c-0.618,-2.305 -2.991,-3.676 -5.297,-3.058l-5.927,1.588l-0.659,-3.074l-0.966,-2.991l5.927,-1.589c5.653,-1.514 11.473,1.846 12.987,7.499c0,-0 9.992,37.289 9.992,37.289c1.515,5.653 -1.845,11.473 -7.498,12.987l-7.229,1.937c-0.61,10.889 -8.137,20.6 -19.251,23.578c0,0 -83.12,22.272 -83.12,22.272c-11.156,2.99 -22.574,-1.703 -28.527,-10.899l-7.946,2.129c-5.59,1.498 -11.344,-1.824 -12.842,-7.414c0,0 -9.991,-37.289 -9.991,-37.289c-1.498,-5.59 1.824,-11.344 7.414,-12.842l6.674,-1.788l0.634,2.957l-0.59,-2.969c-5.252,-23.011 1.833,-46.171 17.088,-62.324c-0.87,-17.142 10.306,-33.163 27.555,-37.784c17.248,-4.622 34.937,3.664 42.755,18.945c21.252,6.35 38.944,22.821 45.922,45.317l1.012,2.979l0.738,3.439l-0.133,-0.35l-0.027,0.007l0.16,0.343c2.413,11.098 1.99,22.215 -0.848,32.545c2.874,-10.334 3.322,-21.457 0.848,-32.545l0.627,1.654c-0,-0 11.126,41.524 11.126,41.524l0.344,2.116l-8.439,2.261l-0.681,0.042l-0.322,-1.981l-11.127,-41.524l-0.711,-1.877l0.033,-0.017l-0.686,-3.199l-0.949,-2.862l0.091,-0.045c-1.446,-4.48 -3.391,-8.676 -5.805,-12.514c-6.478,-10.896 -16.268,-19.219 -27.645,-24.049l-4.008,-1.603l-1.604,-0.469c-10.454,-3.347 -21.953,-3.8 -33.333,-0.751c-11.38,3.05 -21.113,9.192 -28.492,17.317l-1.155,1.208l-2.669,3.392l-1.383,-3.646l-0.3,-1.227l-0.121,-0.557l-0.479,-2.711l-0.039,-0.238l0.013,0.093l0.026,0.145l0.131,0.815l0.333,1.828l0.015,0.068l0.04,0.223l0.081,0.334l0.071,0.323l0.006,0.027l-0.022,-0.093l0.016,0.066Zm67.274,107.292l0.011,-0.004c-0.004,0.001 -0.008,0.003 -0.011,0.004Zm-0.1,0.026l0.035,-0.009l-0.035,0.009Zm-0.076,0.02l0.006,-0.001c-0.002,0 -0.004,0.001 -0.006,0.001Zm-0.093,0.025l0.017,-0.005c-0.006,0.002 -0.011,0.003 -0.017,0.005Zm-0.041,0.011l0.023,-0.007c-0.008,0.002 -0.015,0.004 -0.023,0.007Zm-0.018,0.004l0.006,-0.001c-0.002,0 -0.004,0.001 -0.006,0.001Zm-0.187,0.049l0.006,-0.002c-0.002,0.001 -0.004,0.001 -0.006,0.002Zm-0.859,0.217l0.012,-0.003l-0.012,0.003Zm-0.046,0.011l-0.006,0.001l0.006,-0.001Zm-0.176,0.043l0.012,-0.003l-0.012,0.003Zm-0.047,0.011l0.041,-0.01c-0.013,0.003 -0.027,0.007 -0.041,0.01Zm-0.035,0.009l0.012,-0.003c-0.004,0.001 -0.008,0.002 -0.012,0.003Zm3.46,-0.928l-0.006,0.002c0.002,-0.001 0.004,-0.001 0.006,-0.002Zm-3.542,0.947l0.006,-0.001c-0.002,0 -0.004,0.001 -0.006,0.001Zm-0.023,0.006l0.012,-0.003c-0.004,0.001 -0.008,0.002 -0.012,0.003Zm3.703,-0.994l0.006,-0.001l-0.006,0.001Zm-3.884,1.037l0.006,-0.001l-0.006,0.001Zm4.241,-1.144l-0.109,0.032l0.109,-0.032Zm-4.417,1.185l0.018,-0.004c-0.006,0.001 -0.012,0.003 -0.018,0.004Zm4.474,-1.202l0.004,-0.002l-0.004,0.002Zm0.138,-0.043l-0.006,0.002c0.002,-0 0.004,-0.001 0.006,-0.002Zm-4.986,1.332l0.024,-0.006c-0.008,0.002 -0.016,0.004 -0.024,0.006Zm5.524,-1.499l-0.438,0.136l0.438,-0.136Zm-5.664,1.53l0.041,-0.009l-0.041,0.009Zm-0.053,0.012l0.012,-0.002l-0.012,0.002Zm5.58,-1.499l-0.006,0.002c0.002,-0.001 0.004,-0.001 0.006,-0.002Zm-5.685,1.523l0.006,-0.002c-0.002,0.001 -0.004,0.001 -0.006,0.002Zm5.708,-1.53l-0.011,0.003l0.011,-0.003Zm-5.743,1.538l0.012,-0.003l-0.012,0.003Zm-0.082,0.018l0.012,-0.003l-0.012,0.003Zm6.007,-1.614l0.006,-0.001l-0.006,0.001Zm-6.252,1.668l0.07,-0.016c-0.024,0.006 -0.047,0.011 -0.07,0.016Zm6.48,-1.74l-0.005,0.001c0.002,-0 0.004,-0.001 0.005,-0.001Zm-6.65,1.776l0.035,-0.007c-0.012,0.002 -0.023,0.005 -0.035,0.007Zm-0.023,0.005l0.011,-0.002l-0.011,0.002Zm-0.127,0.027l0.009,-0.001l-0.009,0.001Zm-0.254,0.054l0.012,-0.002l-0.012,0.002Zm-0.076,0.016l-0.004,0.001l0.004,-0.001Zm-0.04,0.008l0.011,-0.002c-0.004,0.001 -0.008,0.001 -0.011,0.002Zm-0.024,0.005l0.006,-0.001c-0.002,0 -0.004,0.001 -0.006,0.001Zm8.091,-2.186l-0.004,0.002l0.004,-0.002Zm-8.576,2.285l-0.006,0.001l0.006,-0.001Zm-0.076,0.015l-0.005,0.001l0.005,-0.001Zm-0.041,0.008l0.006,-0.001c-0.002,0 -0.004,0 -0.006,0.001Zm-0.193,0.038l0.064,-0.013c-0.021,0.004 -0.043,0.008 -0.064,0.013Zm-0.064,0.012l0.046,-0.009c-0.015,0.003 -0.031,0.006 -0.046,0.009Zm9.537,-2.558l-0.005,0.002c0.001,-0 0.003,-0.001 0.005,-0.002Zm-9.666,2.583l0.041,-0.008c-0.014,0.003 -0.027,0.005 -0.041,0.008Zm-0.047,0.009l0.035,-0.007c-0.012,0.002 -0.023,0.005 -0.035,0.007Zm-0.281,0.053l0.258,-0.049l-0.258,0.049Zm-0.28,0.052l-0.006,0.001l0.006,-0.001Zm-0.135,0.024l0.123,-0.022c-0.041,0.007 -0.082,0.014 -0.123,0.022Zm-0.163,0.029l0.058,-0.01c-0.019,0.003 -0.039,0.007 -0.058,0.01Zm-0.421,0.074l0.321,-0.056c-0.107,0.019 -0.214,0.037 -0.321,0.056Zm-0.059,0.01l0.047,-0.008c-0.016,0.002 -0.031,0.005 -0.047,0.008Zm-0.356,0.059l0.286,-0.048c-0.095,0.017 -0.191,0.033 -0.286,0.048Zm-0.848,0.135l0.462,-0.072l-0.462,0.072Zm-3.953,0.481c0.219,-0.019 0.437,-0.04 0.655,-0.063c0.719,-0.073 1.437,-0.158 2.153,-0.254l1.133,-0.163l-1.133,0.163c-0.716,0.096 -1.434,0.181 -2.153,0.254c-0.218,0.023 -0.436,0.044 -0.655,0.063Zm-9.104,0.21c-0.522,-0.024 -1.044,-0.054 -1.566,-0.091l-1.21,-0.097l1.21,0.097c0.522,0.037 1.044,0.067 1.566,0.091Zm-3.039,-0.212l0.24,0.022c-0.08,-0.007 -0.16,-0.014 -0.24,-0.022Zm44.933,-11.97l-0.004,0.003l0.004,-0.003Zm-44.978,11.966l0.028,0.003c-0.009,-0.001 -0.019,-0.002 -0.028,-0.003Zm-0.017,-0.002l0.005,0.001c-0.001,-0 -0.003,-0.001 -0.005,-0.001Zm-0.046,-0.004l0.029,0.003c-0.01,-0.001 -0.019,-0.002 -0.029,-0.003Zm-0.023,-0.002l-0.004,-0.001l0.004,0.001Zm-0.027,-0.003l0.01,0.001l-0.01,-0.001Zm-60.088,-48.115l-6.674,1.788c-2.368,0.635 -3.776,3.073 -3.142,5.442c0,0 9.992,37.289 9.992,37.289c0.635,2.369 3.073,3.777 5.442,3.143l6.746,-1.808l-0.802,-2.116c-0,0 -11.127,-41.524 -11.127,-41.524l-0.283,-1.746l-0.042,-0.498l-0.038,0.01l0.08,0.488l-0.152,-0.468Zm117.312,-11.246c-1.469,-5.481 -7.111,-8.738 -12.592,-7.27c0,0 -71.162,19.068 -71.162,19.068c-5.481,1.469 -8.739,7.111 -7.27,12.592c0,-0 4.374,16.323 4.374,16.323c1.469,5.481 7.111,8.739 12.592,7.27c-0,0 71.162,-19.068 71.162,-19.068c5.481,-1.468 8.738,-7.11 7.27,-12.591c-0,-0 -4.374,-16.324 -4.374,-16.324Zm-3.538,0.948l4.373,16.324c0.946,3.528 -1.151,7.16 -4.679,8.105c-0,0 -71.162,19.068 -71.162,19.068c-3.529,0.945 -7.16,-1.152 -8.106,-4.68c0,0 -4.374,-16.323 -4.374,-16.323c-0.945,-3.528 1.152,-7.16 4.68,-8.106c0,0 71.162,-19.067 71.162,-19.067c3.528,-0.946 7.16,1.151 8.106,4.679Zm9.941,-25.979c-0.261,-0.974 -0.545,-1.935 -0.851,-2.884l0.851,2.884Zm-62.967,-4.02c4.978,-1.334 10.103,1.625 11.437,6.603c1.334,4.979 -1.625,10.104 -6.603,11.437c-4.978,1.334 -10.103,-1.624 -11.437,-6.603c-1.334,-4.978 1.625,-10.103 6.603,-11.437Zm-33.296,-10.008l-0.033,-0.052c6.154,-8.353 15.121,-14.647 25.903,-17.537c10.783,-2.889 21.696,-1.921 31.202,2.236l4.855,2.217l1.055,0.587c0.685,0.394 1.361,0.804 2.026,1.231c0.706,0.453 1.399,0.925 2.08,1.416c0.69,0.498 1.366,1.014 2.028,1.55c0.635,0.514 1.257,1.045 1.863,1.593c0.612,0.553 1.208,1.123 1.788,1.709c0.611,0.617 1.203,1.251 1.775,1.903l0.979,1.156l1.122,1.145l4.892,7.596c-1.474,-0.083 -2.973,0.102 -4.465,0.502l-1.198,0.321l-2.876,-4.596l-3.288,-3.504c-2.592,-2.958 -5.687,-5.385 -9.05,-7.36l-0.41,-0.291l-4.395,-2.006l1.214,-5.057l0.003,-0.064l-0.003,0.064l-1.214,5.057c-8.66,-4.009 -18.706,-5.008 -28.628,-2.35c-9.922,2.659 -18.123,8.548 -23.618,16.349l-2.804,3.935l-0.208,0.457c-1.925,3.392 -3.392,7.042 -4.158,10.899l-1.096,4.678l-0.192,5.419l-1.199,0.321c-1.491,0.4 -2.882,0.989 -4.117,1.798l0.438,-9.025l0.4,-1.552c0.958,-5.874 3.119,-11.442 6.204,-16.457l3.092,-4.34l0.033,0.052Zm-10.778,-10.334c0.026,0.103 0.053,0.206 0.081,0.309l0.002,0.008l-0.085,-0.323l0.002,0.006Zm67.01,-17.758l0.008,0.029l-0.008,-0.029Zm-61.913,16.565l0.003,0.012c-0.001,-0.004 -0.002,-0.008 -0.003,-0.012Zm66.949,-17.988l-0.004,-0.014l0.004,0.014Zm-67.09,17.429l0.083,0.334l-0.083,-0.334Zm61.965,-16.327l-0.002,-0.005l0.002,0.005Zm-0.008,-0.028l0.003,0.01l-0.003,-0.01Zm-0.028,-0.097l0.003,0.011l-0.003,-0.011Zm-61.998,16.164l0.008,0.035c-0.003,-0.012 -0.005,-0.023 -0.008,-0.035Zm61.87,-16.596l0.002,0.006c-0.001,-0.002 -0.001,-0.004 -0.002,-0.006Zm-67.042,17.452l0.067,0.293l-0.067,-0.293Zm5.104,-1.155l0.015,0.069c-0.005,-0.023 -0.01,-0.046 -0.015,-0.069Zm-0.051,-0.231l0.014,0.064c-0.005,-0.021 -0.009,-0.042 -0.014,-0.064Zm-5.605,-1.73l-0.003,-0.017l0.015,0.115l0.01,0.061l0.032,0.237l0.066,0.364l0.218,1.329c0,-0 0.21,1.012 0.21,1.012l-0.008,-0.039l-0.05,-0.274l-0.152,-0.699c0,-0 -0.181,-1.129 -0.181,-1.129l-0.037,-0.2l-0.098,-0.601l-0.022,-0.159Zm5.576,1.592l0.008,0.04c-0.003,-0.013 -0.006,-0.026 -0.008,-0.04Zm-0.079,-0.386l-0.001,-0.005l0.001,0.005Zm66.74,-18.194l-0.005,-0.014l0.005,0.014Zm-66.808,17.843l0.007,0.034l-0.007,-0.034Zm-0.074,-0.415l0.04,0.23c-0.013,-0.076 -0.027,-0.153 -0.04,-0.23Zm-0.058,-0.346l0.033,0.202c-0.011,-0.067 -0.022,-0.134 -0.033,-0.202Zm61.415,-16.947l0.009,0.022l-0.009,-0.022Zm-0.144,-0.355l0.004,0.009l-0.004,-0.009Zm-66.606,16.922l0.025,0.193l-0.031,-0.247c0,-0 0.006,0.054 0.006,0.054Zm-0.034,-0.298l0.028,0.244c0,-0 -0.028,-0.244 -0.028,-0.244Zm-0.023,-0.194l0.023,0.194l-0.028,-0.249c-0,-0 0.005,0.055 0.005,0.055Zm-0.049,-0.492l0.02,0.194l-0.025,-0.25c0,0 0.005,0.056 0.005,0.056Zm-0.113,-1.681l0.029,0.439l0.079,1.186l-0.119,-1.907l0.011,0.282Zm0.001,0.018l-0.003,-0.055l0.003,0.055l0.103,1.569l-0.075,-1.148l-0.028,-0.421Zm5.198,-0.406c-0.009,-0.193 -0.016,-0.385 -0.021,-0.577c-0.022,-0.816 -0.01,-1.633 0.037,-2.448l0.154,-1.753l-0.154,1.753c-0.047,0.815 -0.059,1.632 -0.037,2.448c0.005,0.192 0.012,0.384 0.021,0.577Zm0.182,-4.878l-0.011,0.089c0.004,-0.03 0.008,-0.059 0.011,-0.089Zm57.737,-15.5l-0.097,-0.128c-7.516,-10.433 -20.968,-15.643 -34.123,-12.118c-13.155,3.525 -22.2,14.763 -23.493,27.556c7.558,-6.588 16.712,-11.555 27.039,-14.322c10.327,-2.767 20.738,-3.042 30.577,-1.116l0.097,0.128Zm-57.728,15.427l-0.005,0.039l0.005,-0.039Z" style="fill:#bb0e0e;"/></svg>