<?xml version="1.0" encoding="UTF-8" standalone="no"?><!DOCTYPE svg PUBLIC "-//W3C//DTD SVG 1.1//EN" "http://www.w3.org/Graphics/SVG/1.1/DTD/svg11.dtd"><svg width="100%" height="100%" viewBox="0 0 512 512" version="1.1" xmlns="http://www.w3.org/2000/svg" xmlns:xlink="http://www.w3.org/1999/xlink" xml:space="preserve" xmlns:serif="http://www.serif.com/" style="fill-rule:evenodd;clip-rule:evenodd;stroke-linejoin:round;stroke-miterlimit:2;"><path id="ui-bg-red-details" d="M189.742,8.723c136.476,-36.569 276.966,44.543 313.535,181.019c36.569,136.476 -44.543,276.966 -181.019,313.535c-136.476,36.569 -276.966,-44.543 -313.535,-181.019c-36.569,-136.476 44.543,-276.966 181.019,-313.535Zm177.377,240.549c3.168,51.723 -30.338,100.313 -82.311,114.24c-51.974,13.926 -105.287,-11.402 -128.404,-57.779l-97.794,26.204c38.261,99.766 146.644,156.599 252.125,128.335c105.48,-28.263 170.926,-131.674 154.178,-237.204l-97.794,26.204Zm-131.284,-68.53c41.536,-11.13 84.294,13.556 95.423,55.093c11.13,41.536 -13.556,84.294 -55.093,95.423c-41.536,11.13 -84.294,-13.556 -95.423,-55.093c-11.13,-41.536 13.556,-84.294 55.093,-95.423Zm217.555,-0.679c-38.261,-99.766 -146.644,-156.599 -252.125,-128.335c-105.48,28.263 -170.926,131.674 -154.178,237.204l97.794,-26.204c-3.168,-51.723 30.338,-100.313 82.311,-114.24c51.974,-13.926 105.287,11.402 128.404,57.779l97.794,-26.204Z" style="fill:#e43d3d;"/></svg>