<?xml version="1.0" encoding="UTF-8" standalone="no"?>
<!DOCTYPE svg PUBLIC "-//W3C//DTD SVG 1.1//EN" "http://www.w3.org/Graphics/SVG/1.1/DTD/svg11.dtd">
<svg
  width="100%"
  height="100%"
  viewBox="0 0 512 512"
  version="1.1"
  xmlns="http://www.w3.org/2000/svg"
  xmlns:xlink="http://www.w3.org/1999/xlink"
  xml:space="preserve"
  xmlns:serif="http://www.serif.com/"
  style="fill-rule:evenodd;clip-rule:evenodd;stroke-linejoin:round;stroke-miterlimit:2;"><rect id="icon" x="0" y="0" width="512" height="512" style="fill:none;"/>
  <g id="Layer1"><path d="M52.577,28.895c-3.792,2.629 -7.344,5.581 -10.63,8.867c-0.375,0.375 -0.727,0.768 -1.093,1.151c3.357,-3.159 6.957,-6.005 10.782,-8.547c0.301,-0.5 0.626,-0.982 0.941,-1.471" style="fill:#a67c52;fill-rule:nonzero;"/><path d="M472.817,471.427c0.477,-0.454 0.952,-0.91 1.418,-1.376c3.273,-3.273 6.213,-6.808 8.834,-10.582c-0.473,0.305 -0.954,0.6 -1.438,0.892c-2.613,3.933 -5.549,7.628 -8.814,11.066" style="fill:#a67c52;fill-rule:nonzero;"/><path d="M69.577,436.876c0.309,0.322 0.604,0.653 0.92,0.969c2.768,2.767 5.758,5.252 8.951,7.467c-0.266,-0.413 -0.538,-0.818 -0.792,-1.24c-3.221,-2.139 -6.252,-4.537 -9.079,-7.196" style="fill:#a67c52;fill-rule:nonzero;"/><path d="M99.681,316.402c-8.699,-10.974 -16.795,-22.035 -24.275,-33.107c-31.514,63.737 -35.914,122.23 -5.829,153.582c2.827,2.659 5.857,5.056 9.079,7.196c-16.48,-27.352 -7.548,-74.553 21.025,-127.671" style="fill:#fbb03b;fill-rule:nonzero;"/><path
    d="M204.672,307.325c-15.057,-15.057 -28.947,-30.452 -41.568,-45.907c13.001,-16.99 27.874,-34.016 44.414,-50.556c17.472,-17.473 35.485,-33.071 53.426,-46.581c16.103,13.035 32.153,27.446 47.835,43.129c11.494,11.494 22.293,23.186 32.382,34.95c-13.371,17.679 -28.765,35.419 -45.98,52.634c-17.466,17.466 -35.471,33.057 -53.406,46.563c-12.491,-10.611 -24.908,-22.037 -37.103,-34.232m293.935,75.489c-2.45,-24.126 -9.91,-50.742 -21.936,-78.509c3.918,9.603 7.09,18.893 9.505,27.791c-2.871,-8.904 -6.25,-17.974 -10.131,-27.165c2.395,6.034 4.502,11.95 6.314,17.727c3.613,11.516 6.049,22.479 7.239,32.714c2.366,20.37 -0.21,37.853 -8.277,51.078c-1.828,2.997 -3.95,5.766 -6.349,8.31c-0.328,0.347 -0.645,0.704 -0.984,1.043c-9.953,9.953 -23.74,15.223 -40.303,16.256c-36.297,2.264 -85.967,-15.888 -138.064,-50.04c14.757,-11.63 29.526,-24.719 43.931,-39.124c15.575,-15.575 29.614,-31.578 41.931,-47.529c27.107,40.698 44.55,80.049 50.204,112.858c0.737,4.28 1.282,8.453 1.614,12.499c9.18,-1.402 17.286,-4.374 24.094,-9c2.458,-1.669 4.751,-3.549 6.858,-5.655c0.307,-0.307 0.592,-0.631 0.89,-0.945c0.409,-0.38 0.816,-0.761 1.211,-1.157c2.382,-2.382 4.456,-5.019 6.252,-7.873c21.49,-34.151 1.507,-100.84 -47.87,-170.893c16.844,-37.226 20.714,-69.506 8.393,-89.084c-1.512,-2.404 -3.258,-4.624 -5.264,-6.63c-0.333,-0.333 -0.675,-0.655 -1.02,-0.974c-0.25,-0.265 -0.491,-0.537 -0.749,-0.795c-1.775,-1.775 -3.705,-3.357 -5.775,-4.763c-5.732,-3.895 -12.558,-6.398 -20.288,-7.578c-0.279,3.407 -0.738,6.921 -1.36,10.525c-2.501,14.519 -7.754,30.564 -15.476,47.491c-6.929,-7.681 -14.172,-15.317 -21.723,-22.869c-10.054,-10.053 -20.258,-19.567 -30.52,-28.51c26.094,-11.672 50.016,-17.391 69.403,-16.182c13.946,0.87 25.555,5.307 33.936,13.688c0.286,0.285 0.552,0.586 0.829,0.878c2.02,2.142 3.807,4.473 5.346,6.997c6.793,11.136 8.962,25.857 6.969,43.01c-1.001,8.618 -3.053,17.85 -6.095,27.547l-4.79,15.453c10.127,-23.381 16.408,-45.792 18.472,-66.107c2.6,-25.604 -1.505,-47.874 -13.083,-64.546c-0.399,-0.257 -0.804,-0.505 -1.211,-0.751c-26.861,-16.184 -72.859,-7.867 -124.809,19.497c-1.942,1.011 -3.904,2.07 -5.877,3.15c-4.141,2.269 -8.343,4.678 -12.605,7.244c-0.057,0.034 -0.113,0.067 -0.17,0.101c-0.454,0.271 -0.91,0.554 -1.364,0.827c-17.441,10.517 -35.341,23.012 -53.236,37.272c-17.009,13.554 -34.014,28.701 -50.617,45.304c-15.723,15.722 -30.145,31.806 -43.144,47.912c-9.014,-12.004 -17.228,-23.978 -24.602,-35.795c11.421,-14.281 24.024,-28.401 37.743,-42.12c14.529,-14.529 29.508,-27.8 44.651,-39.744c20.368,-16.066 41.035,-29.721 61.317,-40.716c0.472,-0.256 0.946,-0.521 1.418,-0.774c0.059,-0.032 0.117,-0.062 0.176,-0.095c2.384,-1.277 4.76,-2.504 7.131,-3.707c4.073,-2.067 8.128,-4.037 12.156,-5.882c60.075,-27.523 114.479,-30.225 144.409,-1.792c-0.405,-0.427 -0.814,-0.85 -1.232,-1.268c-30.459,-30.459 -86.225,-28.761 -147.549,-1.311c-4.467,1.969 -9.002,4.126 -13.588,6.445c-64.099,-41.441 -123.44,-57.01 -155.009,-37.172c-2.863,1.8 -5.509,3.878 -7.898,6.267c-0.379,0.379 -0.74,0.771 -1.104,1.161c-0.332,0.314 -0.673,0.616 -0.997,0.94c-2.105,2.105 -3.983,4.395 -5.651,6.85c-5.27,7.758 -8.387,17.206 -9.491,28.001c4.488,0.194 9.14,0.657 13.94,1.379c28.034,4.22 61.104,17.333 95.834,37.957c-14.724,11.627 -29.269,24.51 -43.367,38.608c-13.3,13.3 -25.528,26.998 -36.635,40.869c-26.816,-44.532 -41.362,-86.464 -40.794,-118.732c0.326,-18.512 5.614,-33.852 16.428,-44.667c0.353,-0.353 0.725,-0.684 1.088,-1.025c2.528,-2.38 5.279,-4.486 8.254,-6.302c13.225,-8.072 30.713,-10.65 51.088,-8.282c10.237,1.189 21.202,3.626 32.72,7.239c5.776,1.812 11.69,3.919 17.721,6.313c-9.191,-3.881 -18.261,-7.26 -27.166,-10.131c8.899,2.415 18.189,5.587 27.792,9.505c-27.767,-12.026 -54.383,-19.485 -78.509,-21.936c-30.382,-3.085 -56.811,1.78 -76.605,15.505c-0.315,0.489 -0.639,0.971 -0.941,1.471c-23.943,39.741 -2.717,114.761 51.133,194.769c1.3,1.932 2.622,3.867 3.96,5.804c7.839,11.349 16.327,22.783 25.425,34.218c4.866,6.115 9.899,12.231 15.109,18.333c12.12,14.194 25.155,28.317 39.041,42.203c11.029,11.029 22.209,21.501 33.454,31.423c17.485,15.429 35.127,29.488 52.624,42.034c12.533,8.987 24.991,17.214 37.257,24.609c0.54,0.325 1.081,0.66 1.62,0.983c0.068,0.04 0.135,0.079 0.202,0.12c7.472,4.499 14.802,8.622 21.949,12.343c61.696,32.498 116.323,42.375 148.222,23.155c0.484,-0.292 0.965,-0.587 1.438,-0.892c13.75,-19.799 18.625,-46.247 15.537,-76.654"
    style="fill:#1a1a1a;fill-rule:nonzero;"/><path
    d="M301.317,469.298c-7.568,-3.467 -15.211,-7.267 -22.904,-11.388c-0.07,-0.038 -0.14,-0.075 -0.21,-0.113c-0.56,-0.3 -1.122,-0.615 -1.683,-0.918c-16.453,-8.919 -33.119,-19.326 -49.739,-31.094c-17.915,-12.684 -35.777,-26.956 -53.26,-42.744c-7.699,-6.952 -15.325,-14.193 -22.849,-21.717c-10.472,-10.472 -20.389,-21.144 -29.748,-31.934c-5.911,-6.815 -11.598,-13.677 -17.049,-20.57c-8.762,-11.081 -16.928,-22.236 -24.457,-33.391c-1.295,-1.919 -2.571,-3.839 -3.83,-5.757c-61.24,-93.403 -77.981,-185.691 -34.734,-230.759c-0.604,0.567 -1.201,1.143 -1.789,1.731c-46.218,46.217 -30.078,141.499 32.527,236.924c-31.989,65.331 -35.678,125.694 -3.522,157.851c0.495,0.495 0.998,0.98 1.506,1.457c-30.084,-31.352 -25.684,-89.845 5.829,-153.582c7.481,11.073 15.577,22.134 24.276,33.108c-28.573,53.118 -37.506,100.318 -21.026,127.67c0.254,0.421 0.527,0.828 0.792,1.24c16.667,11.556 38.922,15.653 64.505,13.055c20.315,-2.063 42.727,-8.344 66.108,-18.471l-15.449,4.789c-9.699,3.042 -18.932,5.094 -27.552,6.095c-17.157,1.994 -31.882,-0.177 -43.018,-6.974c-2.505,-1.529 -4.822,-3.302 -6.95,-5.306c-0.306,-0.287 -0.619,-0.566 -0.916,-0.863c-9.107,-9.107 -13.558,-22.024 -13.833,-37.611c-0.315,-17.878 4.895,-39.285 14.917,-62.515c8.731,9.995 17.948,19.876 27.65,29.578c6.74,6.739 13.571,13.226 20.46,19.5c-14.956,6.214 -29.117,10.403 -42.008,12.343c-4.042,0.609 -7.96,0.998 -11.738,1.162c0.929,9.089 3.554,17.045 7.992,23.578c1.404,2.067 2.985,3.995 4.758,5.767c0.272,0.273 0.56,0.528 0.84,0.792c0.306,0.329 0.61,0.659 0.929,0.978c2.012,2.011 4.239,3.762 6.651,5.277c19,11.939 49.948,8.645 85.766,-6.944c17.55,12.468 35.185,23.416 52.603,32.694c0.565,0.3 1.13,0.611 1.694,0.908c0.07,0.038 0.141,0.074 0.211,0.112c7.815,4.155 15.516,7.908 23.059,11.233c72.828,32.6 139.055,34.616 175.228,-1.557c0.495,-0.496 0.982,-0.999 1.463,-1.506c-35.545,33.767 -100.155,30.558 -171.5,-2.128"
    style="fill:#1a1a1a;fill-rule:nonzero;"/><path
    d="M433.307,72.682c-29.931,-28.433 -84.334,-25.731 -144.41,1.792c-4.027,1.845 -8.083,3.815 -12.155,5.882c-2.372,1.203 -4.747,2.43 -7.131,3.707c-0.059,0.033 -0.117,0.063 -0.177,0.095c-0.471,0.253 -0.945,0.518 -1.417,0.774c-20.282,10.995 -40.949,24.65 -61.317,40.716c-15.143,11.944 -30.122,25.215 -44.651,39.744c-13.72,13.719 -26.322,27.839 -37.743,42.12c7.374,11.817 15.588,23.791 24.602,35.795c12.999,-16.106 27.421,-32.189 43.144,-47.912c16.603,-16.603 33.608,-31.75 50.617,-45.304c17.895,-14.26 35.794,-26.755 53.236,-37.272c0.454,-0.273 0.91,-0.555 1.363,-0.826c0.058,-0.035 0.114,-0.068 0.17,-0.102c4.263,-2.566 8.465,-4.975 12.606,-7.244c1.972,-1.08 3.935,-2.139 5.876,-3.15c51.951,-27.364 97.949,-35.681 124.809,-19.497c-2.2,-3.312 -4.672,-6.422 -7.422,-9.318"
    style="fill:#fbb03b;fill-rule:nonzero;"/><path
    d="M333.41,437.205c-7.146,-3.721 -14.477,-7.844 -21.949,-12.343c-0.067,-0.041 -0.134,-0.08 -0.202,-0.12c-0.538,-0.323 -1.08,-0.658 -1.62,-0.983c-12.266,-7.395 -24.724,-15.622 -37.257,-24.609c-17.496,-12.546 -35.139,-26.605 -52.623,-42.034c-11.245,-9.922 -22.426,-20.394 -33.454,-31.423c-13.887,-13.886 -26.921,-28.009 -39.042,-42.203c-5.21,-6.102 -10.243,-12.218 -15.108,-18.333c-9.099,-11.434 -17.586,-22.869 -25.426,-34.218c-1.338,-1.937 -2.66,-3.872 -3.96,-5.804c-53.85,-80.008 -75.076,-155.028 -51.132,-194.769c-3.826,2.542 -7.425,5.388 -10.783,8.547c-43.246,45.067 -26.506,137.356 34.735,230.758c1.259,1.919 2.534,3.839 3.83,5.758c7.529,11.154 15.695,22.31 24.457,33.391c5.451,6.893 11.138,13.755 17.049,20.57c9.359,10.79 19.276,21.461 29.748,31.934c7.524,7.524 15.15,14.764 22.848,21.716c17.484,15.789 35.346,30.061 53.261,42.745c16.62,11.768 33.286,22.175 49.738,31.093c0.561,0.304 1.123,0.619 1.684,0.919c0.07,0.038 0.14,0.075 0.209,0.113c7.693,4.121 15.337,7.92 22.905,11.388c71.344,32.686 135.954,35.895 171.5,2.128c3.264,-3.438 6.201,-7.133 8.814,-11.066c-31.899,19.22 -86.526,9.343 -148.222,-23.155"
    style="fill:#fbb03b;fill-rule:nonzero;"/><path d="M441.94,82.752c-2.207,-3.178 -4.683,-6.155 -7.438,-8.91c-0.394,-0.393 -0.793,-0.778 -1.195,-1.159c2.749,2.895 5.222,6.006 7.422,9.318c0.407,0.246 0.813,0.494 1.211,0.751" style="fill:#a67c52;fill-rule:nonzero;"/></g>
</svg>
