<?xml version="1.0" encoding="UTF-8" standalone="no"?>
<!DOCTYPE svg PUBLIC "-//W3C//DTD SVG 1.1//EN" "http://www.w3.org/Graphics/SVG/1.1/DTD/svg11.dtd">
<svg width="100%" height="100%" viewBox="0 0 128 128" version="1.1" xmlns="http://www.w3.org/2000/svg" xmlns:xlink="http://www.w3.org/1999/xlink" xml:space="preserve" xmlns:serif="http://www.serif.com/" style="fill-rule:evenodd;clip-rule:evenodd;stroke-linejoin:round;stroke-miterlimit:2;">
    <g transform="matrix(1,0,0,1,-1904,0)">
        <g transform="matrix(1,0,0,1,-0.333333,0)">
            <g id="item-star" transform="matrix(1,0,0,1,2.27374e-13,-0.929819)">
                <g transform="matrix(1.01852,0,0,1.01852,-36.1111,4.92627)">
                    <path d="M1968,10C1971.78,10 1980.12,47.313 1980.12,47.313C1980.12,47.313 2018.19,43.719 2019.36,47.313C2020.53,50.907 1987.62,70.374 1987.62,70.374C1987.62,70.374 2002.8,105.466 1999.74,107.687C1996.68,109.908 1968,84.626 1968,84.626C1968,84.626 1939.32,109.908 1936.26,107.687C1933.2,105.466 1948.38,70.374 1948.38,70.374C1948.38,70.374 1915.48,50.907 1916.64,47.313C1917.81,43.719 1955.88,47.313 1955.88,47.313C1955.88,47.313 1964.22,10 1968,10Z" style="fill:rgb(248,255,180);"/>
                </g>
                <g transform="matrix(1.01852,0,0,1.01852,-36.1111,4.92627)">
                    <path d="M1968,12.974C1968.22,13.437 1968.46,13.962 1968.67,14.493C1972.39,23.99 1978.5,47.731 1978.5,47.731C1978.7,48.51 1979.42,49.038 1980.23,48.988C1980.23,48.988 2004.69,47.458 2014.88,48.068C2015.45,48.102 2016.02,48.164 2016.53,48.232C2016.16,48.586 2015.73,48.973 2015.29,49.336C2007.41,55.814 1986.72,68.958 1986.72,68.958C1986.04,69.389 1985.76,70.242 1986.06,70.99C1986.06,70.99 1995.07,93.787 1997.64,103.66C1997.78,104.212 1997.9,104.776 1997.99,105.281C1997.54,105.037 1997.04,104.751 1996.56,104.443C1987.96,98.951 1969.07,83.333 1969.07,83.333C1968.45,82.82 1967.55,82.82 1966.93,83.333C1966.93,83.333 1948.04,98.951 1939.44,104.443C1938.96,104.751 1938.46,105.037 1938.01,105.281C1938.1,104.776 1938.22,104.212 1938.36,103.66C1940.93,93.787 1949.94,70.99 1949.94,70.99C1950.24,70.242 1949.96,69.389 1949.28,68.958C1949.28,68.958 1928.59,55.814 1920.71,49.336C1920.27,48.973 1919.84,48.586 1919.47,48.232C1919.98,48.164 1920.55,48.102 1921.12,48.068C1931.31,47.458 1955.77,48.988 1955.77,48.988C1956.58,49.038 1957.3,48.51 1957.5,47.731C1957.5,47.731 1963.61,23.99 1967.33,14.493C1967.54,13.962 1967.78,13.437 1968,12.974Z" style="fill:rgb(233,255,0);"/>
                </g>
                <g transform="matrix(1,0,0,1.30769,0.333333,-18.8462)">
                    <path d="M1968,32C1965,37.825 1962,47.108 1959,58C1960.74,45.449 1963.63,36.446 1968,32Z" style="fill:white;"/>
                </g>
                <g transform="matrix(0.992066,0.125716,-0.164398,1.29732,6.30908,-213.722)">
                    <path d="M1968,32C1965,37.825 1962,47.108 1959,58C1960.74,45.449 1963.63,36.446 1968,32Z" style="fill:white;"/>
                </g>
                <g transform="matrix(-0.992066,0.125716,0.164398,1.29732,3930.36,-213.722)">
                    <path d="M1968,32C1965,37.825 1962,47.108 1959,58C1960.74,45.449 1963.63,36.446 1968,32Z" style="fill:white;"/>
                </g>
                <g transform="matrix(0.289589,0.957151,-1.25166,0.378693,1480.55,-1839.91)">
                    <path d="M1968,32C1965,37.825 1962,47.108 1959,58C1960.74,45.449 1963.63,36.446 1968,32Z" style="fill:white;"/>
                </g>
                <g transform="matrix(-0.289589,0.957151,1.25166,0.378693,2454.04,-1839.91)">
                    <path d="M1968,32C1965,37.825 1962,47.108 1959,58C1960.74,45.449 1963.63,36.446 1968,32Z" style="fill:white;"/>
                </g>
            </g>
        </g>
    </g>
</svg>
