<?xml version="1.0" encoding="UTF-8" standalone="no"?>
<!DOCTYPE svg PUBLIC "-//W3C//DTD SVG 1.1//EN" "http://www.w3.org/Graphics/SVG/1.1/DTD/svg11.dtd">
<svg width="100%" height="100%" viewBox="0 0 128 128" version="1.1" xmlns="http://www.w3.org/2000/svg" xmlns:xlink="http://www.w3.org/1999/xlink" xml:space="preserve" xmlns:serif="http://www.serif.com/" style="fill-rule:evenodd;clip-rule:evenodd;stroke-linejoin:round;stroke-miterlimit:2;">
    <g transform="matrix(1,0,0,1,-1232,0)">
        <g transform="matrix(0.125,0,0,0.549356,1077.96,0)">
            <g id="tile-pond">
                <g transform="matrix(8.82759,0,0,2.0991,-9687.39,-16.7928)">
                    <rect x="1237" y="8" width="116" height="111" style="fill:rgb(101,119,255);"/>
                </g>
                <g id="Layer1" transform="matrix(8,0,0,1.82031,-8623.67,-4.56561)">
                    <g transform="matrix(1,0,0,1,8,-8)">
                        <path d="M1247.46,36.789C1247.46,36.789 1252.54,30.553 1261.06,30.448C1262.86,30.425 1263.86,31.251 1264.7,32.233C1265.8,33.498 1266.74,34.944 1267.86,36.24C1270.5,39.268 1273.86,41.738 1280.21,41.443C1287.85,41.088 1298.59,33.614 1298.59,33.614C1300.59,32.182 1301.05,29.403 1299.61,27.407C1298.18,25.411 1295.4,24.954 1293.41,26.386C1293.41,26.386 1285.51,32.291 1279.79,32.557C1275.05,32.778 1273.92,29.497 1272.08,27.198C1269.55,24.018 1266.56,21.483 1260.94,21.552C1248.12,21.712 1240.54,31.211 1240.54,31.211C1239,33.125 1239.3,35.925 1241.21,37.465C1243.12,39.005 1245.92,38.702 1247.46,36.789Z" style="fill:rgb(140,148,255);"/>
                    </g>
                    <g transform="matrix(1,0,0,1,52,20.5329)">
                        <path d="M1247.46,36.789C1247.46,36.789 1252.54,30.553 1261.06,30.448C1262.86,30.425 1263.86,31.251 1264.7,32.233C1265.8,33.498 1266.74,34.944 1267.86,36.24C1270.5,39.268 1273.86,41.738 1280.21,41.443C1287.85,41.088 1298.59,33.614 1298.59,33.614C1300.59,32.182 1301.05,29.403 1299.61,27.407C1298.18,25.411 1295.4,24.954 1293.41,26.386C1293.41,26.386 1285.51,32.291 1279.79,32.557C1275.05,32.778 1273.92,29.497 1272.08,27.198C1269.55,24.018 1266.56,21.483 1260.94,21.552C1248.12,21.712 1240.54,31.211 1240.54,31.211C1239,33.125 1239.3,35.925 1241.21,37.465C1243.12,39.005 1245.92,38.702 1247.46,36.789Z" style="fill:rgb(140,148,255);"/>
                    </g>
                    <g transform="matrix(1,0,0,1,0,49)">
                        <path d="M1247.46,36.789C1247.46,36.789 1252.54,30.553 1261.06,30.448C1262.86,30.425 1263.86,31.251 1264.7,32.233C1265.8,33.498 1266.74,34.944 1267.86,36.24C1270.5,39.268 1273.86,41.738 1280.21,41.443C1287.85,41.088 1298.59,33.614 1298.59,33.614C1300.59,32.182 1301.05,29.403 1299.61,27.407C1298.18,25.411 1295.4,24.954 1293.41,26.386C1293.41,26.386 1285.51,32.291 1279.79,32.557C1275.05,32.778 1273.92,29.497 1272.08,27.198C1269.55,24.018 1266.56,21.483 1260.94,21.552C1248.12,21.712 1240.54,31.211 1240.54,31.211C1239,33.125 1239.3,35.925 1241.21,37.465C1243.12,39.005 1245.92,38.702 1247.46,36.789Z" style="fill:rgb(140,148,255);"/>
                    </g>
                    <g transform="matrix(1,0,0,1,45,78)">
                        <path d="M1247.46,36.789C1247.46,36.789 1252.54,30.553 1261.06,30.448C1262.86,30.425 1263.86,31.251 1264.7,32.233C1265.8,33.498 1266.74,34.944 1267.86,36.24C1270.5,39.268 1273.86,41.738 1280.21,41.443C1287.85,41.088 1298.59,33.614 1298.59,33.614C1300.59,32.182 1301.05,29.403 1299.61,27.407C1298.18,25.411 1295.4,24.954 1293.41,26.386C1293.41,26.386 1285.51,32.291 1279.79,32.557C1275.05,32.778 1273.92,29.497 1272.08,27.198C1269.55,24.018 1266.56,21.483 1260.94,21.552C1248.12,21.712 1240.54,31.211 1240.54,31.211C1239,33.125 1239.3,35.925 1241.21,37.465C1243.12,39.005 1245.92,38.702 1247.46,36.789Z" style="fill:rgb(140,148,255);"/>
                    </g>
                </g>
                <g transform="matrix(8,0,0,1.82031,-8623.67,0)">
                    <path d="M1360,0L1232,0L1232,128L1360,128L1360,0ZM1314.29,9.925L1310.49,9.925C1302.03,9.925 1300.94,8.287 1292.51,10.185C1286.9,11.448 1281.14,15.933 1275.01,14.004C1269.29,12.207 1263.91,9.455 1258.18,7.682C1253.43,6.209 1245.67,4.418 1242.2,9.733C1237.18,17.424 1239.3,27.207 1239.48,35.613C1239.6,41.091 1239.48,46.571 1239.48,52.05C1239.48,58.718 1239.59,65.388 1239.48,72.056C1239.24,88.085 1233.57,118.188 1257.34,121.687C1264.77,122.781 1271.22,117.623 1278.5,117.429C1290.14,117.12 1301.8,117.909 1313.41,118.833C1324.89,119.747 1336.96,125.38 1347.71,118.333C1359.52,110.597 1348.55,87.12 1347.16,79.131C1346.4,74.762 1348.48,70.414 1349.39,66.335C1352.53,52.145 1354.25,46.708 1352.69,32.064C1352.23,27.702 1349.12,21.445 1344.8,19.515C1340.98,17.815 1336.5,18.278 1332.53,17.001C1326.39,15.03 1321.09,9.925 1314.29,9.925Z" style="fill:rgb(50,208,0);"/>
                </g>
            </g>
        </g>
    </g>
</svg>
