<?xml version="1.0" encoding="UTF-8" standalone="no"?>
<!DOCTYPE svg PUBLIC "-//W3C//DTD SVG 1.1//EN" "http://www.w3.org/Graphics/SVG/1.1/DTD/svg11.dtd">
<svg width="100%" height="100%" viewBox="0 0 128 128" version="1.1" xmlns="http://www.w3.org/2000/svg" xmlns:xlink="http://www.w3.org/1999/xlink" xml:space="preserve" xmlns:serif="http://www.serif.com/" style="fill-rule:evenodd;clip-rule:evenodd;stroke-linejoin:round;stroke-miterlimit:2;">
    <g transform="matrix(1,0,0,1,-1232,0)">
        <g transform="matrix(0.125,0,0,0.549356,1077.96,0)">
            <g id="tile-grass">
                <g transform="matrix(8,0,0,1.82031,-8623.67,0)">
                    <rect x="1232" y="0" width="128" height="128" style="fill:rgb(50,208,0);"/>
                </g>
                <g id="Layer2" transform="matrix(8,0,0,1.82031,-8644.42,-7.28125)">
                    <g transform="matrix(1,0,-0.158776,1,15.0991,6)">
                        <path d="M1251.39,64.693C1252.05,40.384 1257.17,27.341 1264.15,18.623C1265.36,17.114 1264.93,14.715 1263.19,13.266C1261.45,11.817 1259.06,11.867 1257.85,13.377C1250.27,22.846 1244.43,36.903 1243.72,63.307C1243.66,65.365 1245.33,67.342 1247.45,67.725C1249.57,68.108 1251.33,66.75 1251.39,64.693Z" style="fill:rgb(9,235,0);"/>
                    </g>
                    <g transform="matrix(1,0,-0.158776,1,81.0517,0)">
                        <path d="M1251.39,64.693C1252.05,40.384 1257.17,27.341 1264.15,18.623C1265.36,17.114 1264.93,14.715 1263.19,13.266C1261.45,11.817 1259.06,11.867 1257.85,13.377C1250.27,22.846 1244.43,36.903 1243.72,63.307C1243.66,65.365 1245.33,67.342 1247.45,67.725C1249.57,68.108 1251.33,66.75 1251.39,64.693Z" style="fill:rgb(9,235,0);"/>
                    </g>
                    <g transform="matrix(1,0,-0.158776,1,44.0871,20)">
                        <path d="M1251.39,64.693C1252.05,40.384 1257.17,27.341 1264.15,18.623C1265.36,17.114 1264.93,14.715 1263.19,13.266C1261.45,11.817 1259.06,11.867 1257.85,13.377C1250.27,22.846 1244.43,36.903 1243.72,63.307C1243.66,65.365 1245.33,67.342 1247.45,67.725C1249.57,68.108 1251.33,66.75 1251.39,64.693Z" style="fill:rgb(9,235,0);"/>
                    </g>
                    <g transform="matrix(1,0,-0.0793882,1,19.4931,42)">
                        <path d="M1251.35,64.402C1252.01,40.184 1257.09,27.189 1264.04,18.503C1265.3,16.933 1264.96,14.539 1263.28,13.156C1261.6,11.773 1259.21,11.926 1257.96,13.497C1250.35,22.999 1244.47,37.104 1243.75,63.598C1243.7,65.679 1245.35,67.546 1247.45,67.768C1249.55,67.989 1251.3,66.482 1251.35,64.402Z" style="fill:rgb(9,235,0);"/>
                    </g>
                    <g transform="matrix(1,0,-0.0793882,1,84.9694,36)">
                        <path d="M1251.35,64.402C1252.01,40.184 1257.09,27.189 1264.04,18.503C1265.3,16.933 1264.96,14.539 1263.28,13.156C1261.6,11.773 1259.21,11.926 1257.96,13.497C1250.35,22.999 1244.47,37.104 1243.75,63.598C1243.7,65.679 1245.35,67.546 1247.45,67.768C1249.55,67.989 1251.3,66.482 1251.35,64.402Z" style="fill:rgb(9,235,0);"/>
                    </g>
                    <g transform="matrix(1,0,-0.0793882,1,49.5926,56)">
                        <path d="M1251.35,64.402C1252.01,40.184 1257.09,27.189 1264.04,18.503C1265.3,16.933 1264.96,14.539 1263.28,13.156C1261.6,11.773 1259.21,11.926 1257.96,13.497C1250.35,22.999 1244.47,37.104 1243.75,63.598C1243.7,65.679 1245.35,67.546 1247.45,67.768C1249.55,67.989 1251.3,66.482 1251.35,64.402Z" style="fill:rgb(9,235,0);"/>
                    </g>
                </g>
            </g>
        </g>
    </g>
</svg>
