<?xml version="1.0" encoding="UTF-8" standalone="no"?>
<!DOCTYPE svg PUBLIC "-//W3C//DTD SVG 1.1//EN" "http://www.w3.org/Graphics/SVG/1.1/DTD/svg11.dtd">
<svg width="100%" height="100%" viewBox="0 0 128 128" version="1.1" xmlns="http://www.w3.org/2000/svg" xmlns:xlink="http://www.w3.org/1999/xlink" xml:space="preserve" xmlns:serif="http://www.serif.com/" style="fill-rule:evenodd;clip-rule:evenodd;stroke-linejoin:round;stroke-miterlimit:2;">
    <g transform="matrix(1,0,0,1,-1232,0)">
        <g transform="matrix(0.125,0,0,0.549356,1077.96,0)">
            <g id="tile-lava">
                <g transform="matrix(8,0,0,1.82031,-8623.67,0)">
                    <rect x="1232" y="0" width="128" height="128" style="fill:rgb(50,208,0);"/>
                </g>
                <g id="Layer3" transform="matrix(7.36345,0,0,1.67547,-7805.77,9.52523)">
                    <g>
                        <path d="M1239.34,107.663C1239.33,106.538 1239.33,105.41 1239.4,104.288C1239.49,103.085 1239.61,101.882 1239.81,100.693C1239.92,100.059 1240.09,99.433 1240.32,98.831C1240.51,98.305 1240.76,97.792 1241.07,97.326C1242.71,94.892 1245.59,99.347 1246.33,100.052C1248.64,102.277 1250.98,104.49 1253.45,106.548C1256.81,109.351 1260.32,111.973 1263.8,114.624C1265.31,115.768 1267.54,116.664 1268.08,118.726C1268.47,120.181 1266.71,121.116 1265.7,121.548C1262.77,122.809 1259.41,122.559 1256.36,121.932C1249.16,120.45 1239.42,116.411 1239.34,107.663Z" style="fill:rgb(26,26,26);"/>
                        <path d="M1347.71,93.314L1351.42,91.152C1352.01,91.066 1352.13,92.402 1352.15,92.608C1352.31,94.168 1352.55,95.726 1352.54,97.294C1352.51,103.164 1352.2,109.253 1349.96,114.77C1349.52,115.86 1348.17,117.827 1347.13,118.466C1345.27,119.618 1343.65,119.525 1341.59,119.871C1339.2,120.27 1336.84,120.843 1334.44,121.143C1330.18,121.678 1320.87,121.071 1322.09,114.505C1322.28,113.51 1322.59,112.526 1323.04,111.621C1327.98,101.771 1340.11,100.242 1347.71,93.314Z" style="fill:rgb(26,26,26);"/>
                        <path d="M1294.6,66.979L1295.35,66.858C1300.86,71.868 1296.3,79.335 1298.28,85.395C1300.58,92.437 1307.95,95.964 1313.33,100.079C1315.44,101.695 1319.1,104.255 1318.04,107.597C1313.86,120.834 1296.66,122.484 1285.36,118.975C1281.63,117.82 1278.23,115.825 1274.63,114.328C1270.68,112.685 1263.6,111.458 1263.04,105.801C1262.84,103.668 1264.43,100.117 1265.7,98.522C1272.2,90.336 1273.05,91.158 1280.01,83.406C1284.56,78.339 1289.15,71.247 1294.6,66.98L1294.6,66.979Z" style="fill:rgb(26,26,26);"/>
                        <path d="M1263.81,62.97C1263.81,62.97 1266.19,64.428 1267.49,64.91C1269.15,65.525 1270.78,66.265 1272.28,67.212C1273.86,68.217 1275.3,69.451 1276.68,70.729C1281.79,75.482 1274.43,81.691 1271,84.54C1269.53,85.758 1267.82,86.715 1266.51,88.103C1263.37,91.434 1259.23,100.443 1252.81,98.151C1244.7,95.259 1237.28,84.957 1240.12,76.161C1243.13,66.87 1254.73,61.864 1263.81,62.969L1263.81,62.97Z" style="fill:rgb(26,26,26);"/>
                        <path d="M1301.79,75.721C1301.57,89.615 1316.79,100.116 1329.85,97.234C1337.43,95.56 1345.78,90.542 1346.7,82.017C1347.76,72.239 1340.67,63.942 1336.23,56.173C1333.98,52.25 1332.48,47.499 1328.73,44.612C1322.35,39.703 1312.37,45.471 1311.31,52.922L1311.27,53.19C1311.21,53.593 1311.12,53.991 1311.01,54.384C1311.01,54.384 1302.1,68.836 1301.81,75.15C1301.8,75.34 1301.79,75.53 1301.79,75.721Z" style="fill:rgb(26,26,26);"/>
                        <path d="M1349.05,70.787C1344.92,62.282 1342.28,57.638 1339.36,48.601C1337.43,42.6 1339.81,36.252 1341.31,30.527C1342.45,26.192 1342.73,24.517 1345.1,20.652C1346.31,18.675 1349.48,19.043 1350.57,20.931C1352.28,23.897 1353.89,27.608 1354.03,31.11C1354.32,38.763 1354.25,46.432 1353.96,54.084C1353.74,59.941 1352.74,66.17 1349.25,71.062L1349.05,70.787Z" style="fill:rgb(26,26,26);"/>
                        <path d="M1288.93,25.044C1286.03,22.347 1282.49,19.411 1278.32,18.906L1274.73,20.026L1274.73,20.027C1265.78,25.801 1257.43,35.666 1259.06,46.968C1259.17,47.205 1259.28,47.438 1259.4,47.668C1259.47,47.814 1259.53,47.969 1259.56,48.128L1260.4,51.759C1266.55,65.918 1285.54,64.501 1297.6,60.691C1303.71,58.76 1308.77,51.691 1306.13,45.235C1304.29,40.735 1300.31,36.436 1297.03,33.007C1294.62,31.232 1290.88,28.07 1288.93,25.044Z" style="fill:rgb(26,26,26);"/>
                        <path d="M1255.19,48.515C1253.24,44.265 1251.81,39.054 1247.67,36.241C1245.11,34.5 1241.6,36.312 1240.5,38.903C1238.16,44.412 1238.14,50.73 1239.91,56.398C1241.71,62.212 1249.28,59.218 1253.34,58.766C1254.23,58.666 1255.13,58.735 1256.03,58.707C1256.41,58.695 1257.33,58.712 1257.61,58.31C1258.77,56.636 1256.85,54.844 1256.5,53.372L1256.3,52.497C1255.81,51.213 1255.44,49.879 1255.19,48.515Z" style="fill:rgb(26,26,26);"/>
                        <path d="M1299.8,29.874C1304.48,33.267 1309.94,35.706 1315.57,37.015C1317.79,37.532 1320.09,37.858 1322.37,37.726C1324.72,37.589 1327.06,37.017 1329.27,36.22C1334.66,34.284 1337.58,27.591 1335.43,22.308C1332.39,14.859 1324.78,9.644 1316.78,9.264L1312.7,9.264C1310.54,9.264 1308.4,8.939 1306.25,8.81C1301.05,8.498 1289.57,7.411 1290.01,15.705C1290.07,16.882 1290.33,18.051 1290.7,19.172C1291.05,20.276 1291.55,21.341 1292.14,22.337C1294.77,24.772 1297.32,27.289 1299.8,29.874Z" style="fill:rgb(26,26,26);"/>
                        <path d="M1269.42,18.227C1269.36,18.261 1269.3,18.298 1269.25,18.337C1266.71,20.169 1264.16,21.988 1261.67,23.877C1259.25,25.704 1258.79,26.674 1255.96,27.914C1250.95,30.107 1242.37,31.543 1239.59,25.242C1239.15,24.253 1238.83,23.205 1238.62,22.143C1238.42,21.081 1238.37,19.989 1238.37,18.908C1238.38,16.735 1238.77,12.499 1239.41,10.403C1240.25,7.669 1243.67,7.033 1246.04,6.81C1251.86,6.262 1255.27,6.612 1261.05,7.287C1262.71,7.481 1265.25,7.975 1266.75,8.78C1269.34,10.168 1269.84,13.526 1270.17,16.082C1270.22,16.5 1269.85,17.977 1269.42,18.227Z" style="fill:rgb(26,26,26);"/>
                    </g>
                    <path d="M1316.83,5.098L1312.7,5.098C1303.51,5.098 1302.33,3.319 1293.17,5.381C1287.07,6.753 1280.82,11.625 1274.15,9.53C1267.94,7.577 1262.09,4.588 1255.88,2.661C1250.71,1.061 1242.28,-0.885 1238.51,4.889C1233.06,13.245 1235.36,23.874 1235.56,33.007C1235.69,38.958 1235.56,44.912 1235.56,50.864C1235.56,58.109 1235.67,65.355 1235.56,72.599C1235.29,90.015 1229.13,122.72 1254.96,126.521C1263.04,127.71 1270.03,122.106 1277.95,121.896C1290.6,121.559 1303.26,122.417 1315.88,123.421C1328.35,124.413 1341.46,130.534 1353.14,122.877C1365.97,114.473 1354.06,88.966 1352.54,80.287C1351.71,75.54 1353.98,70.816 1354.96,66.384C1358.38,50.968 1360.25,45.061 1358.55,29.151C1358.05,24.412 1354.68,17.614 1349.98,15.516C1345.83,13.669 1340.96,14.173 1336.64,12.785C1329.98,10.644 1324.22,5.098 1316.83,5.098ZM1239.34,107.663C1239.33,106.538 1239.33,105.41 1239.4,104.288C1239.49,103.085 1239.61,101.882 1239.81,100.693C1239.92,100.059 1240.09,99.433 1240.32,98.831C1240.51,98.305 1240.76,97.792 1241.07,97.326C1242.71,94.892 1245.59,99.347 1246.33,100.052C1248.64,102.277 1250.98,104.49 1253.45,106.548C1256.81,109.351 1260.32,111.973 1263.8,114.624C1265.31,115.768 1267.54,116.664 1268.08,118.726C1268.47,120.181 1266.71,121.116 1265.7,121.548C1262.77,122.809 1259.41,122.559 1256.36,121.932C1249.16,120.45 1239.42,116.411 1239.34,107.663ZM1347.71,93.314L1351.42,91.152C1352.01,91.066 1352.13,92.402 1352.15,92.608C1352.31,94.168 1352.55,95.726 1352.54,97.294C1352.51,103.164 1352.2,109.253 1349.96,114.77C1349.52,115.86 1348.17,117.827 1347.13,118.466C1345.27,119.618 1343.65,119.525 1341.59,119.871C1339.2,120.27 1336.84,120.843 1334.44,121.143C1330.18,121.678 1320.87,121.071 1322.09,114.505C1322.28,113.51 1322.59,112.526 1323.04,111.621C1327.98,101.771 1340.11,100.242 1347.71,93.314ZM1294.6,66.979L1295.35,66.858C1300.86,71.868 1296.3,79.335 1298.28,85.395C1300.58,92.437 1307.95,95.964 1313.33,100.079C1315.44,101.695 1319.1,104.255 1318.04,107.597C1313.86,120.834 1296.66,122.484 1285.36,118.975C1281.63,117.82 1278.23,115.825 1274.63,114.328C1270.68,112.685 1263.6,111.458 1263.04,105.801C1262.84,103.668 1264.43,100.117 1265.7,98.522C1272.2,90.336 1273.05,91.158 1280.01,83.406C1284.56,78.339 1289.15,71.247 1294.6,66.98L1294.6,66.979ZM1263.81,62.97C1263.81,62.97 1266.19,64.428 1267.49,64.91C1269.15,65.525 1270.78,66.265 1272.28,67.212C1273.86,68.217 1275.3,69.451 1276.68,70.729C1281.79,75.482 1274.43,81.691 1271,84.54C1269.53,85.758 1267.82,86.715 1266.51,88.103C1263.37,91.434 1259.23,100.443 1252.81,98.151C1244.7,95.259 1237.28,84.957 1240.12,76.161C1243.13,66.87 1254.73,61.864 1263.81,62.969L1263.81,62.97ZM1301.79,75.721C1301.57,89.615 1316.79,100.116 1329.85,97.234C1337.43,95.56 1345.78,90.542 1346.7,82.017C1347.76,72.239 1340.67,63.942 1336.23,56.173C1333.98,52.25 1332.48,47.499 1328.73,44.612C1322.35,39.703 1312.37,45.471 1311.31,52.922L1311.31,52.968L1311.3,53.052C1311.29,53.098 1311.28,53.144 1311.27,53.19C1311.21,53.593 1311.12,53.991 1311.01,54.384C1311.01,54.384 1302.1,68.836 1301.81,75.15C1301.8,75.34 1301.79,75.53 1301.79,75.721ZM1347.71,93.314C1347.71,93.314 1347.71,93.314 1347.71,93.314C1347.71,93.314 1347.71,93.314 1347.71,93.314C1347.71,93.313 1347.71,93.313 1347.71,93.313C1347.71,93.313 1347.71,93.312 1347.71,93.312C1347.71,93.312 1347.71,93.312 1347.71,93.311C1347.71,93.311 1347.71,93.311 1347.71,93.311L1347.71,93.314ZM1349.05,70.787C1344.92,62.282 1342.28,57.638 1339.36,48.601C1337.43,42.6 1339.81,36.252 1341.31,30.527C1342.45,26.192 1342.73,24.517 1345.1,20.652C1346.31,18.675 1349.48,19.043 1350.57,20.931C1352.28,23.897 1353.89,27.608 1354.03,31.11C1354.32,38.763 1354.25,46.432 1353.96,54.084C1353.74,59.941 1352.74,66.17 1349.25,71.062L1349.05,70.787ZM1288.93,25.044C1286.03,22.347 1282.49,19.411 1278.32,18.906L1274.73,20.026L1274.73,20.027C1265.78,25.801 1257.43,35.666 1259.06,46.968C1259.17,47.205 1259.28,47.438 1259.4,47.668C1259.47,47.814 1259.53,47.969 1259.56,48.128L1260.4,51.759C1266.55,65.918 1285.54,64.501 1297.6,60.691C1303.71,58.76 1308.77,51.691 1306.13,45.235C1304.29,40.735 1300.31,36.436 1297.03,33.007C1294.62,31.232 1290.88,28.07 1288.93,25.044ZM1255.19,48.515C1253.24,44.265 1251.81,39.054 1247.67,36.241C1245.11,34.5 1241.6,36.312 1240.5,38.903C1238.16,44.412 1238.14,50.73 1239.91,56.398C1241.71,62.212 1249.28,59.218 1253.34,58.766C1254.23,58.666 1255.13,58.735 1256.03,58.707C1256.41,58.695 1257.33,58.712 1257.61,58.31C1258.77,56.636 1256.85,54.844 1256.5,53.372L1256.3,52.497C1255.81,51.213 1255.44,49.879 1255.19,48.515ZM1299.8,29.874C1304.48,33.267 1309.94,35.706 1315.57,37.015C1317.79,37.532 1320.09,37.858 1322.37,37.726C1324.72,37.589 1327.06,37.017 1329.27,36.22C1334.66,34.284 1337.58,27.591 1335.43,22.308C1332.39,14.859 1324.78,9.644 1316.78,9.264L1312.7,9.264C1310.54,9.264 1308.4,8.939 1306.25,8.81C1301.05,8.498 1289.57,7.411 1290.01,15.705C1290.07,16.882 1290.33,18.051 1290.7,19.172C1291.05,20.276 1291.55,21.341 1292.14,22.337C1294.77,24.772 1297.32,27.289 1299.8,29.874ZM1269.42,18.227C1269.36,18.261 1269.3,18.298 1269.25,18.337C1266.71,20.169 1264.16,21.988 1261.67,23.877C1259.25,25.704 1258.79,26.674 1255.96,27.914C1250.95,30.107 1242.37,31.543 1239.59,25.242C1239.15,24.253 1238.83,23.205 1238.62,22.143C1238.42,21.081 1238.37,19.989 1238.37,18.908C1238.38,16.735 1238.77,12.499 1239.41,10.403C1240.25,7.669 1243.67,7.033 1246.04,6.81C1251.86,6.262 1255.27,6.612 1261.05,7.287C1262.71,7.481 1265.25,7.975 1266.75,8.78C1269.34,10.168 1269.84,13.526 1270.17,16.082C1270.22,16.5 1269.85,17.977 1269.42,18.227Z" style="fill:rgb(255,114,0);stroke:rgb(206,109,0);stroke-opacity:0.82;stroke-width:2.26px;"/>
                </g>
            </g>
        </g>
    </g>
</svg>
