<?xml version="1.0" encoding="UTF-8" standalone="no"?><!DOCTYPE svg PUBLIC "-//W3C//DTD SVG 1.1//EN" "http://www.w3.org/Graphics/SVG/1.1/DTD/svg11.dtd"><svg width="100%" height="100%" viewBox="0 0 128 128" version="1.1" xmlns="http://www.w3.org/2000/svg" xmlns:xlink="http://www.w3.org/1999/xlink" xml:space="preserve" xmlns:serif="http://www.serif.com/" style="fill-rule:evenodd;clip-rule:evenodd;stroke-linejoin:round;stroke-miterlimit:2;"><path id="ui-icon-map" d="M63.27,81.067l-0.086,-0.093c-7.445,-7.905 -18.051,-20.311 -20.109,-27.992c-2.462,-9.187 2.998,-18.644 12.185,-21.106c9.186,-2.461 18.643,2.999 21.105,12.185c2.066,7.712 -0.948,23.855 -3.449,34.421l27.975,-7.496c4.361,-1.168 7.245,0.178 6.436,3.006l-2.931,10.245c-0.809,2.827 -5.007,6.071 -9.368,7.24l-55.001,14.737c-4.361,1.169 -7.245,-0.178 -6.436,-3.005l2.931,-10.245c0.809,-2.827 5.006,-6.072 9.368,-7.24l17.38,-4.657Zm0,-0l1.353,1.47l-17.974,4.816c-3.516,0.943 -6.901,3.558 -7.553,5.838l-2.363,8.26c-0.653,2.279 1.673,3.365 5.189,2.423l52.347,-14.027c3.516,-0.942 6.9,-3.557 7.552,-5.837l2.364,-8.26c0.652,-2.279 -1.673,-3.365 -5.189,-2.423l-26.515,7.105c-1.1,4.882 -2.022,8.168 -2.022,8.168c-0,0 -2.442,-2.384 -5.836,-6.063l-1.351,-1.471l-0.002,0.001Zm6.853,-1.926c2.015,-8.228 5.955,-26.344 3.838,-34.248c-2.099,-7.834 -10.164,-12.49 -17.998,-10.39c-7.834,2.099 -12.49,10.163 -10.39,17.997c2.126,7.935 14.686,21.729 20.515,27.812l2.963,3.036l1.072,-4.207Zm-12.788,-39.518c5.327,-1.427 10.81,1.739 12.237,7.065c1.428,5.327 -1.738,10.81 -7.065,12.237c-5.326,1.428 -10.809,-1.738 -12.237,-7.065c-1.427,-5.326 1.739,-10.81 7.065,-12.237Z" style="fill:#bb0e0e;"/></svg>