<?xml version="1.0" encoding="UTF-8" standalone="no"?><!DOCTYPE svg PUBLIC "-//W3C//DTD SVG 1.1//EN" "http://www.w3.org/Graphics/SVG/1.1/DTD/svg11.dtd"><svg width="100%" height="100%" viewBox="0 0 128 128" version="1.1" xmlns="http://www.w3.org/2000/svg" xmlns:xlink="http://www.w3.org/1999/xlink" xml:space="preserve" xmlns:serif="http://www.serif.com/" style="fill-rule:evenodd;clip-rule:evenodd;stroke-linejoin:round;stroke-miterlimit:2;"><path id="ui-icon-pokedex" d="M57.459,31.07l-0.634,-9.874c-0.023,-0.369 0.2,-0.712 0.551,-0.846c0.351,-0.134 0.747,-0.027 0.976,0.264c2.164,2.751 5.893,7.492 8.197,10.419c0.45,0.574 0.58,1.334 0.345,2.028c-0.225,0.664 -0.756,1.184 -1.426,1.403l-4.355,2.659l4.634,4.48l18.324,-4.91c7.086,-1.899 14.38,2.312 16.279,9.398l6.88,25.678c1.899,7.086 -2.312,14.38 -9.398,16.279l-17.858,4.785l-1.517,12.723c-0.092,0.768 -0.611,1.418 -1.34,1.677c-0.728,0.26 -1.541,0.083 -2.097,-0.454l-10.219,-9.881l-18.324,4.91c-7.086,1.899 -14.381,-2.312 -16.279,-9.398l-6.88,-25.678c-1.899,-7.086 2.312,-14.38 9.398,-16.279l17.858,-4.785l1.467,-12.299c-0.015,-0.275 0.02,-0.549 0.101,-0.809c0.126,-0.662 0.595,-1.212 1.236,-1.44c0.084,-0.03 0.169,-0.054 0.255,-0.072c0.262,-0.085 0.539,-0.124 0.82,-0.112l3.006,0.134Zm39.702,17.127c-1.726,-6.442 -8.357,-10.271 -14.799,-8.544l-46.686,12.509c-6.442,1.726 -10.27,8.357 -8.544,14.799l6.255,23.343c1.726,6.442 8.357,10.271 14.799,8.545l46.686,-12.51c6.442,-1.726 10.27,-8.357 8.544,-14.799l-6.255,-23.343Zm-50.255,33.585c2.217,-0.594 4.498,0.723 5.092,2.94c0.594,2.216 -0.723,4.498 -2.94,5.092c-2.216,0.593 -4.498,-0.724 -5.091,-2.94c-0.594,-2.217 0.723,-4.498 2.939,-5.092Zm45.632,-7.923c-0.424,-1.583 -2.054,-2.524 -3.637,-2.1l-30.022,8.045c-1.583,0.424 -2.524,2.054 -2.1,3.637c0.424,1.583 2.054,2.524 3.637,2.1l30.023,-8.045c1.583,-0.424 2.524,-2.054 2.099,-3.637Zm-48.604,-3.168c2.217,-0.594 4.498,0.723 5.092,2.94c0.594,2.216 -0.723,4.497 -2.94,5.091c-2.216,0.594 -4.497,-0.723 -5.091,-2.939c-0.594,-2.217 0.723,-4.498 2.939,-5.092Zm45.632,-7.923c-0.424,-1.583 -2.053,-2.524 -3.637,-2.1l-30.022,8.045c-1.583,0.424 -2.524,2.053 -2.1,3.637c0.424,1.583 2.054,2.524 3.637,2.099l30.023,-8.044c1.583,-0.424 2.524,-2.054 2.099,-3.637Zm-48.617,-3.218c2.217,-0.594 4.498,0.724 5.092,2.94c0.594,2.216 -0.723,4.498 -2.94,5.092c-2.216,0.594 -4.498,-0.724 -5.091,-2.94c-0.594,-2.216 0.723,-4.498 2.939,-5.092Zm45.632,-7.923c-0.424,-1.583 -2.053,-2.524 -3.637,-2.1l-30.022,8.045c-1.583,0.424 -2.524,2.054 -2.1,3.637c0.424,1.583 2.054,2.524 3.637,2.1l30.023,-8.045c1.583,-0.424 2.524,-2.054 2.099,-3.637Z" style="fill:#bb0e0e;"/></svg>