<?xml version="1.0" encoding="UTF-8" standalone="no"?><!DOCTYPE svg PUBLIC "-//W3C//DTD SVG 1.1//EN" "http://www.w3.org/Graphics/SVG/1.1/DTD/svg11.dtd"><svg width="100%" height="100%" viewBox="0 0 256 256" version="1.1" xmlns="http://www.w3.org/2000/svg" xmlns:xlink="http://www.w3.org/1999/xlink" xml:space="preserve" xmlns:serif="http://www.serif.com/" style="fill-rule:evenodd;clip-rule:evenodd;stroke-linejoin:round;stroke-miterlimit:2;"><path id="ui-icon-options" d="M89.954,69.185c1.751,-6.181 2.025,-12.453 0.822,-18.813c-0.331,-1.748 0.603,-3.49 2.242,-4.181c7.628,-3.218 15.662,-5.371 23.877,-6.398c1.765,-0.221 3.444,0.821 4.032,2.5c2.138,6.109 5.511,11.404 10.118,15.881c4.236,0.175 8.449,0.73 12.587,1.658c5.609,-3.133 10.237,-7.374 13.884,-12.722c1.002,-1.47 2.894,-2.041 4.542,-1.371c7.669,3.118 14.872,7.277 21.407,12.359c1.404,1.092 1.855,3.016 1.084,4.619c-2.809,5.832 -4.167,11.961 -4.076,18.385c2.872,3.119 5.459,6.49 7.729,10.072c6.181,1.751 12.452,2.024 18.813,0.821c1.748,-0.33 3.489,0.604 4.181,2.243c3.218,7.627 5.37,15.662 6.397,23.876c0.221,1.765 -0.82,3.445 -2.499,4.033c-6.11,2.138 -11.404,5.511 -15.882,10.118c-0.175,4.236 -0.729,8.448 -1.657,12.587c3.133,5.608 7.374,10.236 12.722,13.883c1.469,1.002 2.04,2.894 1.37,4.542c-3.118,7.669 -7.276,14.873 -12.359,21.407c-1.092,1.405 -3.016,1.856 -4.619,1.084c-5.832,-2.808 -11.961,-4.167 -18.384,-4.075c-3.12,2.872 -6.49,5.458 -10.073,7.728c-1.75,6.181 -2.024,12.453 -0.821,18.813c0.331,1.748 -0.603,3.49 -2.242,4.181c-7.628,3.218 -15.662,5.371 -23.877,6.398c-1.765,0.221 -3.445,-0.821 -4.032,-2.5c-2.139,-6.11 -5.511,-11.404 -10.118,-15.882c-4.237,-0.174 -8.449,-0.729 -12.587,-1.657c-5.609,3.133 -10.237,7.374 -13.884,12.722c-1.002,1.47 -2.894,2.041 -4.542,1.371c-7.669,-3.118 -14.872,-7.277 -21.407,-12.359c-1.404,-1.092 -1.856,-3.016 -1.084,-4.619c2.808,-5.833 4.167,-11.961 4.076,-18.385c-2.872,-3.119 -5.459,-6.49 -7.729,-10.072c-6.181,-1.751 -12.452,-2.024 -18.813,-0.821c-1.748,0.33 -3.489,-0.604 -4.181,-2.243c-3.218,-7.627 -5.371,-15.662 -6.398,-23.876c-0.22,-1.765 0.821,-3.445 2.5,-4.033c6.11,-2.138 11.404,-5.511 15.882,-10.118c0.175,-4.236 0.729,-8.449 1.657,-12.587c-3.133,-5.608 -7.374,-10.237 -12.722,-13.883c-1.47,-1.003 -2.041,-2.895 -1.371,-4.542c3.118,-7.669 7.277,-14.873 12.36,-21.408c1.092,-1.404 3.016,-1.855 4.618,-1.083c5.833,2.808 11.961,4.167 18.385,4.075c3.119,-2.872 6.49,-5.458 10.072,-7.728Zm24.967,-21.481c-5.547,0.894 -10.987,2.352 -16.239,4.351c0.883,7 0.242,13.909 -1.923,20.726c-0.277,0.871 -0.86,1.613 -1.643,2.087c-3.994,2.419 -7.71,5.27 -11.08,8.502c-0.661,0.633 -1.528,1.005 -2.442,1.047c-7.144,0.327 -13.984,-0.842 -20.517,-3.507c-3.29,4.555 -6.106,9.433 -8.406,14.56c5.574,4.326 10.006,9.664 13.296,16.015c0.42,0.812 0.532,1.75 0.314,2.638c-1.114,4.535 -1.726,9.178 -1.823,13.847c-0.02,0.915 -0.37,1.791 -0.986,2.466c-4.822,5.284 -10.484,9.293 -16.988,12.029c0.894,5.547 2.352,10.988 4.351,16.239c7,-0.883 13.909,-0.242 20.726,1.923c0.872,0.277 1.613,0.861 2.087,1.643c2.419,3.994 5.271,7.71 8.503,11.081c0.633,0.66 1.005,1.527 1.046,2.441c0.327,7.145 -0.842,13.984 -3.506,20.517c4.555,3.29 9.433,6.107 14.559,8.406c4.326,-5.574 9.665,-10.006 16.016,-13.295c0.812,-0.421 1.749,-0.532 2.637,-0.314c4.535,1.114 9.179,1.725 13.848,1.823c0.914,0.019 1.79,0.369 2.466,0.986c5.283,4.821 9.293,10.484 12.028,16.987c5.547,-0.894 10.988,-2.352 16.239,-4.351c-0.882,-7 -0.241,-13.909 1.924,-20.726c0.276,-0.872 0.86,-1.613 1.642,-2.087c3.995,-2.419 7.711,-5.27 11.081,-8.502c0.66,-0.633 1.528,-1.005 2.441,-1.047c7.145,-0.327 13.985,0.842 20.518,3.506c3.29,-4.554 6.106,-9.432 8.406,-14.559c-5.574,-4.326 -10.006,-9.664 -13.296,-16.015c-0.42,-0.813 -0.532,-1.75 -0.314,-2.638c1.114,-4.535 1.725,-9.179 1.823,-13.847c0.019,-0.915 0.37,-1.791 0.986,-2.467c4.821,-5.283 10.484,-9.293 16.988,-12.028c-0.895,-5.547 -2.353,-10.988 -4.352,-16.239c-7,0.883 -13.909,0.241 -20.725,-1.923c-0.872,-0.277 -1.614,-0.861 -2.087,-1.643c-2.42,-3.994 -5.271,-7.71 -8.503,-11.081c-0.633,-0.66 -1.005,-1.527 -1.047,-2.441c-0.326,-7.145 0.842,-13.984 3.507,-20.517c-4.555,-3.29 -9.433,-6.107 -14.56,-8.406c-4.325,5.574 -9.664,10.006 -16.015,13.295c-0.812,0.421 -1.749,0.532 -2.637,0.314c-4.535,-1.114 -9.179,-1.725 -13.848,-1.823c-0.914,-0.019 -1.791,-0.369 -2.466,-0.986c-5.283,-4.821 -9.293,-10.484 -12.029,-16.987Zm0.329,33.704c-26.434,7.083 -42.144,34.295 -35.061,60.728c7.083,26.434 34.294,42.145 60.728,35.062c26.433,-7.083 42.144,-34.295 35.061,-60.728c-7.083,-26.434 -34.294,-42.145 -60.728,-35.062Zm1.955,7.295c22.407,-6.004 45.474,7.314 51.478,29.721c6.004,22.408 -7.313,45.475 -29.721,51.479c-22.408,6.004 -45.474,-7.314 -51.479,-29.721c-6.004,-22.408 7.314,-45.475 29.722,-51.479Z" style="fill:#bb0e0e;"/></svg>