<?xml version="1.0" encoding="UTF-8" standalone="no"?><!DOCTYPE svg PUBLIC "-//W3C//DTD SVG 1.1//EN" "http://www.w3.org/Graphics/SVG/1.1/DTD/svg11.dtd"><svg width="100%" height="100%" viewBox="0 0 128 128" version="1.1" xmlns="http://www.w3.org/2000/svg" xmlns:xlink="http://www.w3.org/1999/xlink" xml:space="preserve" xmlns:serif="http://www.serif.com/" style="fill-rule:evenodd;clip-rule:evenodd;stroke-linejoin:round;stroke-miterlimit:2;"><path id="ui-icon-options" d="M44.977,34.592c0.876,-3.09 1.012,-6.226 0.411,-9.406c-0.165,-0.874 0.302,-1.745 1.121,-2.091c3.814,-1.609 7.831,-2.685 11.938,-3.198c0.883,-0.111 1.723,0.41 2.017,1.249c1.069,3.055 2.755,5.702 5.058,7.941c2.119,0.088 4.225,0.365 6.294,0.829c2.804,-1.567 5.118,-3.687 6.942,-6.361c0.501,-0.735 1.447,-1.021 2.271,-0.686c3.834,1.559 7.436,3.639 10.703,6.18c0.702,0.546 0.928,1.508 0.542,2.31c-1.404,2.916 -2.083,5.98 -2.038,9.192c1.436,1.559 2.73,3.245 3.865,5.036c3.09,0.875 6.226,1.012 9.406,0.411c0.874,-0.166 1.745,0.301 2.091,1.121c1.609,3.814 2.685,7.831 3.199,11.938c0.11,0.883 -0.411,1.723 -1.25,2.016c-3.055,1.07 -5.702,2.756 -7.941,5.059c-0.088,2.119 -0.365,4.225 -0.829,6.294c1.567,2.804 3.687,5.118 6.361,6.942c0.735,0.501 1.021,1.447 0.686,2.271c-1.559,3.834 -3.639,7.436 -6.18,10.703c-0.546,0.702 -1.508,0.928 -2.309,0.542c-2.917,-1.404 -5.981,-2.083 -9.193,-2.038c-1.559,1.436 -3.245,2.73 -5.036,3.865c-0.875,3.09 -1.012,6.226 -0.41,9.406c0.165,0.874 -0.302,1.745 -1.122,2.091c-3.813,1.609 -7.831,2.685 -11.938,3.198c-0.883,0.111 -1.722,-0.41 -2.016,-1.249c-1.069,-3.055 -2.756,-5.702 -5.059,-7.941c-2.118,-0.088 -4.225,-0.365 -6.294,-0.829c-2.804,1.567 -5.118,3.687 -6.942,6.361c-0.501,0.735 -1.447,1.021 -2.27,0.686c-3.835,-1.559 -7.437,-3.639 -10.704,-6.18c-0.702,-0.546 -0.928,-1.508 -0.542,-2.31c1.404,-2.916 2.084,-5.98 2.038,-9.192c-1.436,-1.56 -2.729,-3.245 -3.864,-5.036c-3.091,-0.875 -6.227,-1.012 -9.407,-0.411c-0.874,0.166 -1.745,-0.301 -2.09,-1.121c-1.609,-3.814 -2.686,-7.831 -3.199,-11.938c-0.111,-0.883 0.41,-1.723 1.249,-2.016c3.055,-1.07 5.703,-2.756 7.941,-5.059c0.088,-2.119 0.365,-4.225 0.829,-6.294c-1.566,-2.804 -3.687,-5.118 -6.361,-6.942c-0.735,-0.501 -1.02,-1.447 -0.685,-2.271c1.559,-3.834 3.638,-7.436 6.179,-10.703c0.546,-0.702 1.508,-0.928 2.31,-0.542c2.916,1.404 5.98,2.083 9.192,2.038c1.56,-1.436 3.245,-2.73 5.036,-3.865Zm12.484,-10.74c-2.774,0.447 -5.494,1.176 -8.12,2.175c0.442,3.5 0.121,6.955 -0.961,10.363c-0.139,0.436 -0.431,0.807 -0.822,1.044c-1.997,1.209 -3.855,2.635 -5.54,4.251c-0.33,0.317 -0.764,0.503 -1.221,0.524c-3.572,0.163 -6.992,-0.422 -10.259,-1.754c-1.644,2.278 -3.053,4.717 -4.202,7.28c2.787,2.163 5.003,4.832 6.647,8.008c0.211,0.406 0.266,0.874 0.157,1.318c-0.557,2.268 -0.862,4.59 -0.911,6.924c-0.01,0.457 -0.185,0.895 -0.493,1.233c-2.411,2.642 -5.242,4.647 -8.494,6.014c0.447,2.774 1.176,5.494 2.176,8.12c3.5,-0.441 6.954,-0.121 10.363,0.962c0.435,0.138 0.806,0.43 1.043,0.821c1.21,1.997 2.635,3.855 4.251,5.54c0.317,0.33 0.503,0.764 0.524,1.221c0.163,3.572 -0.421,6.992 -1.754,10.259c2.278,1.645 4.717,3.053 7.28,4.203c2.163,-2.787 4.832,-5.003 8.008,-6.648c0.406,-0.21 0.874,-0.266 1.319,-0.157c2.267,0.557 4.589,0.862 6.923,0.911c0.457,0.01 0.896,0.185 1.233,0.493c2.642,2.411 4.647,5.242 6.015,8.494c2.773,-0.447 5.494,-1.176 8.119,-2.175c-0.441,-3.501 -0.121,-6.955 0.962,-10.363c0.138,-0.436 0.43,-0.807 0.821,-1.044c1.997,-1.209 3.855,-2.635 5.541,-4.251c0.33,-0.317 0.763,-0.503 1.22,-0.524c3.573,-0.163 6.992,0.421 10.259,1.754c1.645,-2.278 3.053,-4.717 4.203,-7.28c-2.787,-2.163 -5.003,-4.832 -6.648,-8.008c-0.21,-0.406 -0.266,-0.874 -0.157,-1.318c0.557,-2.268 0.863,-4.59 0.912,-6.924c0.009,-0.457 0.184,-0.895 0.493,-1.233c2.41,-2.642 5.242,-4.647 8.493,-6.015c-0.447,-2.773 -1.176,-5.493 -2.175,-8.119c-3.5,0.441 -6.955,0.121 -10.363,-0.962c-0.436,-0.138 -0.807,-0.43 -1.044,-0.821c-1.209,-1.997 -2.635,-3.855 -4.251,-5.54c-0.317,-0.33 -0.502,-0.764 -0.523,-1.221c-0.164,-3.572 0.421,-6.992 1.753,-10.259c-2.277,-1.645 -4.716,-3.053 -7.28,-4.203c-2.163,2.787 -4.832,5.003 -8.008,6.648c-0.406,0.21 -0.874,0.266 -1.318,0.157c-2.268,-0.557 -4.59,-0.863 -6.924,-0.911c-0.457,-0.01 -0.895,-0.185 -1.233,-0.493c-2.642,-2.411 -4.647,-5.242 -6.014,-8.494Zm0.164,16.852c-13.217,3.542 -21.072,17.147 -17.531,30.364c3.542,13.217 17.147,21.072 30.364,17.531c13.217,-3.542 21.072,-17.147 17.531,-30.364c-3.541,-13.217 -17.147,-21.072 -30.364,-17.531Zm0.977,3.648c11.204,-3.003 22.738,3.656 25.74,14.86c3.002,11.204 -3.657,22.737 -14.861,25.739c-11.204,3.002 -22.737,-3.656 -25.739,-14.86c-3.002,-11.204 3.656,-22.737 14.86,-25.739Z" style="fill:#bb0e0e;"/></svg>