<?xml version="1.0" encoding="UTF-8" standalone="no"?><!DOCTYPE svg PUBLIC "-//W3C//DTD SVG 1.1//EN" "http://www.w3.org/Graphics/SVG/1.1/DTD/svg11.dtd"><svg width="100%" height="100%" viewBox="0 0 256 256" version="1.1" xmlns="http://www.w3.org/2000/svg" xmlns:xlink="http://www.w3.org/1999/xlink" xml:space="preserve" xmlns:serif="http://www.serif.com/" style="fill-rule:evenodd;clip-rule:evenodd;stroke-linejoin:round;stroke-miterlimit:2;"><path id="ui-icon-pokemon" d="M106.504,48.769c44.448,-11.91 90.204,14.507 102.113,58.955c11.91,44.448 -14.507,90.203 -58.955,102.113c-44.448,11.91 -90.203,-14.507 -102.113,-58.955c-11.909,-44.448 14.507,-90.203 58.955,-102.113Zm57.769,78.343c1.032,16.845 -9.881,32.67 -26.807,37.206c-16.927,4.535 -34.29,-3.714 -41.819,-18.818l-31.85,8.534c12.461,32.492 47.759,51.002 82.113,41.797c34.353,-9.205 55.668,-42.884 50.213,-77.253l-31.85,8.534Zm-42.757,-22.319c13.527,-3.625 27.453,4.415 31.078,17.942c3.624,13.528 -4.415,27.454 -17.943,31.078c-13.528,3.625 -27.453,-4.415 -31.078,-17.943c-3.625,-13.527 4.415,-27.453 17.943,-31.077Zm70.854,-0.221c-12.461,-32.493 -47.76,-51.002 -82.113,-41.797c-34.353,9.205 -55.668,42.884 -50.213,77.253l31.85,-8.534c-1.032,-16.845 9.88,-32.67 26.807,-37.206c16.927,-4.535 34.29,3.713 41.819,18.818l31.85,-8.534Z" style="fill:#bb0e0e;"/></svg>