<?xml version="1.0" encoding="UTF-8" standalone="no"?><!DOCTYPE svg PUBLIC "-//W3C//DTD SVG 1.1//EN" "http://www.w3.org/Graphics/SVG/1.1/DTD/svg11.dtd"><svg width="100%" height="100%" viewBox="0 0 256 256" version="1.1" xmlns="http://www.w3.org/2000/svg" xmlns:xlink="http://www.w3.org/1999/xlink" xml:space="preserve" xmlns:serif="http://www.serif.com/" style="fill-rule:evenodd;clip-rule:evenodd;stroke-linejoin:round;stroke-miterlimit:2;"><path id="ui-icon-pokedex" d="M114.919,62.14l-1.268,-19.749c-0.048,-0.737 0.4,-1.424 1.102,-1.691c0.702,-0.268 1.494,-0.053 1.951,0.528c4.328,5.501 11.787,14.983 16.393,20.839c0.902,1.146 1.161,2.666 0.691,4.054c-0.45,1.328 -1.511,2.369 -2.852,2.808l-8.709,5.316l9.267,8.96l36.648,-9.82c14.172,-3.797 28.761,4.626 32.558,18.798l13.761,51.355c3.797,14.172 -4.626,28.76 -18.797,32.558l-35.716,9.569l-3.035,25.447c-0.183,1.537 -1.221,2.836 -2.678,3.355c-1.458,0.518 -3.083,0.166 -4.196,-0.909l-20.437,-19.761l-36.649,9.82c-14.171,3.797 -28.76,-4.626 -32.557,-18.798l-13.761,-51.355c-3.797,-14.171 4.626,-28.76 18.797,-32.557l35.715,-9.57l2.934,-24.599c-0.029,-0.55 0.041,-1.098 0.203,-1.617c0.253,-1.325 1.189,-2.426 2.472,-2.882c0.168,-0.06 0.339,-0.107 0.511,-0.143c0.523,-0.17 1.078,-0.248 1.64,-0.223l6.012,0.267Zm79.404,34.253c-3.452,-12.883 -16.715,-20.54 -29.598,-17.088l-93.373,25.019c-12.883,3.452 -20.541,16.715 -17.088,29.598l12.509,46.687c3.452,12.883 16.715,20.54 29.598,17.088l93.373,-25.019c12.883,-3.452 20.541,-16.715 17.088,-29.598l-12.509,-46.687Zm-100.51,67.171c4.432,-1.188 8.996,1.447 10.183,5.879c1.188,4.433 -1.447,8.996 -5.879,10.184c-4.433,1.188 -8.996,-1.447 -10.184,-5.879c-1.188,-4.433 1.447,-8.996 5.88,-10.184Zm91.264,-15.846c-0.849,-3.166 -4.108,-5.048 -7.274,-4.2l-60.046,16.089c-3.166,0.849 -5.048,4.108 -4.199,7.274c0.848,3.167 4.107,5.048 7.274,4.2l60.045,-16.089c3.166,-0.848 5.048,-4.108 4.2,-7.274Zm-97.208,-6.336c4.433,-1.188 8.996,1.446 10.184,5.879c1.187,4.433 -1.447,8.996 -5.88,10.184c-4.433,1.187 -8.996,-1.447 -10.184,-5.88c-1.187,-4.433 1.447,-8.996 5.88,-10.183Zm91.264,-15.846c-0.848,-3.167 -4.108,-5.048 -7.274,-4.2l-60.045,16.089c-3.167,0.848 -5.049,4.108 -4.2,7.274c0.848,3.166 4.108,5.048 7.274,4.2l60.045,-16.089c3.167,-0.849 5.048,-4.108 4.2,-7.274Zm-97.234,-6.435c4.432,-1.188 8.996,1.446 10.183,5.879c1.188,4.433 -1.446,8.996 -5.879,10.184c-4.433,1.187 -8.996,-1.447 -10.184,-5.88c-1.188,-4.433 1.447,-8.996 5.88,-10.183Zm91.264,-15.846c-0.849,-3.167 -4.108,-5.048 -7.274,-4.2l-60.046,16.089c-3.166,0.848 -5.048,4.108 -4.199,7.274c0.848,3.166 4.107,5.048 7.274,4.2l60.045,-16.089c3.166,-0.849 5.048,-4.108 4.2,-7.274Z" style="fill:#bb0e0e;"/></svg>