<?xml version="1.0" encoding="UTF-8" standalone="no"?><!DOCTYPE svg PUBLIC "-//W3C//DTD SVG 1.1//EN" "http://www.w3.org/Graphics/SVG/1.1/DTD/svg11.dtd"><svg width="100%" height="100%" viewBox="0 0 256 256" version="1.1" xmlns="http://www.w3.org/2000/svg" xmlns:xlink="http://www.w3.org/1999/xlink" xml:space="preserve" xmlns:serif="http://www.serif.com/" style="fill-rule:evenodd;clip-rule:evenodd;stroke-linejoin:round;stroke-miterlimit:2;"><path id="ui-icon-map" d="M126.54,162.134l-0.171,-0.187c-14.891,-15.81 -36.103,-40.62 -40.22,-55.984c-4.923,-18.373 5.997,-37.287 24.37,-42.21c18.374,-4.923 37.287,5.997 42.21,24.37c4.133,15.424 -1.895,47.708 -6.897,68.841l55.949,-14.991c8.723,-2.337 14.491,0.356 12.873,6.01l-5.863,20.491c-1.618,5.654 -10.013,12.143 -18.735,14.48l-110.002,29.475c-8.723,2.337 -14.491,-0.356 -12.873,-6.011l5.863,-20.49c1.618,-5.655 10.013,-12.143 18.735,-14.48l34.761,-9.314Zm0,-0l2.706,2.941l-35.949,9.632c-7.032,1.884 -13.8,7.115 -15.105,11.674l-4.727,16.52c-1.304,4.559 3.346,6.731 10.379,4.846l104.694,-28.052c7.032,-1.885 13.801,-7.116 15.105,-11.675l4.727,-16.52c1.304,-4.559 -3.346,-6.73 -10.378,-4.846l-53.029,14.209c-2.201,9.766 -4.045,16.338 -4.045,16.338c-0,-0 -4.884,-4.769 -11.672,-12.126l-2.703,-2.942l-0.003,0.001Zm13.706,-3.853c4.03,-16.456 11.911,-52.687 7.675,-68.494c-4.198,-15.668 -20.327,-24.98 -35.994,-20.782c-15.668,4.198 -24.98,20.327 -20.782,35.995c4.252,15.869 29.372,43.459 41.032,55.623l5.926,6.073l2.143,-8.415Zm-25.575,-79.035c10.653,-2.854 21.619,3.477 24.474,14.131c2.854,10.653 -3.477,21.619 -14.13,24.474c-10.653,2.854 -21.62,-3.477 -24.474,-14.13c-2.855,-10.654 3.477,-21.62 14.13,-24.475Z" style="fill:#bb0e0e;"/></svg>