<?xml version="1.0" encoding="UTF-8" standalone="no"?><!DOCTYPE svg PUBLIC "-//W3C//DTD SVG 1.1//EN" "http://www.w3.org/Graphics/SVG/1.1/DTD/svg11.dtd"><svg width="100%" height="100%" viewBox="0 0 128 128" version="1.1" xmlns="http://www.w3.org/2000/svg" xmlns:xlink="http://www.w3.org/1999/xlink" xml:space="preserve" xmlns:serif="http://www.serif.com/" style="fill-rule:evenodd;clip-rule:evenodd;stroke-linejoin:round;stroke-miterlimit:2;"><path id="ui-icon-save" d="M99.629,49.064c0.808,1.753 1.453,3.604 1.968,5.525c5.77,21.532 -7.028,43.698 -28.561,49.468c-21.532,5.77 -43.698,-7.028 -49.468,-28.561c-5.77,-21.532 7.028,-43.698 28.561,-49.468c10.144,-2.718 20.428,-1.315 29.051,3.22l-0.7,1.41l-0.582,2.172c-7.913,-4.297 -17.419,-5.666 -26.792,-3.155c-19.52,5.231 -31.121,25.324 -25.891,44.844c5.231,19.52 25.325,31.121 44.844,25.891c19.52,-5.231 31.121,-25.325 25.891,-44.844l-0.035,-0.107l1.714,-6.395Zm-25.51,19.485l9.899,-36.943c0.27,-1.008 1.305,-1.605 2.313,-1.335l11.743,3.146c1.008,0.27 1.605,1.306 1.335,2.313l-9.909,36.979l-0.007,0.025c-0.086,0.28 -0.231,0.527 -0.418,0.729l-8.994,10.143c-0.474,0.535 -1.21,0.756 -1.901,0.571c-0.691,-0.185 -1.218,-0.745 -1.361,-1.446l-2.718,-13.28c-0.061,-0.269 -0.063,-0.555 0.003,-0.84l0.015,-0.062Zm-1.282,12.995l0.393,1.922c0.126,0.614 0.352,1.191 0.689,1.697l-23.404,6.271c-1.007,0.27 -2.043,-0.328 -2.313,-1.335c-0.269,-1.006 0.329,-2.042 1.335,-2.312l23.3,-6.243Zm6.924,-3.269l4.487,-5.059l-5.842,-1.566l1.355,6.625Zm13.263,-4.565l0.007,-0.026c-0.009,0.031 -0.007,0.026 -0.007,0.026Zm0.014,-0.051l0.002,-0.007c-0.003,0.013 -0.002,0.007 -0.002,0.007Zm0.005,-0.017l0.011,-0.041c-0.011,0.043 -0.011,0.041 -0.011,0.041Zm-14.787,-5.941l8.096,2.169l8.921,-33.294l-8.096,-2.169l-8.921,33.294Zm-7.778,0.569c-0.128,0.665 -0.096,1.344 0.051,1.989l0.369,1.807l-23.86,6.393c-1.007,0.27 -2.043,-0.328 -2.312,-1.335c-0.27,-1.006 0.328,-2.042 1.335,-2.312l24.417,-6.542Zm0.086,-0.603l-0.007,0.029c0.008,-0.032 0.007,-0.029 0.007,-0.029Zm3.889,-14.515l-1.129,4.212l-29.799,7.984c-1.007,0.27 -2.043,-0.328 -2.312,-1.335c-0.27,-1.006 0.328,-2.042 1.335,-2.312l31.905,-8.549Zm-34.54,-1.284l35.715,-9.57c1.006,-0.27 1.605,-1.306 1.335,-2.312c-0.27,-1.007 -1.306,-1.605 -2.312,-1.336l-35.716,9.57c-1.006,0.27 -1.604,1.306 -1.335,2.313c0.27,1.006 1.306,1.604 2.313,1.335Z" style="fill:#bb0e0e;"/></svg>