<?xml version="1.0" encoding="UTF-8" standalone="no"?><!DOCTYPE svg PUBLIC "-//W3C//DTD SVG 1.1//EN" "http://www.w3.org/Graphics/SVG/1.1/DTD/svg11.dtd"><svg width="100%" height="100%" viewBox="0 0 256 256" version="1.1" xmlns="http://www.w3.org/2000/svg" xmlns:xlink="http://www.w3.org/1999/xlink" xml:space="preserve" xmlns:serif="http://www.serif.com/" style="fill-rule:evenodd;clip-rule:evenodd;stroke-linejoin:round;stroke-miterlimit:2;"><path id="ui-icon-save" d="M199.257,98.127c1.618,3.506 2.908,7.209 3.937,11.05c11.539,43.065 -14.056,87.398 -57.121,98.937c-43.065,11.539 -87.397,-14.056 -98.937,-57.121c-11.539,-43.066 14.056,-87.398 57.121,-98.937c20.288,-5.436 40.858,-2.631 58.103,6.44l-1.4,2.819l-1.164,4.345c-15.826,-8.593 -34.837,-11.332 -53.584,-6.309c-39.039,10.46 -62.242,50.648 -51.781,89.687c10.461,39.039 50.648,62.242 89.687,51.781c39.04,-10.46 62.242,-50.648 51.781,-89.687l-0.069,-0.214l3.427,-12.791Zm-51.019,38.971l19.798,-73.887c0.54,-2.014 2.611,-3.21 4.625,-2.67l23.488,6.294c2.014,0.54 3.209,2.61 2.67,4.624l-19.818,73.958l-0.015,0.052c-0.171,0.56 -0.462,1.052 -0.836,1.457l-17.988,20.285c-0.948,1.07 -2.421,1.512 -3.802,1.142c-1.382,-0.37 -2.435,-1.489 -2.722,-2.89l-5.436,-26.561c-0.121,-0.538 -0.126,-1.11 0.006,-1.68l0.03,-0.124Zm-2.564,25.99l0.786,3.844c0.252,1.228 0.704,2.383 1.378,3.394l-46.809,12.543c-2.013,0.539 -4.085,-0.657 -4.624,-2.67c-0.54,-2.013 0.657,-4.086 2.67,-4.625l46.599,-12.486Zm13.849,-6.538l8.973,-10.119l-11.685,-3.131l2.712,13.25Zm26.525,-9.13l0.015,-0.053c-0.018,0.063 -0.015,0.053 -0.015,0.053Zm0.029,-0.102l0.004,-0.014c-0.008,0.026 -0.004,0.014 -0.004,0.014Zm0.009,-0.035l0.022,-0.08c-0.023,0.084 -0.022,0.08 -0.022,0.08Zm-29.574,-11.882l16.192,4.339l17.843,-66.588l-16.193,-4.339l-17.842,66.588Zm-15.556,1.138c-0.257,1.33 -0.191,2.688 0.101,3.98l0.739,3.613l-47.72,12.787c-2.013,0.539 -4.085,-0.657 -4.625,-2.67c-0.539,-2.013 0.657,-4.085 2.67,-4.625l48.835,-13.085Zm0.171,-1.204l-0.014,0.056c0.016,-0.063 0.014,-0.056 0.014,-0.056Zm7.778,-29.031l-2.257,8.423l-59.598,15.97c-2.013,0.539 -4.086,-0.657 -4.625,-2.67c-0.539,-2.013 0.657,-4.086 2.67,-4.625l63.81,-17.098Zm-69.08,-2.569l71.431,-19.139c2.013,-0.54 3.209,-2.612 2.67,-4.625c-0.54,-2.013 -2.612,-3.209 -4.625,-2.67l-71.43,19.14c-2.013,0.539 -3.21,2.611 -2.67,4.624c0.539,2.013 2.611,3.21 4.624,2.67Z" style="fill:#bb0e0e;"/></svg>