<?xml version="1.0" encoding="UTF-8" standalone="no"?><!DOCTYPE svg PUBLIC "-//W3C//DTD SVG 1.1//EN" "http://www.w3.org/Graphics/SVG/1.1/DTD/svg11.dtd"><svg width="100%" height="100%" viewBox="0 0 128 128" version="1.1" xmlns="http://www.w3.org/2000/svg" xmlns:xlink="http://www.w3.org/1999/xlink" xml:space="preserve" xmlns:serif="http://www.serif.com/" style="fill-rule:evenodd;clip-rule:evenodd;stroke-linejoin:round;stroke-miterlimit:2;"><path id="ui-icon-bag" d="M40.383,47.714c0.023,0.094 0.046,0.187 0.07,0.281l0.041,0.155l0.004,0.015l0.691,1.824c-3.718,4.935 -5.877,10.987 -5.958,17.324c-1.905,2.122 -3.087,4.838 -3.251,7.731c0.177,-2.889 1.35,-5.607 3.251,-7.731c-0.052,1.375 0.004,2.763 0.166,4.157l0.804,4.187l0.509,1.575l0.015,-0.001l0.158,0.972l5.564,20.762l0.349,0.921l-0.342,0.17l0.342,-0.17c0.371,0.961 0.908,1.82 1.584,2.537l-0.012,-0.012c2.019,2.273 5.22,3.329 8.357,2.489l41.56,-11.136c3.081,-0.826 5.301,-3.267 5.956,-6.178c0.268,-0.995 0.332,-2.052 0.14,-3.11l0.34,-0.022l7.21,-1.932c1.153,-0.308 1.838,-1.495 1.529,-2.648l-4.996,-18.644c-0.308,-1.153 -1.495,-1.838 -2.648,-1.529l-2.963,0.794l-0.33,-1.537l-0.483,-1.496l2.963,-0.794c2.827,-0.758 5.737,0.922 6.494,3.749c0,-0 4.996,18.644 4.996,18.644c0.757,2.827 -0.923,5.737 -3.749,6.494l-3.614,0.969c-0.305,5.444 -4.069,10.3 -9.626,11.789c0,-0 -41.56,11.136 -41.56,11.136c-5.578,1.494 -11.287,-0.852 -14.264,-5.45l-3.973,1.065c-2.794,0.749 -5.672,-0.913 -6.42,-3.707c-0,-0 -4.996,-18.645 -4.996,-18.645c-0.749,-2.795 0.912,-5.672 3.707,-6.421l3.337,-0.894l0.317,1.479l-0.295,-1.485c-2.626,-11.505 0.916,-23.085 8.544,-31.162c-0.435,-8.571 5.153,-16.581 13.777,-18.892c8.624,-2.311 17.469,1.832 21.378,9.472c10.626,3.176 19.472,11.411 22.961,22.659l0.506,1.49l0.369,1.719l-0.067,-0.175l-0.013,0.003l0.08,0.172c1.206,5.549 0.995,11.107 -0.424,16.273c1.437,-5.168 1.661,-10.729 0.424,-16.273l0.313,0.827c0,-0 5.564,20.762 5.564,20.762l0.172,1.058l-4.22,1.13l-0.34,0.022l-0.162,-0.991l-5.563,-20.762l-0.356,-0.939l0.017,-0.008l-0.343,-1.599l-0.475,-1.431l0.046,-0.023c-0.723,-2.24 -1.695,-4.338 -2.902,-6.257c-3.239,-5.448 -8.135,-9.61 -13.823,-12.025l-2.004,-0.801l-0.802,-0.234c-5.227,-1.674 -10.977,-1.9 -16.667,-0.376c-5.69,1.525 -10.556,4.596 -14.246,8.659l-0.577,0.604l-1.335,1.696l-0.691,-1.824l-0.15,-0.613l-0.06,-0.279l-0.24,-1.355l-0.019,-0.119l0.006,0.046l0.013,0.073l0.065,0.408l0.167,0.914l0.008,0.033l0.019,0.112l0.041,0.167l0.035,0.162l0.003,0.013l-0.011,-0.046l0.008,0.033Zm33.637,53.645l0.006,-0.001c-0.002,0 -0.004,0.001 -0.006,0.001Zm-0.049,0.013l0.017,-0.004l-0.017,0.004Zm-0.038,0.011l0.003,-0.001c-0.001,0 -0.002,0 -0.003,0.001Zm-0.047,0.012l0.009,-0.002c-0.003,0 -0.006,0.001 -0.009,0.002Zm-0.021,0.005l0.012,-0.003c-0.004,0.001 -0.008,0.002 -0.012,0.003Zm-0.008,0.003l0.003,-0.001c-0.001,0 -0.002,0 -0.003,0.001Zm-0.094,0.024l0.003,-0.001c-0.001,0 -0.002,0.001 -0.003,0.001Zm-0.429,0.108l0.005,-0.001l-0.005,0.001Zm-0.024,0.006l-0.003,0.001l0.003,-0.001Zm-0.087,0.021l0.005,-0.001l-0.005,0.001Zm-0.024,0.006l0.021,-0.005c-0.007,0.002 -0.014,0.003 -0.021,0.005Zm-0.017,0.004l0.006,-0.001c-0.002,0 -0.004,0.001 -0.006,0.001Zm1.729,-0.463l-0.003,0c0.001,0 0.002,-0 0.003,-0Zm-1.77,0.473l0.003,-0.001c-0.001,0.001 -0.002,0.001 -0.003,0.001Zm-0.012,0.003l0.006,-0.001c-0.002,-0 -0.004,0 -0.006,0.001Zm1.852,-0.497l0.002,-0.001l-0.002,0.001Zm-1.943,0.518l0.003,-0l-0.003,0Zm2.121,-0.571l-0.054,0.016l0.054,-0.016Zm-2.208,0.592l0.009,-0.002c-0.003,0.001 -0.006,0.001 -0.009,0.002Zm2.237,-0.601l0.002,-0.001l-0.002,0.001Zm0.068,-0.021l-0.002,0.001c0,-0.001 0.001,-0.001 0.002,-0.001Zm-2.492,0.665l0.011,-0.002c-0.004,0 -0.007,0.001 -0.011,0.002Zm2.761,-0.749l-0.219,0.068l0.219,-0.068Zm-2.832,0.765l0.021,-0.004l-0.021,0.004Zm-0.026,0.006l0.006,-0.001l-0.006,0.001Zm2.79,-0.749l-0.003,0c0.001,0 0.002,-0 0.003,-0Zm-2.842,0.761l0.002,-0.001c-0.001,0 -0.001,0.001 -0.002,0.001Zm2.853,-0.765l-0.005,0.002l0.005,-0.002Zm-2.871,0.769l0.006,-0.001l-0.006,0.001Zm-0.041,0.009l0.006,-0.001l-0.006,0.001Zm3.004,-0.807l0.002,-0.001l-0.002,0.001Zm-3.127,0.834l0.035,-0.008c-0.011,0.003 -0.023,0.005 -0.035,0.008Zm3.241,-0.87l-0.003,0.001c0.001,-0.001 0.002,-0.001 0.003,-0.001Zm-3.326,0.888l0.018,-0.004c-0.006,0.002 -0.012,0.003 -0.018,0.004Zm-0.011,0.003l0.006,-0.002l-0.006,0.002Zm-0.063,0.013l0.004,-0.001l-0.004,0.001Zm-0.127,0.027l0.006,-0.001l-0.006,0.001Zm-0.038,0.008l-0.002,0l0.002,-0Zm-0.021,0.004l0.006,-0.001c-0.002,0 -0.004,0.001 -0.006,0.001Zm-0.011,0.003l0.002,-0.001c-0,0 -0.001,0 -0.002,0.001Zm4.045,-1.093l-0.002,0l0.002,-0Zm-4.288,1.142l-0.003,0l0.003,-0Zm-0.038,0.007l-0.002,0.001l0.002,-0.001Zm-0.021,0.004l0.003,-0c-0.001,0 -0.002,0 -0.003,0Zm-0.096,0.019l0.032,-0.006c-0.011,0.002 -0.021,0.004 -0.032,0.006Zm-0.032,0.007l0.023,-0.005c-0.008,0.002 -0.015,0.003 -0.023,0.005Zm4.769,-1.279l-0.003,0.001c0.001,-0.001 0.002,-0.001 0.003,-0.001Zm-4.834,1.291l0.021,-0.004c-0.007,0.001 -0.014,0.003 -0.021,0.004Zm-0.023,0.004l0.018,-0.003c-0.006,0.001 -0.012,0.002 -0.018,0.003Zm-0.14,0.027l0.128,-0.024l-0.128,0.024Zm-0.141,0.026l-0.003,0l0.003,-0Zm-0.067,0.012l0.062,-0.011c-0.021,0.004 -0.041,0.007 -0.062,0.011Zm-0.082,0.015l0.03,-0.006c-0.01,0.002 -0.02,0.004 -0.03,0.006Zm-0.21,0.036l0.161,-0.028c-0.054,0.01 -0.108,0.019 -0.161,0.028Zm-0.029,0.005l0.023,-0.004c-0.008,0.002 -0.016,0.003 -0.023,0.004Zm-0.179,0.03l0.144,-0.024c-0.048,0.008 -0.096,0.016 -0.144,0.024Zm-0.423,0.067l0.23,-0.036l-0.23,0.036Zm-1.977,0.241c0.109,-0.01 0.218,-0.02 0.328,-0.031c0.359,-0.037 0.718,-0.079 1.076,-0.128l0.567,-0.081l-0.567,0.081c-0.358,0.049 -0.717,0.091 -1.076,0.128c-0.11,0.011 -0.219,0.021 -0.328,0.031Zm-4.552,0.105c-0.261,-0.012 -0.522,-0.027 -0.783,-0.045l-0.605,-0.049l0.605,0.049c0.261,0.018 0.522,0.033 0.783,0.045Zm-1.519,-0.106l0.119,0.011c-0.04,-0.004 -0.079,-0.007 -0.119,-0.011Zm22.466,-5.985l-0.002,0.002l0.002,-0.002Zm-22.489,5.983l0.014,0.001c-0.005,-0 -0.009,-0.001 -0.014,-0.001Zm-0.009,-0.001l0.003,0c-0.001,0 -0.002,0 -0.003,0Zm-0.022,-0.002l0.014,0.001c-0.005,-0 -0.01,-0.001 -0.014,-0.001Zm-0.012,-0.001l-0.002,-0l0.002,-0Zm-0.013,-0.001l0.005,0l-0.005,-0Zm-30.044,-24.058l-3.337,0.894c-1.185,0.317 -1.889,1.537 -1.571,2.721c-0,0 4.995,18.645 4.995,18.645c0.318,1.184 1.537,1.888 2.722,1.571l3.373,-0.904l-0.402,-1.058c0,0 -5.563,-20.762 -5.563,-20.762l-0.142,-0.873l-0.021,-0.249l-0.018,0.005l0.039,0.244l-0.075,-0.234Zm58.655,-5.623c-0.734,-2.74 -3.555,-4.369 -6.295,-3.635c-0,0 -35.582,9.534 -35.582,9.534c-2.74,0.734 -4.369,3.556 -3.634,6.296c-0,-0 2.186,8.162 2.186,8.162c0.735,2.74 3.556,4.369 6.296,3.635c0,-0 35.581,-9.534 35.581,-9.534c2.741,-0.735 4.37,-3.556 3.635,-6.296c0,-0 -2.187,-8.162 -2.187,-8.162Zm-1.769,0.474l2.187,8.162c0.473,1.764 -0.576,3.58 -2.34,4.053c0,-0 -35.581,9.533 -35.581,9.533c-1.764,0.473 -3.58,-0.575 -4.052,-2.339c-0,-0 -2.187,-8.162 -2.187,-8.162c-0.473,-1.764 0.575,-3.58 2.34,-4.053c-0,0 35.581,-9.534 35.581,-9.534c1.764,-0.472 3.58,0.576 4.052,2.34Zm4.971,-12.989c-0.131,-0.487 -0.272,-0.968 -0.426,-1.443l0.426,1.443Zm-31.483,-2.01c2.489,-0.667 5.051,0.812 5.718,3.301c0.667,2.489 -0.812,5.052 -3.302,5.719c-2.489,0.667 -5.051,-0.813 -5.718,-3.302c-0.667,-2.489 0.812,-5.052 3.302,-5.718Zm-16.648,-5.004l-0.017,-0.026c3.077,-4.177 7.561,-7.324 12.952,-8.769c5.391,-1.444 10.848,-0.961 15.6,1.118l2.428,1.108l0.527,0.294c0.343,0.197 0.681,0.402 1.013,0.615c0.353,0.227 0.7,0.463 1.04,0.709c0.346,0.248 0.684,0.507 1.014,0.774c0.318,0.257 0.629,0.523 0.932,0.797c0.306,0.276 0.604,0.561 0.894,0.854c0.305,0.309 0.601,0.626 0.887,0.952l0.49,0.578l0.561,0.573l2.446,3.798c-0.737,-0.042 -1.487,0.051 -2.232,0.251l-0.6,0.16l-1.438,-2.298l-1.643,-1.752c-1.296,-1.479 -2.844,-2.693 -4.526,-3.68l-0.204,-0.146l-2.198,-1.003l0.607,-2.528l0.001,-0.032l-0.001,0.032l-0.607,2.528c-4.33,-2.004 -9.353,-2.504 -14.314,-1.174c-4.961,1.329 -9.061,4.273 -11.809,8.174l-1.402,1.967l-0.104,0.229c-0.963,1.696 -1.696,3.521 -2.079,5.45l-0.548,2.339l-0.096,2.709l-0.599,0.16c-0.746,0.2 -1.442,0.495 -2.059,0.899l0.219,-4.512l0.2,-0.776c0.479,-2.937 1.56,-5.721 3.102,-8.228l1.546,-2.17l0.017,0.026Zm-5.39,-5.168c0.014,0.052 0.027,0.103 0.041,0.155l0.001,0.004l-0.042,-0.162l0,0.003Zm33.506,-8.879l0.004,0.015l-0.004,-0.015Zm-30.957,8.283l0.001,0.006c-0,-0.002 -0.001,-0.004 -0.001,-0.006Zm33.475,-8.994l-0.002,-0.007l0.002,0.007Zm-33.546,8.715l0.042,0.167l-0.042,-0.167Zm30.983,-8.164l-0.001,-0.003l0.001,0.003Zm-0.004,-0.014l0.001,0.005l-0.001,-0.005Zm-0.014,-0.049l0.002,0.006l-0.002,-0.006Zm-30.999,8.083l0.004,0.017c-0.001,-0.006 -0.003,-0.012 -0.004,-0.017Zm30.935,-8.298l0.001,0.002c-0,-0.001 -0.001,-0.002 -0.001,-0.002Zm-33.521,8.726l0.033,0.146l-0.033,-0.146Zm2.552,-0.578l0.008,0.034c-0.003,-0.011 -0.006,-0.023 -0.008,-0.034Zm-0.025,-0.115l0.006,0.031c-0.002,-0.01 -0.004,-0.021 -0.006,-0.031Zm-2.803,-0.866l-0.001,-0.008l0.007,0.058l0.005,0.03l0.016,0.118l0.033,0.182l0.109,0.665c0,-0 0.105,0.506 0.105,0.506l-0.004,-0.02l-0.025,-0.136l-0.076,-0.35c0,-0 -0.091,-0.564 -0.091,-0.564l-0.018,-0.101l-0.049,-0.3l-0.011,-0.08Zm2.788,0.797l0.004,0.02c-0.001,-0.007 -0.003,-0.014 -0.004,-0.02Zm-0.04,-0.193l-0,-0.003l0,0.003Zm33.37,-9.098l-0.002,-0.006l0.002,0.006Zm-33.403,8.922l0.003,0.017l-0.003,-0.017Zm-0.038,-0.208l0.021,0.116c-0.007,-0.039 -0.014,-0.077 -0.021,-0.116Zm-0.028,-0.172l0.016,0.1c-0.005,-0.033 -0.011,-0.067 -0.016,-0.1Zm30.707,-8.474l0.004,0.011l-0.004,-0.011Zm-0.072,-0.178l0.002,0.005l-0.002,-0.005Zm-33.303,8.461l0.013,0.097l-0.016,-0.124c0,0 0.003,0.027 0.003,0.027Zm-0.017,-0.149l0.014,0.122c0,0 -0.014,-0.122 -0.014,-0.122Zm-0.011,-0.097l0.011,0.097l-0.014,-0.124c-0,-0 0.003,0.027 0.003,0.027Zm-0.025,-0.245l0.01,0.096l-0.012,-0.124c-0,-0 0.002,0.028 0.002,0.028Zm-0.056,-0.841l0.014,0.22l0.04,0.593l-0.06,-0.954l0.006,0.141Zm-0,0.009l-0.002,-0.027l0.002,0.027l0.052,0.784l-0.038,-0.573l-0.014,-0.211Zm2.599,-0.203c-0.005,-0.096 -0.008,-0.192 -0.011,-0.289c-0.01,-0.408 -0.004,-0.816 0.019,-1.223l0.077,-0.877l-0.077,0.877c-0.023,0.407 -0.029,0.815 -0.019,1.223c0.003,0.097 0.006,0.193 0.011,0.289Zm0.091,-2.439l-0.005,0.045c0.002,-0.015 0.003,-0.03 0.005,-0.045Zm28.868,-7.75l-0.048,-0.064c-3.758,-5.217 -10.484,-7.821 -17.062,-6.059c-6.577,1.762 -11.1,7.381 -11.746,13.778c3.779,-3.294 8.356,-5.777 13.519,-7.161c5.164,-1.383 10.37,-1.521 15.289,-0.558l0.048,0.064Zm-28.863,7.714l-0.003,0.019l0.003,-0.019Z" style="fill:#bb0e0e;"/></svg>