<?xml version="1.0" encoding="UTF-8" standalone="no"?>
<!DOCTYPE svg PUBLIC "-//W3C//DTD SVG 1.1//EN" "http://www.w3.org/Graphics/SVG/1.1/DTD/svg11.dtd">
<svg width="100%" height="100%" viewBox="0 0 1024 1025" version="1.1" xmlns="http://www.w3.org/2000/svg" xmlns:xlink="http://www.w3.org/1999/xlink" xml:space="preserve" xmlns:serif="http://www.serif.com/" style="fill-rule:evenodd;clip-rule:evenodd;stroke-linejoin:round;stroke-miterlimit:2;">
    <g transform="matrix(1,0,0,1,-2464,-3)">
        <g id="background" transform="matrix(1,0,0,1,-0.333333,3.13002)">
            <rect x="2464.33" y="0" width="1024" height="1024" style="fill:none;"/>
            <g transform="matrix(1,0,0,1,0.333333,0)">
                <g id="tile">
                    <rect id="tile1" serif:id="tile" x="2464" y="0" width="1024" height="1024" style="fill:rgb(80,130,255);"/>
                    <clipPath id="_clip1">
                        <rect id="tile2" serif:id="tile" x="2464" y="0" width="1024" height="1024"/>
                    </clipPath>
                    <g clip-path="url(#_clip1)">
                        <path d="M2903.66,866.896C2990.36,816.835 3101.4,846.588 3151.46,933.296C3201.53,1020 3171.77,1131.04 3085.06,1181.1C2998.36,1231.16 2887.32,1201.41 2837.26,1114.7C2787.2,1028 2816.95,916.957 2903.66,866.896ZM3093.25,1130.65L3069.89,1090.2C3062.84,1098.25 3054.36,1105.31 3044.57,1110.96C3034.78,1116.62 3024.43,1120.43 3013.92,1122.51L3037.28,1162.97C2973.86,1182.59 2903,1156.6 2868.42,1096.71C2833.85,1036.82 2846.77,962.457 2895.47,917.347L2918.83,957.803C2925.88,949.746 2934.36,942.689 2944.15,937.036C2953.94,931.383 2964.29,927.568 2974.8,925.488L2951.44,885.031C3014.86,865.409 3085.72,891.403 3120.3,951.29C3154.87,1011.18 3141.95,1085.54 3093.25,1130.65ZM2656.13,704.533C2668.87,703.688 2681.96,704.886 2694.98,708.374C2708,711.863 2719.94,717.373 2730.55,724.474L2714.83,783.126C2727.4,798.79 2732.6,820.021 2727.01,840.884C2721.42,861.748 2706.3,877.533 2687.59,884.815L2671.87,943.467C2659.13,944.312 2646.04,943.114 2633.02,939.626C2620,936.137 2608.06,930.627 2597.45,923.526L2613.17,864.874C2600.6,849.21 2595.4,827.979 2600.99,807.116C2606.58,786.252 2621.7,770.467 2640.41,763.185L2656.13,704.533ZM3168.53,831.87C3167.69,819.133 3168.89,806.037 3172.37,793.018C3175.86,780 3181.37,768.059 3188.47,757.451L3247.13,773.167C3262.79,760.599 3284.02,755.397 3304.88,760.987C3325.75,766.577 3341.53,781.698 3348.82,800.414L3407.47,816.13C3408.31,828.867 3407.11,841.963 3403.63,854.982C3400.14,868 3394.63,879.941 3387.53,890.549L3328.87,874.833C3313.21,887.401 3291.98,892.603 3271.12,887.013C3250.25,881.423 3234.47,866.302 3227.18,847.586L3168.53,831.87ZM3068.71,721.453C3071.44,720.401 3074.15,719.294 3076.83,718.135C3079.76,716.868 3082.66,715.536 3085.54,714.143L3085.55,714.138C3088.29,712.809 3091,711.425 3093.67,709.986C3094.41,709.589 3095.15,709.185 3095.89,708.777C3096.47,708.461 3097.04,708.142 3097.61,707.82C3098.33,707.414 3099.05,707.003 3099.76,706.589L3100.08,706.405C3101.05,705.839 3102.03,705.264 3102.99,704.682L3104.05,704.043C3105.5,703.156 3106.95,702.249 3108.39,701.326C3109.28,700.757 3110.16,700.184 3111.03,699.604C3111.53,699.275 3112.03,698.94 3112.53,698.603C3112.75,698.452 3112.98,698.298 3113.21,698.144C3113.77,697.761 3114.33,697.376 3114.89,696.99L3116.26,696.031C3116.76,695.679 3117.26,695.327 3117.75,694.973C3118.22,694.637 3118.68,694.299 3119.15,693.959L3120,693.338C3120.41,693.038 3120.81,692.735 3121.22,692.43C3123.52,690.716 3125.78,688.957 3128,687.154L3128.23,686.967C3129.32,686.086 3130.4,685.191 3131.47,684.285C3131.86,683.956 3132.25,683.627 3132.63,683.297L3133.81,682.286C3134.03,682.091 3134.25,681.897 3134.47,681.702C3135.14,681.116 3135.81,680.53 3136.46,679.941C3137.11,679.356 3137.77,678.763 3138.42,678.166C3138.95,677.672 3139.49,677.174 3140.02,676.673L3140.33,676.386C3141.78,675.015 3143.22,673.626 3144.64,672.216L3145.44,671.411L3145.88,670.976C3146.4,670.447 3146.92,669.92 3147.43,669.39L3147.78,669.029C3148.05,668.751 3148.31,668.476 3148.58,668.2C3148.74,668.028 3148.9,667.858 3149.06,667.689C3149.88,666.83 3150.68,665.968 3151.48,665.1L3152.36,664.135C3152.71,663.752 3153.05,663.373 3153.39,662.992C3156.72,659.276 3159.93,655.441 3163.01,651.487L3163.9,650.329C3164.73,649.25 3165.55,648.169 3166.35,647.079C3169.81,642.408 3173.1,637.576 3176.2,632.595L3175.74,631.843L3175.34,631.178L3175.09,630.737L3174.66,629.99L3174.28,629.318L3173.91,628.655L3173.51,627.908L3173.16,627.234L3172.71,626.342L3172.35,625.597L3172.02,624.924L3171.59,623.986L3171.28,623.283L3170.89,622.381L3170.69,621.907L3170.31,620.963L3170.22,620.737C3170.06,620.351 3169.92,619.964 3169.77,619.577L3169.51,618.865C3169.29,618.242 3169.08,617.618 3168.88,616.993L3168.88,616.992C3168.01,614.329 3167.34,611.655 3166.87,608.969L3166.7,608.012L3166.63,607.541L3166.55,607.022L3166.45,606.308L3166.37,605.618C3174.54,597.232 3182.1,587.973 3188.88,577.877C3235.07,509.055 3231.46,421.286 3188.93,369.916C3186.7,395.581 3180.5,424.947 3169.78,455.07L3169.5,454.287L3169.19,453.348C3169.03,452.861 3168.88,452.375 3168.73,451.89L3168.66,451.643C3167.51,447.811 3166.73,444.003 3166.32,440.218C3166.29,439.956 3166.26,439.693 3166.24,439.43L3166.2,439.076C3166.18,438.808 3166.16,438.54 3166.14,438.273C3166.12,438.013 3166.1,437.753 3166.08,437.494C3166.07,437.26 3166.06,437.028 3166.04,436.796C3166.01,436.129 3165.99,435.464 3165.98,434.799L3165.97,434.46C3165.93,430.613 3166.27,426.789 3167,422.99L3167.09,422.512C3167.2,421.964 3167.32,421.415 3167.44,420.866L3167.61,420.143C3167.71,419.752 3167.81,419.363 3167.91,418.973L3168.17,418.012L3168.23,417.784C3168.32,417.473 3168.41,417.164 3168.51,416.855L3168.73,416.116L3168.88,415.66L3169.11,414.968L3169.36,414.225L3169.61,413.542L3169.77,413.092L3169.96,412.584L3170.24,411.88L3170.51,411.205L3170.69,410.752L3171.01,409.999L3171.3,409.322L3171.5,408.876L3171.84,408.126L3172.16,407.445L3172.49,406.776L3172.86,406.028L3173.27,405.218L3173.55,404.683L3173.82,404.189L3174.2,403.483L3174.6,402.773L3174.83,402.374L3175.26,401.623L3175.66,400.954L3176.2,400.071C3151.24,360.007 3114.47,329.653 3071.89,312.466L3071.82,312.439C3070.01,311.71 3068.19,311.005 3066.37,310.323L3065.97,310.178C3065.41,309.969 3064.84,309.762 3064.28,309.557C3061.29,308.48 3058.28,307.465 3055.25,306.515L3054.7,306.346C3053.56,305.992 3052.41,305.647 3051.27,305.312L3050.77,305.167C3050.13,304.982 3049.49,304.799 3048.85,304.619C3046.62,303.997 3044.38,303.408 3042.12,302.853C3041.39,302.673 3040.66,302.496 3039.92,302.322L3038.66,302.031C3037.56,301.78 3036.47,301.538 3035.37,301.304L3034.13,301.044C3033.96,301.01 3033.79,300.975 3033.62,300.94C3033.14,300.841 3032.64,300.742 3032.15,300.646C3031.85,300.586 3031.54,300.526 3031.23,300.466C3030.34,300.295 3029.45,300.128 3028.55,299.966L3028.29,299.921C3026.56,299.611 3024.82,299.322 3023.08,299.054L3021.64,298.837L3020.38,298.655C3019.55,298.538 3018.7,298.423 3017.86,298.314C3016.76,298.172 3015.67,298.039 3014.57,297.914C3013.87,297.834 3013.16,297.756 3012.45,297.682C3010.83,297.514 3009.22,297.363 3007.6,297.231L3006.18,297.119C3005.64,297.078 3005.08,297.038 3004.53,297.001L3003.89,296.959C3003.06,296.904 3002.22,296.855 3001.39,296.81C3000.92,296.785 3000.47,296.762 3000.02,296.741L2999.51,296.718C2998.68,296.68 2997.85,296.647 2997.02,296.619L2996.59,297.393L2996.22,298.069L2995.96,298.514L2995.53,299.26L2995.14,299.922L2994.75,300.569L2994.3,301.288L2993.89,301.929L2993.35,302.767L2992.88,303.456L2992.46,304.071L2991.87,304.916L2991.41,305.539L2990.83,306.328L2990.51,306.737L2989.89,307.54L2989.74,307.73C2989.48,308.055 2989.22,308.376 2988.95,308.694L2988.47,309.275C2988.04,309.78 2987.61,310.276 2987.17,310.763L2987.17,310.764C2985.29,312.841 2983.31,314.759 2981.22,316.516L2980.47,317.134L2980.1,317.434L2979.69,317.76L2979.12,318.202L2978.57,318.621C2967.22,315.74 2955.42,313.821 2943.29,313C2860.59,307.402 2786.38,354.413 2763.16,416.932C2786.51,406.036 2815.03,396.716 2846.49,390.946L2845.95,391.572L2845.29,392.314C2844.95,392.695 2844.6,393.07 2844.26,393.441L2844.08,393.628C2843.48,394.264 2842.87,394.884 2842.25,395.489L2842,395.74C2838.15,399.475 2834,402.601 2829.55,405.119C2829.41,405.198 2829.27,405.276 2829.13,405.353C2828.78,405.545 2828.44,405.731 2828.09,405.914C2827.97,405.981 2827.84,406.047 2827.71,406.113C2826.91,406.526 2826.11,406.921 2825.29,407.297L2824.49,407.66C2824.27,407.755 2824.06,407.849 2823.84,407.942L2823.46,408.102L2822.73,408.404L2821.9,408.729L2821.18,409.002C2820.82,409.136 2820.46,409.266 2820.09,409.392L2819.63,409.55C2819.1,409.73 2818.57,409.903 2818.03,410.068L2817.32,410.282C2816.93,410.396 2816.55,410.506 2816.16,410.612L2815.2,410.866L2814.97,410.924C2814.65,411.003 2814.34,411.079 2814.03,411.152L2813.51,411.272L2812.57,411.476L2812.09,411.574L2811.56,411.679L2810.84,411.813L2809.89,411.979L2809.1,412.106L2808.37,412.212L2807.89,412.279L2807.35,412.35L2806.59,412.442L2805.86,412.522L2805.06,412.601L2804.3,412.669L2803.55,412.726L2803.06,412.76L2802.22,412.81L2801.31,412.852L2800.71,412.875L2799.85,412.899L2799.09,412.912L2798.32,412.918L2797.46,412.916L2796.68,412.906L2795.64,412.881C2775.98,449.755 2767.53,490.835 2770.29,531.327C2770.43,533.264 2770.58,535.206 2770.77,537.146C2770.82,537.702 2770.88,538.264 2770.93,538.826C2770.96,539.093 2770.99,539.365 2771.02,539.636C2771.06,540.053 2771.11,540.467 2771.16,540.881C2771.7,545.765 2772.42,550.637 2773.29,555.486C2773.52,556.716 2773.75,557.947 2773.99,559.177L2774.22,560.278C2774.33,560.856 2774.45,561.426 2774.57,561.996L2774.76,562.864L2775.09,564.374C2775.39,565.722 2775.71,567.068 2776.04,568.411C2776.11,568.728 2776.19,569.052 2776.27,569.375L2776.45,570.086C2776.66,570.9 2776.87,571.713 2777.08,572.525C2777.16,572.807 2777.23,573.084 2777.3,573.361C2779.32,580.855 2781.73,588.263 2784.55,595.556C2785.49,597.997 2786.48,600.425 2787.52,602.839L2787.69,603.236C2788.01,603.983 2788.33,604.723 2788.66,605.462L2788.8,605.783C2789.05,606.348 2789.31,606.919 2789.57,607.49C2789.75,607.891 2789.93,608.284 2790.12,608.677C2790.27,609.004 2790.42,609.329 2790.57,609.654C2792.17,613.065 2793.86,616.442 2795.64,619.785L2796.53,619.763L2797.3,619.752L2797.81,619.748L2798.67,619.75L2799.44,619.759L2800.2,619.776L2801.05,619.803L2801.8,619.836L2802.8,619.89L2803.63,619.946L2804.38,620.004L2805.41,620.097L2806.17,620.177L2807.15,620.29L2807.66,620.356L2808.66,620.496L2808.94,620.536C2809.33,620.596 2809.72,620.659 2810.11,620.725L2810.88,620.859C2811.53,620.977 2812.18,621.105 2812.82,621.242L2812.82,621.243C2815.56,621.828 2818.21,622.585 2820.77,623.514L2821.68,623.852L2822.13,624.024L2822.62,624.217L2823.4,624.537L2823.92,624.76C2827.1,636.027 2831.34,647.204 2836.69,658.122C2873.2,732.542 2951.01,773.3 3016.76,762.151C2995.66,747.383 2973.32,727.336 2952.6,702.984L2953.41,703.139L2954.38,703.337C2954.88,703.443 2955.38,703.553 2955.87,703.669L2956.12,703.728C2965.98,706.068 2974.53,710.365 2981.77,716.617L2982.14,716.936C2982.56,717.305 2982.97,717.682 2983.39,718.065L2983.93,718.573C2984.22,718.851 2984.51,719.131 2984.79,719.414L2985.49,720.121L2985.66,720.291C2985.88,720.523 2986.11,720.756 2986.33,720.991L2986.69,721.381L2987.34,722.09L2987.66,722.456L2988.01,722.862L2988.49,723.418L2989.11,724.162L2989.62,724.785L2990.07,725.358L2990.37,725.739L2990.7,726.177L2991.16,726.785L2991.6,727.378L2991.88,727.776L2992.36,728.456L2992.79,729.07L2993.07,729.48L2993.53,730.175L2993.94,730.815L2994.35,731.45L2994.64,731.926L2995.06,732.612L2995.45,733.268L2995.71,733.707L2996.14,734.46L2996.52,735.14L2997.02,736.047C3000.22,735.939 3003.41,735.762 3006.59,735.516L3008.03,735.4C3008.24,735.382 3008.44,735.364 3008.65,735.346C3009.58,735.266 3010.5,735.18 3011.42,735.089L3012.6,734.968C3013.61,734.861 3014.63,734.748 3015.64,734.627L3017.01,734.459C3017.95,734.342 3018.88,734.219 3019.81,734.091L3021.22,733.89C3021.8,733.807 3022.37,733.721 3022.94,733.633L3023.35,733.571C3025.85,733.183 3028.34,732.752 3030.82,732.28C3033.3,731.805 3035.78,731.288 3038.25,730.729C3040.21,730.284 3042.16,729.813 3044.11,729.316C3044.34,729.257 3044.56,729.198 3044.79,729.14C3045.34,728.997 3045.89,728.851 3046.44,728.704C3048.13,728.253 3049.81,727.782 3051.48,727.291L3052.71,726.927C3053.21,726.777 3053.72,726.624 3054.22,726.469C3054.64,726.341 3055.05,726.211 3055.47,726.08C3056.47,725.765 3057.47,725.443 3058.47,725.115L3058.49,725.107C3059.41,724.804 3060.33,724.494 3061.25,724.178L3062.19,723.851C3063.06,723.547 3063.93,723.237 3064.8,722.921C3065.45,722.682 3066.1,722.441 3066.76,722.196C3067.41,721.951 3068.06,721.704 3068.71,721.453ZM3633.61,448.071C3647.84,472.715 3637.93,512.402 3637.91,512.404C3650.22,510.784 3663.63,526.329 3650.41,575.658C3643.05,603.146 3607.97,624.2 3607.96,624.189C3617.81,631.748 3616.3,652.219 3572.07,677.754C3547.43,691.983 3507.74,682.071 3507.74,682.053C3509.36,694.364 3493.81,707.769 3444.48,694.551C3416.99,687.186 3395.94,652.115 3395.95,652.1C3388.39,661.952 3367.92,660.439 3342.39,616.211C3328.16,591.566 3338.07,551.879 3338.09,551.877C3325.78,553.498 3312.37,537.953 3325.59,488.623C3332.95,461.135 3368.03,440.081 3368.04,440.093C3358.19,432.533 3359.7,412.062 3403.93,386.527C3428.58,372.299 3468.26,382.21 3468.26,382.229C3466.64,369.917 3482.19,356.512 3531.52,369.73C3559.01,377.095 3580.06,412.166 3580.05,412.181C3587.61,402.33 3608.08,403.843 3633.61,448.071ZM2609.61,448.071C2623.84,472.715 2613.93,512.402 2613.91,512.404C2626.22,510.784 2639.63,526.329 2626.41,575.658C2619.05,603.146 2583.97,624.2 2583.96,624.189C2593.81,631.748 2592.3,652.219 2548.07,677.754C2523.43,691.983 2483.74,682.071 2483.74,682.053C2485.36,694.364 2469.81,707.769 2420.48,694.551C2392.99,687.186 2371.94,652.115 2371.95,652.1C2364.39,661.952 2343.92,660.439 2318.39,616.211C2304.16,591.566 2314.07,551.879 2314.09,551.877C2301.78,553.498 2288.37,537.953 2301.59,488.623C2308.95,461.135 2344.03,440.081 2344.04,440.093C2334.19,432.533 2335.7,412.062 2379.93,386.527C2404.58,372.299 2444.26,382.21 2444.26,382.229C2442.64,369.917 2458.19,356.512 2507.52,369.73C2535.01,377.095 2556.06,412.166 2556.05,412.181C2563.61,402.33 2584.08,403.843 2609.61,448.071ZM3083.13,441.647L3091.72,426.765C3082.19,415.886 3070.74,406.356 3057.52,398.723C3044.3,391.089 3030.32,385.939 3016.14,383.13L3007.55,398.012C3001.96,397.161 2996.31,396.703 2990.64,396.647C2990.29,396.644 2989.96,396.643 2989.62,396.643C2989.2,396.643 2988.79,396.645 2988.37,396.649C2968.23,396.885 2948.41,402.199 2930.86,412.062C2930.5,412.264 2930.14,412.47 2929.78,412.678C2929.41,412.886 2929.05,413.096 2928.69,413.31C2911.38,423.58 2896.87,438.091 2886.6,455.406C2886.38,455.769 2886.17,456.127 2885.97,456.488C2885.76,456.849 2885.55,457.211 2885.35,457.574C2875.48,475.127 2870.17,494.95 2869.94,515.081C2869.93,515.501 2869.93,515.917 2869.93,516.333C2869.93,516.677 2869.93,517.02 2869.93,517.361C2870,523.91 2870.6,530.427 2871.72,536.845C2872.38,540.074 2873.08,543.318 2873.84,546.572C2876.45,556.574 2880.35,566.238 2885.46,575.294C2885.63,575.594 2885.8,575.886 2885.97,576.178C2886.17,576.539 2886.38,576.897 2886.6,577.26C2889.45,582.073 2892.63,586.669 2896.11,591.019L2887.73,605.535C2897.26,616.414 2908.71,625.944 2921.93,633.577C2935.15,641.211 2949.13,646.361 2963.31,649.17L2971.69,634.655C2977.2,635.493 2982.77,635.951 2988.37,636.017C2988.79,636.021 2989.2,636.023 2989.62,636.023C2990.04,636.023 2990.45,636.021 2990.87,636.017C3011,635.781 3030.83,630.469 3048.38,620.608C3048.74,620.402 3049.11,620.196 3049.47,619.988C3049.76,619.816 3050.06,619.643 3050.35,619.47C3055.99,616.14 3061.34,612.36 3066.33,608.181C3068.8,605.996 3071.26,603.763 3073.7,601.485C3081.05,594.221 3087.47,586.013 3092.76,577.057C3092.94,576.761 3093.11,576.47 3093.28,576.178C3093.48,575.818 3093.69,575.457 3093.89,575.09C3103.76,557.534 3109.07,537.707 3109.3,517.577C3109.31,517.165 3109.31,516.749 3109.31,516.333C3109.31,515.917 3109.31,515.501 3109.3,515.081C3109.07,494.949 3103.76,475.127 3093.89,457.576C3093.69,457.209 3093.48,456.848 3093.28,456.488C3093.07,456.127 3092.86,455.767 3092.64,455.409C3089.79,450.594 3086.61,445.997 3083.13,441.647ZM3559.84,525.251C3562.42,552.505 3549.31,580.061 3524.08,594.631C3498.84,609.2 3468.43,606.774 3446.12,590.908L3426.64,602.15C3419.18,595.612 3412.64,587.753 3407.4,578.677C3402.16,569.602 3398.62,560.007 3396.69,550.271L3416.16,539.03C3413.58,511.776 3426.69,484.221 3451.92,469.651C3477.16,455.081 3507.57,457.508 3529.88,473.373L3549.36,462.132C3556.82,468.67 3563.36,476.529 3568.6,485.604C3573.84,494.679 3577.38,504.274 3579.31,514.01L3559.84,525.251ZM2535.84,525.251C2538.42,552.505 2525.31,580.061 2500.08,594.631C2474.84,609.2 2444.43,606.774 2422.12,590.908L2402.64,602.15C2395.18,595.612 2388.64,587.753 2383.4,578.677C2378.16,569.602 2374.62,560.007 2372.69,550.271L2392.16,539.03C2389.58,511.776 2402.69,484.221 2427.92,469.651C2453.16,455.081 2483.57,457.508 2505.88,473.373L2525.36,462.132C2532.82,468.67 2539.36,476.529 2544.6,485.604C2549.84,494.679 2553.38,504.274 2555.31,514.01L2535.84,525.251ZM3280.13,80.533C3292.87,79.688 3305.96,80.886 3318.98,84.374C3332,87.863 3343.94,93.373 3354.55,100.474L3338.83,159.126C3351.4,174.79 3356.6,196.021 3351.01,216.884C3345.42,237.748 3330.3,253.533 3311.59,260.815L3295.87,319.467C3283.13,320.312 3270.04,319.114 3257.02,315.626C3244,312.137 3232.06,306.627 3221.45,299.526L3237.17,240.874C3224.6,225.21 3219.4,203.979 3224.99,183.116C3230.58,162.252 3245.7,146.467 3264.41,139.185L3280.13,80.533ZM2544.53,207.87C2543.69,195.133 2544.89,182.037 2548.37,169.018C2551.86,156 2557.37,144.059 2564.47,133.451L2623.13,149.167C2638.79,136.599 2660.02,131.397 2680.88,136.987C2701.75,142.577 2717.53,157.698 2724.82,176.414L2783.47,192.13C2784.31,204.867 2783.11,217.963 2779.63,230.982C2776.14,244 2770.63,255.941 2763.53,266.549L2704.87,250.833C2689.21,263.401 2667.98,268.603 2647.12,263.013C2626.25,257.423 2610.47,242.302 2603.18,223.586L2544.53,207.87ZM2903.66,-157.104C2990.36,-207.165 3101.4,-177.412 3151.46,-90.704C3201.53,-3.996 3171.77,107.043 3085.06,157.104C2998.36,207.165 2887.32,177.412 2837.26,90.704C2787.2,3.996 2816.95,-107.043 2903.66,-157.104ZM3093.25,106.653L3069.89,66.197C3062.84,74.254 3054.36,81.311 3044.57,86.964C3034.78,92.617 3024.43,96.432 3013.92,98.512L3037.28,138.969C2973.86,158.591 2903,132.597 2868.42,72.71C2833.85,12.823 2846.77,-61.543 2895.47,-106.653L2918.83,-66.197C2925.88,-74.254 2934.36,-81.311 2944.15,-86.964C2953.94,-92.617 2964.29,-96.432 2974.8,-98.512L2951.44,-138.969C3014.86,-158.591 3085.72,-132.597 3120.3,-72.71C3154.87,-12.823 3141.95,61.543 3093.25,106.653Z" style="fill:white;fill-opacity:0.1;"/>
                    </g>
                </g>
            </g>
        </g>
    </g>
</svg>
