<?xml version="1.0" encoding="UTF-8" standalone="no"?>
<!DOCTYPE svg PUBLIC "-//W3C//DTD SVG 1.1//EN" "http://www.w3.org/Graphics/SVG/1.1/DTD/svg11.dtd">
<svg width="100%" height="100%" viewBox="0 0 512 512" version="1.1" xmlns="http://www.w3.org/2000/svg" xmlns:xlink="http://www.w3.org/1999/xlink" xml:space="preserve" xmlns:serif="http://www.serif.com/" style="fill-rule:evenodd;clip-rule:evenodd;stroke-linecap:round;stroke-linejoin:round;stroke-miterlimit:1.5;">
    <g transform="matrix(1,0,0,1,-4208,-512)">
        <g transform="matrix(1,0,0,1,-0.333333,0)">
            <g id="ui-ghost" transform="matrix(0.738733,0,0,0.738733,-1141.05,366.492)">
                <g id="stamina" transform="matrix(0.639261,0,0,0.639261,7274.87,211.993)">
                    <g transform="matrix(3.05556,0,0,3.05556,-1052.44,-1052.44)">
                        <circle cx="512" cy="512" r="18" style="fill:white;fill-opacity:0.6;stroke:black;stroke-width:1.73px;"/>
                    </g>
                    <g transform="matrix(4.44444,0,0,4.44444,-1763.56,-1763.56)">
                        <circle cx="512" cy="512" r="18" style="fill:white;fill-opacity:0.6;stroke:black;stroke-width:1.19px;"/>
                    </g>
                    <g transform="matrix(10.5556,0,0,10.5556,-4892.44,-4892.44)">
                        <circle cx="512" cy="512" r="18" style="fill:white;fill-opacity:0.6;stroke:black;stroke-width:0.5px;"/>
                    </g>
                </g>
                <g id="defense" transform="matrix(0.639261,0,0,0.639261,7274.87,211.993)">
                    <path id="defense1" serif:id="defense" d="M512,162C575.223,162 635.795,213.134 635.744,213.256C635.795,213.134 714.782,219.807 759.487,264.513C804.193,309.218 810.866,388.205 810.744,388.256C810.866,388.205 862,448.777 862,512C862,575.223 810.866,635.795 810.744,635.744C810.866,635.795 804.193,714.782 759.487,759.487C714.782,804.193 635.795,810.866 635.744,810.744C635.795,810.866 575.223,862 512,862C448.777,862 388.205,810.866 388.256,810.744C388.205,810.866 309.218,804.193 264.513,759.487C219.807,714.782 213.134,635.795 213.256,635.744C213.134,635.795 162,575.223 162,512C162,448.777 213.134,388.205 213.256,388.256C213.134,388.205 219.807,309.218 264.513,264.513C309.218,219.807 388.205,213.134 388.256,213.256C388.205,213.134 448.777,162 512,162ZM512,326C614.656,326 698,409.344 698,512C698,614.656 614.656,698 512,698C409.344,698 326,614.656 326,512C326,409.344 409.344,326 512,326Z" style="fill:white;fill-opacity:0.6;stroke:black;stroke-width:5.29px;"/>
                </g>
                <g id="attack" transform="matrix(0.639261,0,0,0.639261,7274.87,211.993)">
                    <path id="attack1" serif:id="attack" d="M856.966,790.922C860.673,786.331 864.283,781.67 867.798,776.942C871.641,771.771 875.372,766.517 878.985,761.185L878.999,761.166C882.443,756.082 885.777,750.935 889.003,745.722C889.894,744.283 890.781,742.83 891.66,741.373C892.342,740.242 893.018,739.109 893.69,737.972C894.539,736.535 895.38,735.094 896.212,733.649L896.581,733.007C897.71,731.038 898.828,729.054 899.93,727.061C900.132,726.697 900.331,726.337 900.529,725.976L901.128,724.882C902.776,721.864 904.393,718.82 905.974,715.757C906.947,713.871 907.905,711.982 908.849,710.086C909.386,709.01 909.922,707.921 910.455,706.83C910.695,706.338 910.937,705.84 911.178,705.342C911.776,704.105 912.366,702.87 912.95,701.631C913.322,700.844 913.692,700.052 914.061,699.259L914.378,698.575C914.896,697.457 915.406,696.342 915.912,695.224C916.39,694.167 916.866,693.105 917.338,692.04L917.968,690.613L918.192,690.102C918.601,689.167 919.009,688.225 919.414,687.281C921.692,681.975 923.867,676.624 925.937,671.228L926.151,670.67C927.156,668.04 928.141,665.386 929.101,662.722C929.451,661.753 929.794,660.789 930.135,659.824C930.386,659.112 930.637,658.393 930.887,657.674L931.163,656.876C931.358,656.31 931.551,655.746 931.743,655.181C932.321,653.483 932.884,651.794 933.436,650.102C933.985,648.425 934.527,646.73 935.06,645.031C935.5,643.627 935.935,642.216 936.363,640.802L936.607,639.993C937.767,636.131 938.874,632.258 939.928,628.366L940.523,626.146L940.838,624.952C941.219,623.499 941.59,622.059 941.953,620.616L942.2,619.631C942.388,618.875 942.572,618.129 942.754,617.382C942.867,616.916 942.978,616.457 943.089,615.998C943.646,613.676 944.183,611.36 944.701,609.038L945.113,607.178L945.268,606.463C945.489,605.445 945.704,604.438 945.915,603.43C947.98,593.583 949.713,583.653 951.107,573.641L951.225,572.787C951.32,572.097 951.413,571.405 951.505,570.713C951.865,567.993 952.199,565.282 952.508,562.566C953.832,550.924 954.7,539.172 955.098,527.341L953.539,526.492L952.174,525.73L951.277,525.221L949.773,524.349L948.439,523.557L947.134,522.765L945.683,521.864L944.39,521.041L943.546,520.494L942.7,519.938L941.31,519.006L940.071,518.155L939.259,517.588L938.366,516.953L937.109,516.043L936.312,515.455L935.52,514.861L934.694,514.232L933.857,513.585L933.074,512.971L932.691,512.666C932.036,512.144 931.388,511.617 930.747,511.086L929.951,510.422L929.575,510.105C928.557,509.241 927.557,508.366 926.574,507.479L926.573,507.477C922.383,503.695 918.517,499.7 914.972,495.49L914.329,494.719L913.725,493.983L913.121,493.235L912.463,492.405L911.573,491.257L910.727,490.139C916.538,467.255 920.407,443.461 922.063,418.994C933.352,252.21 838.545,102.56 712.463,55.73C734.438,102.807 753.232,160.34 764.869,223.768L763.605,222.677L762.48,221.684L762.11,221.353C761.342,220.663 760.584,219.968 759.838,219.268L759.46,218.913C753.596,213.375 748.396,207.51 743.857,201.316C743.542,200.886 743.23,200.454 742.921,200.02L742.507,199.435C742.195,198.992 741.886,198.547 741.58,198.1C741.284,197.666 740.991,197.231 740.701,196.794C740.439,196.401 740.182,196.008 739.927,195.615C739.195,194.484 738.485,193.345 737.796,192.196L737.446,191.609C733.493,184.931 730.233,177.909 727.668,170.543L727.349,169.615C726.987,168.547 726.638,167.469 726.304,166.384L726.009,165.41L725.873,164.951C725.644,164.172 725.423,163.392 725.209,162.609L724.94,161.603L724.697,160.667L724.579,160.204C724.421,159.571 724.267,158.94 724.119,158.307L723.771,156.785L723.566,155.842L723.267,154.404L722.964,152.847L722.7,151.409L722.535,150.457L722.356,149.377L722.122,147.874L721.913,146.421L721.781,145.444L721.576,143.808L721.408,142.329L721.305,141.349L721.148,139.693L721.021,138.181L720.911,136.688L720.805,135.007L720.712,133.174L720.662,131.956L720.625,130.827L720.586,129.205L720.563,127.565L720.558,126.639L720.563,124.889L720.583,123.318L720.618,121.756L720.632,121.235C636.632,76.435 541.809,60.495 450.109,73.415L449.965,73.435C446.073,73.985 442.186,74.587 438.306,75.24L437.475,75.381C436.281,75.585 435.082,75.794 433.883,76.009C427.591,77.135 421.307,78.399 415.046,79.802L413.922,80.056C411.574,80.588 409.227,81.14 406.882,81.712L405.866,81.962C404.567,82.282 403.261,82.61 401.956,82.944C397.44,84.101 392.931,85.333 388.438,86.637C386.979,87.059 385.512,87.494 384.046,87.936C383.483,88.105 382.925,88.275 382.367,88.445L381.555,88.694C379.39,89.361 377.23,90.044 375.073,90.744L374.559,90.912C373.928,91.118 373.288,91.328 372.649,91.54C372.32,91.649 371.989,91.759 371.657,91.87C370.709,92.186 369.753,92.509 368.797,92.835C368.209,93.036 367.607,93.242 367.006,93.45C365.282,94.047 363.548,94.66 361.817,95.283L361.325,95.46C357.983,96.669 354.658,97.916 351.345,99.204C350.702,99.454 350.053,99.708 349.405,99.964L348.61,100.278L347.021,100.912L346.228,101.231C344.651,101.866 343.062,102.518 341.476,103.179C339.416,104.038 337.374,104.907 335.337,105.793C334.025,106.363 332.705,106.944 331.386,107.532C328.394,108.868 325.425,110.232 322.468,111.631L321.094,112.284L319.887,112.862C318.887,113.343 317.877,113.833 316.869,114.327L315.723,114.891C314.211,115.638 312.701,116.394 311.194,117.16C310.361,117.583 309.545,118.001 308.73,118.421L307.831,118.887C306.344,119.658 304.854,120.442 303.368,121.235L303.411,123.01L303.435,124.573L303.442,125.604L303.438,127.342L303.42,128.894L303.387,130.42L303.331,132.127L303.266,133.658L303.214,134.662L303.155,135.673L303.043,137.343L302.926,138.842L302.84,139.828L302.737,140.919L302.577,142.463L302.466,143.447L302.348,144.43L302.217,145.46L302.075,146.508L301.934,147.493L301.862,147.977C301.738,148.806 301.606,149.63 301.466,150.451L301.289,151.472L301.202,151.956C300.963,153.269 300.705,154.573 300.428,155.868L300.428,155.87C299.247,161.39 297.72,166.736 295.846,171.91L295.501,172.853L295.165,173.743L294.819,174.641L294.43,175.626L293.881,176.971L293.335,178.262C270.612,184.672 248.071,193.218 226.054,204.018C75.97,277.633 -6.227,434.563 16.258,567.169C46.04,524.599 86.468,479.556 135.58,437.764L135.267,439.404L134.97,440.875L134.868,441.362C134.655,442.372 134.432,443.375 134.199,444.371L134.08,444.877C133.672,446.592 133.235,448.289 132.768,449.967L132.572,450.664C129.618,461.068 125.522,470.714 120.284,479.601C120.12,479.88 119.956,480.156 119.79,480.432C119.381,481.113 118.967,481.787 118.546,482.456C118.393,482.698 118.239,482.942 118.084,483.184C117.109,484.71 116.098,486.213 115.051,487.693L114.333,488.697L114.013,489.137C113.733,489.521 113.45,489.903 113.165,490.284L112.666,490.945L111.688,492.212C111.519,492.429 111.35,492.643 111.181,492.856L110.575,493.613L109.589,494.817C109.095,495.414 108.594,496.006 108.086,496.594L107.442,497.334C106.698,498.182 105.939,499.023 105.166,499.854L104.471,500.597L104.141,500.945C103.581,501.532 103.016,502.114 102.445,502.69L101.709,503.426L101.019,504.105L100.677,504.438C100.208,504.892 99.739,505.34 99.264,505.786L98.479,506.517L97.763,507.174L97.049,507.818L96.31,508.474L95.492,509.19L94.37,510.151L93.629,510.774L92.869,511.403L91.614,512.423L90.459,513.338L89.689,513.938L88.807,514.613L87.579,515.535L86.384,516.412L85.07,517.355L83.796,518.247L82.559,519.095L81.731,519.651L80.308,520.589L78.77,521.578L77.743,522.223L76.272,523.128L74.946,523.924L73.619,524.704L72.102,525.574L70.731,526.343L69.361,527.093L68.902,527.341C71.737,611.573 98.401,691.841 144.061,759.772C146.245,763.023 148.48,766.254 150.758,769.456C151.411,770.374 152.075,771.3 152.743,772.223C153.059,772.661 153.383,773.107 153.708,773.553C154.206,774.236 154.702,774.913 155.201,775.589C161.082,783.566 167.24,791.356 173.662,798.94C175.292,800.865 176.941,802.78 178.608,804.68L179.545,805.747L180.104,806.38C180.893,807.27 181.676,808.147 182.462,809.021L183.663,810.349L185.193,812.028L185.765,812.65C187.651,814.7 189.558,816.734 191.485,818.75C191.939,819.226 192.405,819.71 192.871,820.194L193.898,821.256C195.078,822.471 196.264,823.679 197.458,824.88C197.873,825.299 198.281,825.708 198.691,826.117C209.764,837.175 221.451,847.677 233.727,857.574C237.836,860.886 242.01,864.13 246.25,867.304L246.947,867.825C248.263,868.806 249.574,869.772 250.892,870.732L251.464,871.148C252.473,871.881 253.499,872.62 254.529,873.354C255.253,873.871 255.964,874.375 256.678,874.877C257.272,875.295 257.865,875.711 258.459,876.125C264.692,880.469 271.05,884.662 277.534,888.703L279.05,887.777L280.392,886.976L281.281,886.454L282.788,885.588L284.142,884.828L285.48,884.094L286.986,883.288L288.344,882.58L289.24,882.122L290.144,881.668L291.647,880.93L293.003,880.282L293.936,879.846L294.896,879.407L296.314,878.773L297.221,878.377L298.132,877.988L299.089,877.587L300.068,877.186L300.991,876.815L301.508,876.611C302.257,876.318 303.005,876.032 303.754,875.754L304.76,875.385L305.223,875.218C306.48,874.768 307.738,874.339 308.997,873.932L309,873.931C314.37,872.194 319.763,870.843 325.181,869.879L326.17,869.707L327.109,869.552L328.059,869.403L329.107,869.248L330.795,869.019L331.938,868.877C348.85,885.352 367.522,900.6 387.884,914.267C526.678,1007.44 703.682,1000.15 807.279,914.38C755.522,909.873 696.3,897.383 635.55,875.747L637.128,875.198L638.55,874.72L639.022,874.565C640.003,874.244 640.984,873.936 641.963,873.639L642.461,873.489C662.03,867.642 681.291,866.526 700.245,870.142L701.209,870.33C702.315,870.55 703.423,870.787 704.529,871.041L705.52,871.272L705.986,871.384C706.775,871.575 707.561,871.773 708.346,871.98L709.352,872.249L710.284,872.507L710.744,872.637C711.371,872.815 711.994,872.998 712.617,873.186L713.643,873.501L714.57,873.793L715.484,874.089L716.423,874.4L717.451,874.751L718.844,875.242L719.754,875.572L720.679,875.916L722.19,876.493L723.561,877.036L724.465,877.403L725.491,877.829L726.903,878.431L728.26,879.027L729.162,879.433L730.687,880.136L732.046,880.782L732.944,881.217L734.452,881.967L735.822,882.665L737.166,883.368L738.162,883.9L739.586,884.677L740.931,885.429L741.823,885.936L743.336,886.815L744.687,887.619L746.022,888.43L746.466,888.703C751.947,885.288 757.338,881.763 762.645,878.126C763.068,877.836 763.492,877.545 763.915,877.253L765.047,876.468C765.393,876.228 765.738,875.988 766.083,875.747C767.614,874.676 769.138,873.596 770.654,872.507L771.518,871.886L772.595,871.105C774.26,869.896 775.915,868.676 777.561,867.446L778.425,866.797L779.793,865.765C781.305,864.62 782.807,863.466 784.301,862.304L785.22,861.587C785.668,861.236 786.117,860.884 786.565,860.53C787.485,859.805 788.402,859.076 789.315,858.344L789.962,857.825C793.938,854.626 797.852,851.363 801.703,848.04C805.57,844.702 809.376,841.3 813.117,837.838C816.094,835.084 819.029,832.292 821.922,829.464C822.264,829.13 822.602,828.799 822.939,828.467C823.757,827.662 824.574,826.851 825.388,826.038C827.877,823.551 830.337,821.033 832.766,818.487L833.617,817.593L834.54,816.616C835.266,815.847 835.991,815.073 836.713,814.296C837.313,813.65 837.912,813.002 838.509,812.352C839.944,810.79 841.365,809.221 842.773,807.642L842.804,807.608C844.106,806.149 845.397,804.682 846.679,803.207L847.993,801.687C849.205,800.279 850.412,798.859 851.609,797.432C852.512,796.356 853.41,795.275 854.304,794.189C855.198,793.102 856.085,792.014 856.966,790.922ZM600,287.699L600,253.043C572.395,243.647 542.788,238.548 512,238.548C481.212,238.548 451.605,243.647 424,253.043L424,287.699C413.391,291.844 403.059,296.741 393.092,302.366C392.488,302.708 391.898,303.045 391.31,303.385C390.583,303.805 389.859,304.228 389.129,304.659C354.2,325.375 324.93,354.647 304.225,389.57C303.801,390.285 303.378,391.009 302.959,391.736C302.539,392.463 302.124,393.191 301.707,393.93C281.819,429.328 271.108,469.304 270.633,509.9C270.624,510.749 270.62,511.587 270.62,512.426C270.62,513.268 270.624,514.108 270.633,514.947C271.109,555.549 281.82,595.526 301.707,630.922C302.124,631.661 302.539,632.389 302.959,633.116C303.305,633.716 303.654,634.314 304.003,634.908C310.719,646.279 318.341,657.056 326.77,667.135C331.176,672.111 335.679,677.066 340.274,681.989C354.923,696.823 371.476,709.77 389.537,720.434C390.135,720.786 390.722,721.128 391.31,721.468C392.037,721.887 392.765,722.303 393.504,722.719C403.343,728.247 413.536,733.066 424,737.154L424,770.957C451.605,780.353 481.212,785.452 512,785.452C542.788,785.452 572.395,780.353 600,770.957L600,737.154C610.462,733.067 620.656,728.248 630.496,722.719C631.235,722.303 631.963,721.887 632.69,721.468C633.419,721.047 634.144,720.623 634.867,720.196C669.791,699.483 699.057,670.218 719.767,635.297C720.199,634.567 720.622,633.843 721.041,633.116C721.388,632.516 721.731,631.916 722.07,631.316C728.561,619.814 734.082,607.825 738.597,595.485C740.703,589.182 742.742,582.805 744.709,576.364C750.231,556.261 753.167,535.451 753.371,514.479C753.377,513.784 753.38,513.106 753.38,512.426C753.38,511.587 753.376,510.749 753.367,509.9C752.891,469.293 742.175,429.309 722.285,393.916C721.877,393.192 721.461,392.463 721.041,391.736C720.622,391.009 720.199,390.286 719.767,389.555C699.055,354.633 669.791,325.369 634.871,304.659C634.141,304.228 633.417,303.805 632.69,303.385C631.961,302.964 631.231,302.548 630.5,302.136C620.659,296.607 610.464,291.787 600,287.699Z" style="fill:white;fill-opacity:0.6;stroke:black;stroke-width:5.29px;"/>
                </g>
            </g>
        </g>
    </g>
</svg>
