<?xml version="1.0" encoding="UTF-8" standalone="no"?>
<!DOCTYPE svg PUBLIC "-//W3C//DTD SVG 1.1//EN" "http://www.w3.org/Graphics/SVG/1.1/DTD/svg11.dtd">
<svg width="100%" height="100%" viewBox="0 0 1024 1024" version="1.1" xmlns="http://www.w3.org/2000/svg" xmlns:xlink="http://www.w3.org/1999/xlink" xml:space="preserve" xmlns:serif="http://www.serif.com/" style="fill-rule:evenodd;clip-rule:evenodd;stroke-linejoin:round;stroke-miterlimit:2;">
    <g transform="matrix(1,0,0,1,0,3.13002)">
        <g id="wind" opacity="0.6">
            <g transform="matrix(1.11883,0,0,1.11883,-60.843,-60.843)">
                <path d="M512,66C548.22,66 560.75,282.648 560.75,282.648C604.519,291.951 636.323,232.767 693.405,104.559C726.493,119.291 649.822,322.305 649.822,322.305C686.022,348.606 739.149,307.474 843.443,213.568C867.679,240.485 715.062,394.762 715.062,394.762C737.435,433.513 802.699,417.546 936.171,374.178C947.364,408.626 745.192,487.491 745.192,487.491C749.869,531.992 815.984,543.95 955.557,558.62C951.771,594.641 735,584.457 735,584.457C721.173,627.013 776.708,664.829 898.247,735C880.137,766.368 686.25,668.895 686.25,668.895C656.309,702.148 691.662,759.283 774.152,872.822C744.849,894.111 607.37,726.205 607.37,726.205C566.492,744.404 575.55,810.979 604.729,948.254C569.3,955.784 512,746.476 512,746.476C467.254,746.476 448.45,810.979 419.271,948.254C383.843,940.723 416.63,726.205 416.63,726.205C375.752,708.005 332.338,759.283 249.848,872.822C220.545,851.532 337.75,668.895 337.75,668.895C307.809,635.642 247.292,664.829 125.753,735C107.643,703.632 289,584.457 289,584.457C275.173,541.901 208.016,543.95 68.443,558.62C64.657,522.598 278.808,487.491 278.808,487.491C283.486,442.989 221.301,417.546 87.829,374.178C99.021,339.731 308.938,394.762 308.938,394.762C331.311,356.011 284.851,307.474 180.557,213.568C204.793,186.651 374.178,322.305 374.178,322.305C410.379,296.004 387.677,232.767 330.595,104.559C363.684,89.827 463.25,282.648 463.25,282.648C507.018,273.345 512,206.341 512,66Z" style="fill:url(#_Radial1);"/>
            </g>
            <g transform="matrix(0.901253,-0.175623,0.175623,0.901253,-39.3608,140.477)">
                <path d="M512,66C557.224,66 572.687,285.514 572.687,285.514C605.454,294.293 702.305,182.382 735,125.753C774.165,148.365 677.8,346.2 677.8,346.2C701.787,370.187 841.618,321.695 898.247,289C920.859,328.165 738.486,451.313 738.486,451.313C747.266,484.08 892.61,512 958,512C958,557.224 738.486,572.687 738.486,572.687C729.707,605.454 841.618,702.305 898.247,735C875.635,774.165 677.8,677.8 677.8,677.8C653.813,701.787 702.305,841.618 735,898.247C695.835,920.859 572.687,738.486 572.687,738.486C539.92,747.266 512,892.61 512,958C466.776,958 451.313,738.486 451.313,738.486C418.546,729.707 321.695,841.618 289,898.247C249.835,875.635 346.2,677.8 346.2,677.8C322.213,653.813 182.382,702.305 125.753,735C103.141,695.835 285.514,572.687 285.514,572.687C276.734,539.92 131.39,512 66,512C66,466.776 285.514,451.313 285.514,451.313C294.293,418.546 182.382,321.695 125.753,289C148.365,249.835 346.2,346.2 346.2,346.2C370.187,322.213 321.695,182.382 289,125.753C328.165,103.141 451.313,285.514 451.313,285.514C484.08,276.734 512,131.39 512,66Z" style="fill:url(#_Radial2);"/>
            </g>
            <g transform="matrix(0.74638,-0.291737,0.291737,0.74638,-19.5157,279.223)">
                <path d="M512,66C566.274,66 592.196,291.665 592.196,291.665C655.232,314.608 730.809,251.234 798.683,170.344C840.26,205.231 715.062,394.762 715.062,394.762C748.603,452.857 847.234,452.889 951.224,434.553C960.649,488.003 742.914,552.716 742.914,552.716C731.265,618.78 806.8,682.203 898.247,735C871.11,782.003 662.718,691.619 662.718,691.619C611.33,734.739 628.426,831.877 664.541,931.103C613.54,949.666 512,746.476 512,746.476C444.918,746.476 395.574,831.877 359.459,931.103C308.458,912.54 361.282,691.619 361.282,691.619C309.894,648.499 217.2,682.203 125.753,735C98.616,687.997 281.086,552.716 281.086,552.716C269.437,486.653 176.766,452.889 72.776,434.553C82.2,381.103 308.938,394.762 308.938,394.762C342.479,336.667 293.191,251.234 225.317,170.344C266.893,135.457 431.804,291.665 431.804,291.665C494.841,268.721 512,171.594 512,66Z" style="fill:url(#_Radial3);"/>
            </g>
            <g transform="matrix(0.191233,-0.259138,0.259138,0.191233,281.41,546.767)">
                <path d="M512,66C588.861,66 597.3,364.257 597.3,364.257C630.6,383.483 850.972,316.295 898.247,289C936.678,355.563 682.599,512 682.599,512C682.599,550.452 850.972,707.705 898.247,735C859.817,801.563 597.3,659.743 597.3,659.743C563.999,678.969 512,903.411 512,958C435.139,958 426.7,659.743 426.7,659.743C393.4,640.517 173.028,707.705 125.753,735C87.322,668.437 341.401,512 341.401,512C341.401,473.548 173.028,316.295 125.753,289C164.183,222.437 426.7,364.257 426.7,364.257C460.001,345.031 512,120.589 512,66Z" style="fill:url(#_Radial4);"/>
            </g>
        </g>
    </g>
    <defs>
        <radialGradient id="_Radial1" cx="0" cy="0" r="1" gradientUnits="userSpaceOnUse" gradientTransform="matrix(446,0,0,446,512,512)"><stop offset="0" style="stop-color:white;stop-opacity:1"/><stop offset="0.45" style="stop-color:white;stop-opacity:0.21"/><stop offset="1" style="stop-color:white;stop-opacity:0"/></radialGradient>
        <radialGradient id="_Radial2" cx="0" cy="0" r="1" gradientUnits="userSpaceOnUse" gradientTransform="matrix(446,0,0,446,512,512)"><stop offset="0" style="stop-color:white;stop-opacity:1"/><stop offset="0.52" style="stop-color:white;stop-opacity:0.27"/><stop offset="1" style="stop-color:white;stop-opacity:0"/></radialGradient>
        <radialGradient id="_Radial3" cx="0" cy="0" r="1" gradientUnits="userSpaceOnUse" gradientTransform="matrix(446,0,0,446,512,512)"><stop offset="0" style="stop-color:white;stop-opacity:1"/><stop offset="1" style="stop-color:white;stop-opacity:0"/></radialGradient>
        <radialGradient id="_Radial4" cx="0" cy="0" r="1" gradientUnits="userSpaceOnUse" gradientTransform="matrix(446,0,0,446,512,512)"><stop offset="0" style="stop-color:white;stop-opacity:1"/><stop offset="0.48" style="stop-color:white;stop-opacity:0.73"/><stop offset="1" style="stop-color:white;stop-opacity:0"/></radialGradient>
    </defs>
</svg>
